<svg width="29" height="26" viewBox="0 0 29 26" fill="none" xmlns="http://www.w3.org/2000/svg">
<path d="M26.4571 6.61183C27.8043 5.95074 28.3612 4.32349 27.7002 2.97688C27.0407 1.62914 25.413 1.07275 24.0657 1.73327C22.7191 2.39328 22.1626 4.02064 22.8227 5.36725C23.4828 6.71442 25.11 7.27133 26.4571 6.61183Z" fill="#00533E"/>
<path d="M19.0858 10.1132C18.869 11.1697 18.9641 12.1156 20.0168 12.4053C20.0168 12.4053 24.8592 13.7354 24.8613 13.7359L24.864 13.7365C25.6505 13.9518 26.4556 13.4889 26.6697 12.7087C26.884 11.9275 26.4259 11.1197 25.6446 10.904C25.6437 10.9034 25.6431 10.9034 25.642 10.9029L23.1725 10.2247L22.1962 9.57318C22.4917 8.13568 22.3865 8.64588 22.6495 7.36767C22.7882 6.69443 22.2721 5.83354 21.9698 5.21602C21.4006 4.05592 19.9998 3.5765 18.8402 4.14517L17.2184 4.94027L19.8053 6.6679C19.7458 6.87304 19.6055 7.58298 19.5588 7.81158L8.134 0.184023C7.63556 -0.150868 6.95902 -0.0158325 6.62481 0.484714C6.29099 0.984239 6.42552 1.66027 6.9255 1.99397L19.0858 10.1132Z" fill="#00533E"/>
<path d="M28.054 22.8734C27.7464 22.358 27.0794 22.1906 26.5612 22.4988L25.0626 23.3953L15.1493 19.9836L19.8238 16.0456C20.7123 15.2979 20.6666 13.9082 19.7244 13.2211L17.1088 11.3148L18.0478 10.8547L18.1562 10.8014L12.6968 7.15637L12.6958 7.15688C11.7843 7.6038 11.2045 8.451 11.0525 9.38193C10.8639 10.531 11.3443 11.5306 12.4305 12.3495L15.7578 14.7744L11.2274 18.6337L1.44313 15.266C0.873446 15.0688 0.254849 15.3717 0.0597658 15.9404C-0.13634 16.5091 0.166056 17.1282 0.734149 17.3242L24.8324 25.6183C24.9478 25.6581 25.0679 25.6778 25.1869 25.6778C25.3814 25.6778 25.5749 25.6257 25.746 25.5231L27.6794 24.3662C28.1949 24.0579 28.3628 23.3894 28.054 22.8734Z" fill="#00533E"/>
</svg>
