<svg width="19" height="26" viewBox="0 0 19 26" fill="none" xmlns="http://www.w3.org/2000/svg">
<path d="M18.3241 15.5754V4.58101C18.3226 3.3665 17.8395 2.20215 16.9807 1.34335C16.1219 0.484563 14.9576 0.0014548 13.743 0H4.58101C3.3665 0.0014548 2.20215 0.484563 1.34335 1.34335C0.484563 2.20215 0.0014548 3.3665 0 4.58101V15.5754C0.00176466 16.6233 0.362274 17.6389 1.02154 18.4534C1.68081 19.2679 2.59909 19.832 3.62358 20.052L1.05088 24.2601C0.983733 24.3628 0.937892 24.478 0.916079 24.5987C0.894266 24.7194 0.896926 24.8433 0.923901 24.963C0.950877 25.0827 1.00162 25.1958 1.07312 25.2955C1.14461 25.3952 1.23541 25.4795 1.34012 25.5435C1.44483 25.6074 1.56131 25.6497 1.68267 25.6678C1.80402 25.6859 1.92777 25.6794 2.04658 25.6487C2.16538 25.6181 2.27682 25.5639 2.37428 25.4893C2.47173 25.4148 2.55323 25.3214 2.61393 25.2148L3.46691 23.8213H14.8581L15.7101 25.2148C15.7708 25.3214 15.8523 25.4148 15.9498 25.4893C16.0472 25.5639 16.1587 25.6181 16.2775 25.6487C16.3963 25.6794 16.52 25.6859 16.6414 25.6678C16.7627 25.6497 16.8792 25.6074 16.9839 25.5435C17.0886 25.4795 17.1794 25.3952 17.2509 25.2955C17.3224 25.1958 17.3732 25.0827 17.4002 24.963C17.4271 24.8433 17.4298 24.7194 17.408 24.5987C17.3862 24.478 17.3403 24.3628 17.2732 24.2601L14.7005 20.052C15.725 19.832 16.6432 19.2679 17.3025 18.4534C17.9618 17.6389 18.3223 16.6233 18.3241 15.5754ZM4.58101 16.4917C4.39981 16.4917 4.22267 16.4379 4.072 16.3372C3.92133 16.2366 3.8039 16.0935 3.73455 15.9261C3.66521 15.7586 3.64706 15.5744 3.68242 15.3967C3.71777 15.219 3.80503 15.0557 3.93316 14.9276C4.06129 14.7995 4.22455 14.7122 4.40227 14.6768C4.58 14.6415 4.76422 14.6596 4.93163 14.729C5.09904 14.7983 5.24213 14.9158 5.34281 15.0664C5.44348 15.2171 5.49722 15.3942 5.49722 15.5754C5.49722 15.8184 5.40069 16.0515 5.22887 16.2233C5.05705 16.3951 4.82401 16.4917 4.58101 16.4917ZM4.58743 21.9889L5.70794 20.1565H12.617L13.7375 21.9889H4.58743ZM12.8268 15.5754C12.8268 15.3942 12.8806 15.2171 12.9812 15.0664C13.0819 14.9158 13.225 14.7983 13.3924 14.729C13.5598 14.6596 13.7441 14.6415 13.9218 14.6768C14.0995 14.7122 14.2628 14.7995 14.3909 14.9276C14.519 15.0557 14.6063 15.219 14.6416 15.3967C14.677 15.5744 14.6588 15.7586 14.5895 15.9261C14.5202 16.0935 14.4027 16.2366 14.2521 16.3372C14.1014 16.4379 13.9242 16.4917 13.743 16.4917C13.5 16.4917 13.267 16.3951 13.0952 16.2233C12.9234 16.0515 12.8268 15.8184 12.8268 15.5754ZM15.5754 10.0782C15.5754 10.5642 15.3824 11.0303 15.0387 11.3739C14.6951 11.7176 14.229 11.9106 13.743 11.9106H4.58101C4.09503 11.9106 3.62895 11.7176 3.28531 11.3739C2.94166 11.0303 2.74861 10.5642 2.74861 10.0782V4.58101C2.74861 4.09503 2.94166 3.62895 3.28531 3.28531C3.62895 2.94166 4.09503 2.74861 4.58101 2.74861H13.743C14.229 2.74861 14.6951 2.94166 15.0387 3.28531C15.3824 3.62895 15.5754 4.09503 15.5754 4.58101V10.0782Z" fill="#00533E"/>
</svg>
