<svg width="37" height="26" viewBox="0 0 37 26" fill="none" xmlns="http://www.w3.org/2000/svg">
<path d="M23.6717 12.5542C24.251 11.603 24.7802 10.7376 25.3023 9.87223C25.6885 9.24286 26.0533 8.5992 26.4609 7.97699C26.9973 7.14738 27.877 7.12592 28.4777 7.89832C28.5564 7.99844 28.6279 8.10572 28.6923 8.22015C31.1382 12.2252 33.5841 16.2302 36.0301 20.2424C36.9241 21.7085 36.7953 23.3248 35.7369 24.4977C34.9501 25.3774 33.9274 25.6778 32.776 25.6778C26.8042 25.6778 20.8324 25.6778 14.8606 25.6778C11.1059 25.6778 7.35838 25.6778 3.60366 25.6778C2.23766 25.6778 1.08622 25.263 0.399643 24.0042C-0.265477 22.7741 -0.0509224 21.6227 0.678565 20.4712C4.69074 14.1061 8.68862 7.72667 12.6722 1.34724C13.795 -0.44072 15.4543 -0.455023 16.5842 1.34009C18.7942 4.82303 20.9898 8.32743 23.1782 11.8318C23.3141 12.0392 23.4572 12.2395 23.6717 12.5542Z" fill="#0F5B49"/>
</svg>
