<svg width="37" height="26" viewBox="0 0 37 26" fill="none" xmlns="http://www.w3.org/2000/svg">
<path d="M31.6079 2.49536C30.3651 4.00237 28.3493 4.00237 27.0967 2.49536C25.7561 0.880717 23.9653 0 22.0179 0C20.0803 0 18.2797 0.880717 16.9391 2.49536C15.6963 4.00237 13.6707 4.00237 12.4279 2.49536C11.0872 0.880717 9.29644 0 7.34907 0C5.4115 0 3.61092 0.880717 2.27027 2.49536C1.64398 3.23908 0.812197 3.61094 0.00976562 3.61094V7.33931C1.94734 7.33931 3.74792 6.43902 5.08857 4.82437C6.33136 3.31737 8.35701 3.31737 9.59979 4.82437C10.9404 6.43902 12.7312 7.33931 14.6786 7.33931C16.6162 7.33931 18.4167 6.43902 19.7574 4.82437C21.0002 3.31737 23.0258 3.31737 24.2686 4.82437C25.6093 6.43902 27.4098 7.33931 29.3474 7.33931C31.285 7.33931 33.0856 6.43902 34.4262 4.82437C35.0525 4.07087 35.8745 3.68922 36.6867 3.68922V0C34.7394 0 32.9486 0.880717 31.6079 2.49536Z" fill="#00533E"/>
<path d="M31.6079 20.8337C30.3651 22.3407 28.3493 22.3407 27.0967 20.8337C25.7561 19.2191 23.9653 18.3384 22.0179 18.3384C20.0803 18.3384 18.2797 19.2191 16.9391 20.8337C15.6963 22.3407 13.6707 22.3407 12.4279 20.8337C11.0872 19.2191 9.29644 18.3384 7.34907 18.3384C5.4115 18.3384 3.61092 19.2191 2.27027 20.8337C1.64398 21.5775 0.812197 21.9493 0.00976562 21.9493V25.6777C1.94734 25.6777 3.74792 24.7774 5.08857 23.1628C6.33136 21.6557 8.35701 21.6557 9.59979 23.1628C10.9404 24.7774 12.7312 25.6777 14.6786 25.6777C16.6162 25.6777 18.4167 24.7774 19.7574 23.1628C21.0002 21.6557 23.0258 21.6557 24.2686 23.1628C25.6093 24.7774 27.4098 25.6777 29.3474 25.6777C31.285 25.6777 33.0856 24.7774 34.4262 23.1628C35.0525 22.4092 35.8745 22.0276 36.6867 22.0276V18.3384C34.7394 18.3384 32.9486 19.2191 31.6079 20.8337Z" fill="#00533E"/>
<path d="M36.3247 9.15967C34.3871 9.15967 32.5865 10.0404 31.2459 11.655C30.0031 13.162 27.9872 13.162 26.7347 11.655C25.394 10.0404 23.6032 9.15967 21.6559 9.15967C19.7183 9.15967 17.9177 10.0404 16.577 11.655C15.3343 13.162 13.3086 13.162 12.0658 11.655C10.7252 10.0404 8.9246 9.15967 6.98702 9.15967C5.04944 9.15967 3.24887 10.0404 1.90822 11.655C1.46786 12.1932 0.39143 12.8 0 12.7412V16.4892C0.127215 16.4892 0.244644 16.4892 0.352287 16.4696C2.03543 16.2739 3.56201 15.403 4.7363 13.9938C5.97909 12.4868 8.00474 12.4868 9.24753 13.9938C10.5882 15.6085 12.3888 16.5088 14.3263 16.5088C16.2639 16.5088 18.0645 15.6085 19.4051 13.9938C20.6479 12.4868 22.6736 12.4868 23.9164 13.9938C25.257 15.6085 27.0576 16.5088 28.9952 16.5088C30.9327 16.5088 32.7333 15.6085 34.074 13.9938C34.7002 13.2403 35.5222 12.8587 36.3345 12.8587C36.4617 12.8587 36.5791 12.8587 36.6868 12.8978V9.18902C36.5693 9.17924 36.4617 9.17924 36.3247 9.15967Z" fill="#00533E"/>
</svg>
