<svg width="50" height="50" viewBox="0 0 50 50" fill="none" xmlns="http://www.w3.org/2000/svg">
<circle cx="25" cy="25" r="25" fill="#00533E"/>
<path d="M19.1429 16.5714C19.1429 18.5439 17.5439 20.1429 15.5714 20.1429C13.599 20.1429 12 18.5439 12 16.5714C12 14.599 13.599 13 15.5714 13C17.5439 13 19.1429 14.599 19.1429 16.5714Z" fill="#FAFAFA"/>
<path d="M37.0003 34.4285C37.0003 36.401 35.4014 38 33.4289 38C31.4564 38 29.8574 36.401 29.8574 34.4285C29.8574 32.456 31.4564 30.8571 33.4289 30.8571C35.4014 30.8571 37.0003 32.456 37.0003 34.4285Z" fill="#FAFAFA"/>
<path d="M26.2861 19.25C26.2861 17.7707 27.4854 16.5714 28.9647 16.5714C30.444 16.5714 31.6433 17.7707 31.6433 19.25V27.2857H35.2147V19.25C35.2147 15.7982 32.4165 13 28.9647 13C25.5129 13 22.7147 15.7982 22.7147 19.25V31.75C22.7147 33.2293 21.5155 34.4286 20.0361 34.4286C18.5568 34.4286 17.3576 33.2293 17.3576 31.75V23.7143H13.7861V31.75C13.7861 35.2018 16.5843 38 20.0361 38C23.4879 38 26.2861 35.2018 26.2861 31.75V19.25Z" fill="#FAFAFA"/>
</svg>
