<svg width="90" height="90" viewBox="0 0 90 90" fill="none" xmlns="http://www.w3.org/2000/svg">
<circle cx="45" cy="45" r="45" fill="#00533E"/>
<path d="M44.875 22C40.4013 22.0059 36.1125 23.7857 32.9491 26.9491C29.7857 30.1125 28.0059 34.4013 28 38.875C28 50.9898 43.7219 66.1632 44.3898 66.8031C44.5198 66.9294 44.6938 67 44.875 67C45.0562 67 45.2302 66.9294 45.3601 66.8031C46.0281 66.1632 61.75 50.9898 61.75 38.875C61.744 34.4013 59.9642 30.1125 56.8008 26.9491C53.6375 23.7857 49.3487 22.0059 44.875 22ZM44.875 46.6093C43.3453 46.6093 41.8499 46.1557 40.578 45.3059C39.3061 44.456 38.3148 43.2481 37.7294 41.8348C37.144 40.4215 36.9908 38.8664 37.2892 37.3661C37.5877 35.8658 38.3243 34.4876 39.406 33.406C40.4876 32.3243 41.8658 31.5877 43.3661 31.2892C44.8664 30.9908 46.4215 31.144 47.8348 31.7294C49.2481 32.3148 50.456 33.3061 51.3059 34.578C52.1557 35.8499 52.6093 37.3453 52.6093 38.875C52.6081 40.9259 51.7929 42.8924 50.3426 44.3426C48.8924 45.7929 46.9259 46.6081 44.875 46.6093Z" fill="#FAFAFA"/>
</svg>
