<svg width="50" height="50" viewBox="0 0 50 50" fill="none" xmlns="http://www.w3.org/2000/svg">
<circle cx="25" cy="25" r="25" fill="#00533E"/>
<path d="M28.5566 23.3111C28.9863 22.6056 29.3788 21.9638 29.766 21.322C30.0525 20.8552 30.323 20.3778 30.6253 19.9163C31.0231 19.301 31.6756 19.2851 32.1211 19.858C32.1795 19.9322 32.2325 20.0118 32.2803 20.0967C34.0943 23.0671 35.9084 26.0375 37.7225 29.0132C38.3855 30.1006 38.2901 31.2994 37.505 32.1693C36.9215 32.8217 36.163 33.0445 35.309 33.0445C30.8799 33.0445 26.4508 33.0445 22.0217 33.0445C19.237 33.0445 16.4575 33.0445 13.6727 33.0445C12.6596 33.0445 11.8056 32.7368 11.2964 31.8033C10.8031 30.8909 10.9622 30.0369 11.5033 29.1829C14.479 24.4621 17.4441 19.7307 20.3986 14.9992C21.2314 13.6731 22.462 13.6625 23.3001 14.9939C24.9391 17.5771 26.5675 20.1762 28.1906 22.7753C28.2914 22.9292 28.3975 23.0777 28.5566 23.3111Z" fill="#E2E7D5"/>
</svg>
