<svg width="50" height="50" viewBox="0 0 50 50" fill="none" xmlns="http://www.w3.org/2000/svg">
<circle cx="25" cy="25" r="25" fill="#00533E"/>
<path d="M25.4428 31.2933C25.2854 31.2647 25.1366 31.2003 25.008 31.1051C24.8794 31.0099 24.7744 30.8865 24.7012 30.7443C24.6106 30.5697 24.5701 30.3735 24.5841 30.1773C24.5982 29.9812 24.6663 29.7928 24.7809 29.6329L26.7113 26.983L24.3713 23.7663C24.3588 23.7493 24.3512 23.7291 24.3495 23.7079C24.3478 23.6868 24.352 23.6657 24.3617 23.6468C24.3713 23.628 24.3861 23.6122 24.4042 23.6012C24.4223 23.5903 24.4431 23.5846 24.4643 23.5848H25.2258C25.3175 23.5817 25.4065 23.5538 25.4835 23.504C25.5605 23.4542 25.6226 23.3845 25.663 23.3022C25.7035 23.2199 25.7208 23.1282 25.7132 23.0368C25.7056 22.9455 25.6734 22.8579 25.6199 22.7834L22.3634 18.0038C22.3518 17.9865 22.345 17.9664 22.344 17.9456C22.3429 17.9247 22.3475 17.904 22.3573 17.8856C22.367 17.8672 22.3816 17.8518 22.3995 17.841C22.4173 17.8303 22.4377 17.8245 22.4586 17.8245H23.1183C23.1892 17.8232 23.2583 17.8016 23.3174 17.7623C23.3765 17.723 23.4231 17.6676 23.4518 17.6027C23.4804 17.5377 23.4899 17.4659 23.479 17.3958C23.4682 17.3257 23.4375 17.2601 23.3906 17.2068L20.4307 13.191C20.3865 13.1317 20.329 13.0836 20.2629 13.0504C20.1968 13.0173 20.1239 13 20.0499 13C19.976 13 19.9031 13.0173 19.837 13.0504C19.7709 13.0836 19.7134 13.1317 19.6692 13.191L16.7093 17.2068C16.6626 17.2601 16.6321 17.3257 16.6213 17.3958C16.6106 17.4659 16.6201 17.5375 16.6487 17.6024C16.6773 17.6673 16.7238 17.7226 16.7828 17.762C16.8418 17.8013 16.9107 17.823 16.9816 17.8245H17.6413C17.6622 17.8245 17.6826 17.8303 17.7004 17.841C17.7183 17.8518 17.7329 17.8672 17.7426 17.8856C17.7524 17.904 17.757 17.9247 17.7559 17.9456C17.7549 17.9664 17.7481 17.9865 17.7365 18.0038L14.48 22.7834C14.4265 22.858 14.3943 22.9458 14.3868 23.0373C14.3794 23.1289 14.3969 23.2207 14.4376 23.303C14.4783 23.3853 14.5407 23.4551 14.6179 23.5047C14.6952 23.5543 14.7845 23.582 14.8763 23.5848H15.6378C15.6588 23.585 15.6794 23.5909 15.6973 23.602C15.7152 23.613 15.7297 23.6287 15.7392 23.6474C15.7488 23.6661 15.7531 23.6871 15.7516 23.7081C15.7501 23.729 15.7429 23.7492 15.7308 23.7663L12.2551 28.5437C12.2016 28.6182 12.1694 28.7058 12.1618 28.7972C12.1542 28.8885 12.1715 28.9802 12.212 29.0625C12.2524 29.1448 12.3145 29.2145 12.3915 29.2643C12.4685 29.3141 12.5576 29.342 12.6492 29.3451H13.672C13.6919 29.3454 13.7113 29.3507 13.7285 29.3607C13.7457 29.3707 13.76 29.385 13.77 29.4022C13.7801 29.4193 13.7855 29.4388 13.7858 29.4587C13.786 29.4785 13.7812 29.4982 13.7716 29.5156L11.0951 34.3041C11.0416 34.3785 11.0093 34.4661 11.0017 34.5575C10.9941 34.6489 11.0115 34.7406 11.052 34.8228C11.0924 34.9051 11.1545 34.9749 11.2315 35.0246C11.3085 35.0744 11.3975 35.1023 11.4892 35.1054H18.4848V37.4386C18.4848 37.5123 18.4993 37.5853 18.5274 37.6534C18.5556 37.7215 18.597 37.7834 18.6491 37.8356C18.7012 37.8877 18.7631 37.929 18.8312 37.9573C18.8993 37.9855 18.9723 38 19.046 38H21.055C21.1287 38 21.2017 37.9855 21.2698 37.9573C21.3379 37.929 21.3998 37.8877 21.4519 37.8356C21.504 37.7834 21.5454 37.7215 21.5736 37.6534C21.6018 37.5853 21.6162 37.5123 21.6162 37.4386V35.1054H23.7581C23.6959 34.9479 23.672 34.7777 23.6886 34.6091C23.7051 34.4405 23.7616 34.2783 23.8533 34.1358L25.4428 31.2933Z" fill="#FAFAFA"/>
<path d="M38.2895 34.4842L36.2165 30.7774C36.2087 30.7639 36.2046 30.7485 36.2046 30.7329C36.2046 30.7173 36.2088 30.7019 36.2167 30.6884C36.2246 30.6749 36.2359 30.6638 36.2495 30.6561C36.2631 30.6484 36.2785 30.6444 36.2942 30.6446H37.0845C37.1553 30.642 37.2241 30.6204 37.2836 30.5819C37.3431 30.5434 37.3911 30.4896 37.4225 30.426C37.4539 30.3625 37.4676 30.2917 37.462 30.221C37.4564 30.1504 37.4319 30.0826 37.3909 30.0247L34.7 26.3277C34.6902 26.3145 34.6843 26.2988 34.6829 26.2824C34.6816 26.266 34.6848 26.2496 34.6922 26.2349C34.6997 26.2202 34.7111 26.2079 34.7251 26.1994C34.7391 26.1908 34.7553 26.1863 34.7717 26.1864H35.3617C35.4327 26.184 35.5017 26.1623 35.5613 26.1237C35.621 26.0852 35.6691 26.0312 35.7005 25.9675C35.7319 25.9038 35.7454 25.8328 35.7397 25.762C35.734 25.6912 35.7091 25.6233 35.6679 25.5655L33.1461 21.864C33.1369 21.8506 33.1316 21.835 33.1306 21.8189C33.1297 21.8027 33.1332 21.7866 33.1408 21.7723C33.1484 21.758 33.1597 21.746 33.1736 21.7377C33.1875 21.7294 33.2034 21.7251 33.2196 21.7252H33.7301C33.7852 21.7245 33.839 21.7079 33.8849 21.6776C33.9309 21.6472 33.9672 21.6043 33.9895 21.5539C34.0119 21.5036 34.0192 21.4478 34.0108 21.3934C34.0024 21.3389 33.9785 21.288 33.942 21.2468L31.6498 18.1377C31.6157 18.0915 31.5713 18.054 31.52 18.0281C31.4688 18.0022 31.4121 17.9888 31.3547 17.9888C31.2973 17.9888 31.2407 18.0022 31.1895 18.0281C31.1382 18.054 31.0937 18.0915 31.0596 18.1377L28.7675 21.2468C28.731 21.288 28.7071 21.3389 28.6986 21.3934C28.6902 21.4478 28.6976 21.5036 28.7199 21.5539C28.7422 21.6043 28.7785 21.6472 28.8245 21.6776C28.8705 21.7079 28.9242 21.7245 28.9793 21.7252H29.4898C29.506 21.7251 29.5219 21.7294 29.5358 21.7377C29.5497 21.746 29.5611 21.758 29.5687 21.7723C29.5762 21.7866 29.5798 21.8027 29.5788 21.8189C29.5779 21.835 29.5725 21.8506 29.5633 21.864L27.0416 25.5641C27.0001 25.622 26.9751 25.69 26.9692 25.7609C26.9633 25.8318 26.9768 25.903 27.0083 25.9668C27.0397 26.0307 27.0879 26.0848 27.1477 26.1234C27.2075 26.162 27.2766 26.1836 27.3477 26.186H27.9377C27.9542 26.1859 27.9703 26.1904 27.9844 26.1989C27.9984 26.2075 28.0098 26.2198 28.0172 26.2344C28.0247 26.2491 28.0279 26.2656 28.0265 26.2819C28.0251 26.2983 28.0192 26.314 28.0094 26.3272L25.3186 30.0243C25.2776 30.0821 25.253 30.1499 25.2475 30.2206C25.2419 30.2912 25.2555 30.3621 25.2869 30.4256C25.3183 30.4891 25.3663 30.543 25.4258 30.5814C25.4853 30.6199 25.5541 30.6416 25.625 30.6442H26.4153C26.4309 30.644 26.4463 30.6479 26.4599 30.6556C26.4735 30.6633 26.4848 30.6745 26.4927 30.688C26.5006 30.7015 26.5048 30.7168 26.5049 30.7325C26.5049 30.7481 26.5008 30.7634 26.493 30.777L24.42 34.4842C24.379 34.542 24.3544 34.6099 24.3489 34.6805C24.3433 34.7512 24.3569 34.822 24.3883 34.8855C24.4197 34.949 24.4677 35.0029 24.5272 35.0414C24.5867 35.0799 24.6556 35.1015 24.7264 35.1041H30.142V37.5251C30.142 37.6508 30.1919 37.7713 30.2808 37.8601C30.3696 37.949 30.4901 37.9989 30.6158 37.9989H32.0937C32.2193 37.9989 32.3398 37.949 32.4287 37.8601C32.5175 37.7713 32.5675 37.6508 32.5675 37.5251V35.1052H37.9831C38.0541 35.1028 38.1231 35.0811 38.1828 35.0426C38.2425 35.0041 38.2906 34.9501 38.322 34.8864C38.3534 34.8226 38.367 34.7516 38.3613 34.6808C38.3556 34.61 38.3307 34.5421 38.2895 34.4842Z" fill="#FAFAFA"/>
</svg>
