<svg width="206" height="8" viewBox="0 0 206 8" fill="none" xmlns="http://www.w3.org/2000/svg">
<path d="M1 3.5C0.723858 3.5 0.5 3.72386 0.5 4C0.5 4.27614 0.723858 4.5 1 4.5L1 3.5ZM205.354 4.35359C205.549 4.15833 205.549 3.84175 205.354 3.64649L202.172 0.464505C201.976 0.269243 201.66 0.269243 201.464 0.464505C201.269 0.659767 201.269 0.976349 201.464 1.17161L204.293 4.00004L201.464 6.82847C201.269 7.02373 201.269 7.34031 201.464 7.53557C201.66 7.73083 201.976 7.73083 202.172 7.53557L205.354 4.35359ZM1 4.5L205 4.50004L205 3.50004L1 3.5L1 4.5Z" fill="#E2E7D5"/>
</svg>
