<svg width="744" height="400" viewBox="0 0 744 400" fill="none" xmlns="http://www.w3.org/2000/svg">
<g clip-path="url(#clip0_507_32)">
<mask id="mask0_507_32" style="mask-type:alpha" maskUnits="userSpaceOnUse" x="0" y="0" width="744" height="400">
<rect width="744" height="400" rx="24" fill="#E2E7D5"/>
</mask>
<g mask="url(#mask0_507_32)">
<path d="M820.41 116.46C820.41 116.46 839.366 127.549 858.438 138.706C868.965 147.197 894.388 156.887 892.129 160.748C873.695 227.691 912.882 302.433 876.457 338.125C805.865 405.647 681.376 317.276 598.043 273.708C623.542 221.262 706.219 274.809 755.173 261.992C816.364 245.971 788.76 178.004 809.1 139.691C815.487 124.876 820.41 116.46 820.41 116.46Z" stroke="#00533E" stroke-width="0.8" stroke-miterlimit="10"/>
<path d="M522.787 403.327C576.695 354.493 512.375 296.138 504.074 239.464C502.182 207.266 540.499 203.773 558.2 208.946C715.253 259.367 832.311 369.3 932.613 490.158C956.723 519.808 945.721 565.19 910.608 580.921C815.25 628.774 732.13 673.422 662.247 753.018C641.303 766.675 616.262 774.049 591.312 772.408C525.314 770.072 465.801 730.075 429.162 677.551C419.51 661.541 410.454 645.309 401.956 628.834C393.457 612.359 385.493 595.678 378.926 579.089C342.121 507.45 423.639 456.683 477.517 432.082C492.744 423.061 508.174 413.692 522.787 403.327Z" stroke="#00533E" stroke-width="0.8" stroke-miterlimit="10"/>
</g>
</g>
<defs>
<clipPath id="clip0_507_32">
<rect width="744" height="400" fill="white"/>
</clipPath>
</defs>
</svg>
