<svg width="253" height="96" viewBox="0 0 253 96" fill="none" xmlns="http://www.w3.org/2000/svg">
<path d="M0 84.0702V83.1065C0.64584 82.929 1.32967 82.6627 2.06416 82.3203C2.79864 81.9653 3.48247 81.5468 4.12831 81.0396C4.77415 80.5451 5.30602 79.9999 5.71125 79.4039C6.11649 78.8206 6.33177 78.1992 6.33177 77.5526V25.8297C6.33177 24.4729 5.85055 23.3317 4.87546 22.3934C3.91303 21.455 2.77331 20.7449 1.48163 20.2758V19.3628L15.6521 19.4008L35.7998 67.6873L55.251 19.4008H69.3328V20.3645C68.0411 20.7703 66.9141 21.455 65.9517 22.3934C64.9892 23.3317 64.4954 24.4856 64.4954 25.8297V77.5526C64.4954 78.9093 64.9766 80.0506 65.9517 80.9889C66.9141 81.9273 68.0538 82.6374 69.3328 83.1065V84.0702H50.8567V83.1065C52.1484 82.7008 53.2881 81.9907 54.2886 80.9889C55.289 79.9872 55.7828 78.8459 55.7828 77.5526V31.4598L33.6977 86.1878L11.0933 32.4362V77.5526C11.0933 78.1992 11.3085 78.8206 11.7518 79.4039C12.195 79.9872 12.7395 80.5197 13.3854 80.9889C14.0312 81.4581 14.7403 81.8892 15.5002 82.2696C16.26 82.65 16.9311 82.929 17.5263 83.1065V84.0702H0Z" fill="#E2E7D5"/>
<path d="M75.7656 84.0701V83.1064C77.0573 82.6373 78.1844 81.9272 79.1468 80.9888C80.1092 80.0505 80.6031 78.9093 80.6031 77.5525V25.8297C80.6031 24.4729 80.1219 23.3317 79.1468 22.3933C78.1844 21.455 77.0446 20.7449 75.7656 20.2757V19.312H117.745L118.454 30.8511H117.403C117.226 30.2044 116.922 29.4816 116.479 28.6954C116.036 27.8966 115.529 27.1484 114.934 26.451C114.351 25.7409 113.731 25.1576 113.085 24.6884C112.439 24.2193 111.793 23.9784 111.148 23.9784H89.4042V46.5366H105.69C106.335 46.5366 106.931 46.321 107.488 45.8772C108.045 45.4334 108.577 44.9008 109.071 44.2414C109.565 43.5947 109.995 42.91 110.35 42.1745C110.704 41.4391 110.97 40.7797 111.148 40.1964H112.199V57.5557H111.148C110.97 56.9724 110.704 56.313 110.35 55.5776C109.995 54.8421 109.577 54.1574 109.071 53.5107C108.577 52.864 108.045 52.3188 107.488 51.8749C106.931 51.4311 106.323 51.2156 105.69 51.2156H89.4042V79.4165H111.148C111.793 79.4165 112.528 79.1248 113.351 78.5415C114.174 77.9583 114.959 77.2482 115.732 76.4239C116.492 75.5997 117.188 74.7375 117.796 73.8245C118.416 72.9115 118.809 72.1634 118.986 71.5801H120.126L117.657 84.0955H75.7656V84.0701Z" fill="#E2E7D5"/>
<path d="M128.483 83.1067C129.775 82.6375 130.902 81.9274 131.877 80.9891C132.84 80.0507 133.334 78.9095 133.334 77.5527V25.8299C133.334 24.4731 132.852 23.3319 131.877 22.3936C130.915 21.4552 129.775 20.7451 128.483 20.276V19.3123H146.959V20.276C145.668 20.7451 144.541 21.4552 143.566 22.3936C142.603 23.3319 142.109 24.4858 142.109 25.8299V79.404H163.853C164.498 79.404 165.233 79.1124 166.056 78.5291C166.879 77.9458 167.664 77.2357 168.437 76.4115C169.197 75.5873 169.893 74.725 170.501 73.812C171.121 72.8991 171.514 72.1509 171.691 71.5676H172.831L170.362 84.0831H128.471V83.1194L128.483 83.1067Z" fill="#E2E7D5"/>
<path d="M176.694 83.1067C177.986 82.6375 179.113 81.9274 180.088 80.9891C181.051 80.0507 181.544 78.9095 181.544 77.5527V25.8299C181.544 24.4731 181.063 23.3319 180.088 22.3936C179.113 21.4552 177.986 20.7451 176.694 20.276V19.3123H195.17V20.276C193.879 20.7451 192.752 21.4552 191.777 22.3936C190.814 23.3319 190.32 24.4858 190.32 25.8299V77.5527C190.32 78.9095 190.802 80.0507 191.777 80.9891C192.739 81.9274 193.879 82.6375 195.17 83.1067V84.0704H176.694V83.1067Z" fill="#E2E7D5"/>
<path d="M228.614 17.1057C230.134 17.1057 231.527 17.1944 232.793 17.372C234.06 17.5495 235.288 17.7777 236.491 18.0821C237.694 18.3737 238.897 18.7288 240.1 19.1345C241.303 19.5403 242.582 19.9841 243.924 20.4533L244.545 19.2233H245.596V34.6425H244.456L244.368 34.2875C243.139 30.2932 241.303 27.1611 238.872 24.904C236.44 22.647 232.958 21.5184 228.437 21.5184C227.031 21.5184 225.676 21.734 224.385 22.1778C223.093 22.6216 221.979 23.2303 221.041 24.0291C220.104 24.8153 219.357 25.7917 218.8 26.9329C218.243 28.0741 217.964 29.3548 217.964 30.7623C217.964 32.7024 218.458 34.4396 219.458 35.9612C220.459 37.4829 221.776 38.8904 223.422 40.1457C225.068 41.4138 226.93 42.6311 229.007 43.7977C231.084 44.9769 233.211 46.1815 235.389 47.4115C237.555 48.6415 239.682 49.9856 241.772 51.4185C243.848 52.864 245.723 54.4871 247.356 56.3131C249.002 58.139 250.319 60.2186 251.32 62.5645C252.32 64.9103 252.814 67.6492 252.814 70.7559C252.814 74.7502 251.991 78.2753 250.345 81.3312C248.699 84.3872 246.558 86.9232 243.924 88.9521C241.29 90.9809 238.302 92.5026 234.997 93.5297C231.679 94.5568 228.323 95.0767 224.916 95.0767C219.99 95.0133 215.811 94.0369 212.38 92.1222C208.948 90.2074 206.276 87.8616 204.376 85.0719C202.464 82.2823 201.35 79.277 201.033 76.0436C200.704 72.8101 201.21 69.8176 202.527 67.0533C203.844 64.289 206.022 61.9812 209.036 60.1298C212.063 58.2785 215.913 57.3529 220.611 57.3529C222.422 57.3529 224.271 57.5684 226.157 58.0122C228.044 58.456 229.754 59.1408 231.312 60.0791C232.869 61.0175 234.123 62.2348 235.098 63.731C236.06 65.2273 236.554 67.0406 236.554 69.1455C236.554 70.1472 236.314 71.111 235.845 72.0493C235.377 72.9876 234.743 73.8499 233.958 74.6487C233.16 75.4349 232.261 76.1323 231.236 76.7156C230.21 77.2989 229.171 77.7427 228.108 78.0344L227.323 77.2482C228.374 75.7266 228.981 74.0274 229.121 72.1761C229.26 70.3248 229.032 68.5876 228.412 66.9772C227.791 65.3668 226.803 64.01 225.423 62.9195C224.043 61.829 222.295 61.2584 220.18 61.2077C217.838 61.2077 215.887 61.9178 214.33 63.3253C212.772 64.7328 211.658 66.4953 210.987 68.6129C210.315 70.7305 210.075 73.0383 210.277 75.5364C210.48 78.0344 211.176 80.3422 212.342 82.4598C213.519 84.5774 215.203 86.34 217.407 87.7475C219.61 89.155 222.32 89.8651 225.55 89.8651C227.778 89.8651 229.982 89.472 232.147 88.6731C234.313 87.8869 236.263 86.7077 237.998 85.148C239.733 83.5883 241.138 81.6863 242.227 79.4165C243.317 77.1594 243.861 74.56 243.861 71.6182C243.861 68.2072 242.987 65.3541 241.227 63.0209C239.467 60.7005 237.263 58.6462 234.629 56.8583C231.995 55.0704 229.146 53.422 226.094 51.9257C223.042 50.4294 220.193 48.7937 217.559 47.0311C214.912 45.2686 212.721 43.2397 210.961 40.9446C209.201 38.6495 208.315 35.8344 208.315 32.4868C208.315 29.7226 208.935 27.3767 210.163 25.4366C211.392 23.4965 212.987 21.9115 214.963 20.6815C216.926 19.4515 219.117 18.5386 221.523 17.9553C223.929 17.372 226.309 17.0803 228.652 17.0803L228.614 17.1057Z" fill="#E2E7D5"/>
<path d="M87.7324 16.0405H93.1904C95.2925 14.6838 97.4454 13.365 99.6108 12.0716C101.789 10.7909 103.815 9.28196 105.689 7.5828C106.398 6.93611 107.044 6.22601 107.627 5.4652C108.209 4.70438 108.501 3.96892 108.501 3.25883C108.501 2.37121 108.184 1.61039 107.538 0.9637C106.892 0.329686 106.095 0 105.157 0C104.334 0 103.537 0.177524 102.739 0.532571C101.954 0.887619 101.206 1.34411 100.497 1.90204C99.7881 2.45997 99.1423 3.04326 98.5597 3.6646C97.9772 4.27325 97.4454 4.84386 96.9768 5.37643L87.7324 16.0405Z" fill="#E2E7D5"/>
</svg>
