<svg width="14" height="25" viewBox="0 0 14 25" fill="none" xmlns="http://www.w3.org/2000/svg">
<path d="M3.78497 14.1114C3.6911 14.1114 1.62602 14.1114 0.687345 14.1114C0.186719 14.1114 0.0302734 13.9237 0.0302734 13.4543C0.0302734 12.2028 0.0302734 10.9199 0.0302734 9.66833C0.0302734 9.16771 0.218008 9.01126 0.687345 9.01126H3.78497C3.78497 8.9174 3.78497 7.10263 3.78497 6.25782C3.78497 5.00626 4.00399 3.81727 4.62977 2.72215C5.28684 1.59574 6.22552 0.844806 7.4145 0.406758C8.19673 0.125156 8.97896 0 9.82376 0H12.8901C13.3281 0 13.5159 0.187735 13.5159 0.625782V4.19274C13.5159 4.63079 13.3281 4.81852 12.8901 4.81852C12.0453 4.81852 11.2005 4.81852 10.3557 4.84981C9.51087 4.84981 9.07283 5.25657 9.07283 6.13267C9.04154 7.07134 9.07283 7.97872 9.07283 8.94869H12.7024C13.203 8.94869 13.3907 9.13642 13.3907 9.63705V13.423C13.3907 13.9237 13.2343 14.0801 12.7024 14.0801C11.576 14.0801 9.16669 14.0801 9.07283 14.0801V24.2803C9.07283 24.8123 8.91638 25 8.35318 25C7.03903 25 5.75618 25 4.44204 25C3.9727 25 3.78497 24.8123 3.78497 24.3429C3.78497 21.0576 3.78497 14.2053 3.78497 14.1114Z" fill="#00533E"/>
</svg>
