<svg width="161" height="70" viewBox="0 0 161 70" fill="none" xmlns="http://www.w3.org/2000/svg">
<path d="M82.2925 9.71923H81.3467V3.18164H85.3865V3.97675H82.2925V9.71923Z" fill="#00533E"/>
<path d="M93.29 6.44939C93.29 6.93931 93.2019 7.3971 93.0335 7.81474C92.8652 8.23237 92.6248 8.59379 92.3121 8.90702C91.9995 9.22024 91.6388 9.45315 91.214 9.62985C90.7892 9.79851 90.3163 9.88685 89.8033 9.88685C89.2903 9.88685 88.8334 9.79851 88.4086 9.62985C87.9837 9.46119 87.615 9.22024 87.3104 8.90702C87.0058 8.59379 86.7654 8.24041 86.589 7.81474C86.4127 7.38907 86.3325 6.93931 86.3325 6.44939C86.3325 5.95948 86.4207 5.50168 86.589 5.07602C86.7573 4.65035 86.9978 4.29697 87.3104 3.98374C87.623 3.67052 87.9837 3.4376 88.4086 3.26091C88.8334 3.09225 89.2983 3.00391 89.8033 3.00391C90.3082 3.00391 90.7812 3.09225 91.214 3.26091C91.6388 3.42957 92.0076 3.67052 92.3121 3.98374C92.6167 4.29697 92.8572 4.65035 93.0335 5.07602C93.2099 5.50168 93.29 5.95145 93.29 6.44939ZM92.2881 6.44939C92.2881 6.08798 92.232 5.74263 92.1118 5.42137C91.9915 5.10011 91.8312 4.81901 91.6148 4.5861C91.3984 4.34516 91.1419 4.16043 90.8373 4.0239C90.5327 3.88736 90.188 3.81508 89.8033 3.81508C89.4185 3.81508 89.0819 3.88736 88.7773 4.0239C88.4727 4.16043 88.2162 4.35319 88.0078 4.5861C87.7914 4.82704 87.631 5.10011 87.5108 5.42137C87.3906 5.74263 87.3345 6.08798 87.3345 6.44939C87.3345 6.81081 87.3906 7.15616 87.5108 7.47742C87.623 7.79868 87.7914 8.07978 88.0078 8.31269C88.2242 8.55363 88.4807 8.73836 88.7773 8.87489C89.0738 9.01143 89.4185 9.07568 89.8033 9.07568C90.188 9.07568 90.5247 9.01143 90.8373 8.87489C91.1499 8.73836 91.4064 8.55363 91.6148 8.31269C91.8312 8.07175 91.9915 7.79868 92.1118 7.47742C92.224 7.15616 92.2881 6.81081 92.2881 6.44939Z" fill="#00533E"/>
<path d="M94.2119 3.18164H99.9431V3.97675H97.4743V9.71923H96.5284V3.97675H94.2119V3.18164Z" fill="#00533E"/>
<path d="M107.278 6.25664V6.46546C107.278 6.53774 107.278 6.61806 107.262 6.7064H101.851C101.859 7.03569 101.923 7.34088 102.044 7.63002C102.164 7.91915 102.332 8.16812 102.549 8.38497C102.765 8.60182 103.013 8.77048 103.302 8.89095C103.591 9.01142 103.903 9.07568 104.24 9.07568C104.729 9.07568 105.162 8.96324 105.514 8.73032C105.875 8.50544 106.147 8.24041 106.332 7.94324L107.045 8.50544C106.652 8.99536 106.228 9.35678 105.755 9.56559C105.282 9.78244 104.777 9.88685 104.24 9.88685C103.759 9.88685 103.31 9.79851 102.893 9.62985C102.476 9.46119 102.124 9.22024 101.827 8.90702C101.531 8.59379 101.298 8.24041 101.122 7.81474C100.945 7.38907 100.865 6.93931 100.865 6.44939C100.865 5.95948 100.945 5.50168 101.114 5.07602C101.282 4.65035 101.514 4.29697 101.811 3.98374C102.108 3.67855 102.46 3.4376 102.853 3.26091C103.254 3.09225 103.687 3.00391 104.152 3.00391C104.665 3.00391 105.113 3.09225 105.506 3.26091C105.899 3.42957 106.22 3.66248 106.484 3.95965C106.741 4.25681 106.941 4.59413 107.077 4.98767C107.214 5.38121 107.278 5.79885 107.278 6.24861V6.25664ZM106.316 5.95145C106.292 5.33302 106.091 4.82704 105.723 4.42547C105.354 4.0239 104.833 3.81508 104.152 3.81508C103.839 3.81508 103.542 3.8713 103.27 3.99177C102.997 4.10421 102.765 4.26484 102.557 4.46563C102.348 4.66641 102.188 4.89129 102.068 5.1483C101.947 5.40531 101.875 5.67034 101.859 5.95145H106.308H106.316Z" fill="#00533E"/>
<path d="M113.747 9.71923L111.583 4.33014L109.322 9.71923H108.336L111.19 3.18164H112.024L114.701 9.71923H113.739H113.747Z" fill="#00533E"/>
<path d="M117.13 3.18164V5.44651H118.749C119.23 5.44651 119.647 5.50273 119.983 5.60714C120.32 5.71154 120.6 5.86414 120.809 6.0569C121.017 6.24965 121.169 6.47453 121.258 6.73154C121.354 6.99658 121.394 7.26964 121.394 7.56681C121.394 7.86397 121.338 8.14507 121.226 8.40208C121.113 8.66712 120.945 8.892 120.729 9.08475C120.512 9.2775 120.24 9.4301 119.919 9.54254C119.598 9.65498 119.222 9.7112 118.797 9.7112H116.176V3.18164H117.122H117.13ZM117.13 8.96428H118.58C118.837 8.96428 119.085 8.94018 119.302 8.90003C119.526 8.85987 119.719 8.77956 119.879 8.67515C120.039 8.57074 120.168 8.42617 120.256 8.24948C120.344 8.07279 120.384 7.84791 120.384 7.57484C120.384 7.30177 120.336 7.07689 120.248 6.9002C120.152 6.72351 120.023 6.57894 119.855 6.48256C119.687 6.38619 119.486 6.30587 119.262 6.26571C119.037 6.22556 118.789 6.20146 118.532 6.20146H117.122V8.96428H117.13Z" fill="#00533E"/>
<path d="M129.082 8.69924H129.106L131.126 3.18164H132.16L128.913 11.4058C128.721 11.9118 128.472 12.3134 128.168 12.6106C127.863 12.9077 127.43 13.0603 126.861 13.0603C126.573 13.0603 126.292 13.0362 126.012 12.98L126.108 12.1126C126.332 12.1849 126.565 12.225 126.805 12.225C127.134 12.225 127.382 12.1287 127.575 11.9279C127.767 11.7271 127.927 11.438 128.064 11.0685L128.593 9.70317L125.803 3.18164H126.861L129.082 8.69924Z" fill="#00533E"/>
<path d="M141.555 9.71923L139.39 4.33014L137.13 9.71923H136.144L138.998 3.18164H139.831L142.508 9.71923H141.547H141.555Z" fill="#00533E"/>
<path d="M145.21 0.66661C145.21 0.859364 145.138 1.01999 145.002 1.1485C144.865 1.277 144.705 1.33322 144.545 1.33322C144.384 1.33322 144.224 1.26897 144.088 1.1485C143.952 1.01999 143.879 0.859364 143.879 0.66661C143.879 0.473855 143.952 0.313226 144.088 0.184723C144.224 0.0562201 144.384 0 144.545 0C144.705 0 144.865 0.0642515 145.002 0.184723C145.138 0.313226 145.21 0.473855 145.21 0.66661ZM145.018 9.71805H144.072V3.18045H145.018V9.71805Z" fill="#00533E"/>
<path d="M152.232 4.68226C152.071 4.43328 151.847 4.22447 151.542 4.06384C151.238 3.90321 150.909 3.82289 150.556 3.82289C150.172 3.82289 149.835 3.88715 149.522 4.02368C149.218 4.16022 148.953 4.34494 148.737 4.58588C148.52 4.82682 148.352 5.09989 148.232 5.42115C148.112 5.74241 148.055 6.08776 148.055 6.46524C148.055 6.84272 148.112 7.18004 148.232 7.50129C148.352 7.82255 148.512 8.09562 148.729 8.32853C148.945 8.56948 149.202 8.7542 149.506 8.89073C149.811 9.02727 150.156 9.09152 150.54 9.09152C150.957 9.09152 151.31 9.01121 151.598 8.85058C151.887 8.68995 152.127 8.48916 152.312 8.23216L153.025 8.76223C152.745 9.10758 152.408 9.38065 151.999 9.58947C151.598 9.79026 151.109 9.89466 150.54 9.89466C150.011 9.89466 149.53 9.80632 149.105 9.63766C148.681 9.469 148.312 9.22806 148.015 8.91483C147.711 8.60963 147.478 8.24822 147.31 7.82255C147.142 7.39689 147.062 6.94713 147.062 6.45721C147.062 5.96729 147.142 5.5095 147.31 5.08383C147.478 4.65816 147.711 4.30478 148.015 3.99155C148.32 3.68636 148.681 3.44542 149.105 3.26873C149.53 3.10006 150.011 3.01172 150.54 3.01172C150.973 3.01172 151.422 3.1081 151.871 3.30085C152.32 3.49361 152.688 3.77471 152.961 4.14415L152.224 4.67423L152.232 4.68226Z" fill="#00533E"/>
<path d="M155.663 0.66661C155.663 0.859364 155.591 1.01999 155.455 1.1485C155.318 1.277 155.158 1.33322 154.998 1.33322C154.838 1.33322 154.677 1.26897 154.541 1.1485C154.405 1.01999 154.333 0.859364 154.333 0.66661C154.333 0.473855 154.405 0.313226 154.541 0.184723C154.677 0.0562201 154.838 0 154.998 0C155.158 0 155.318 0.0642515 155.455 0.184723C155.591 0.313226 155.663 0.473855 155.663 0.66661ZM155.471 9.71805H154.525V3.18045H155.471V9.71805Z" fill="#00533E"/>
<path d="M0 63.0303V62.42C0.408795 62.3075 0.841636 62.1389 1.30654 61.922C1.77144 61.6971 2.20428 61.4321 2.61308 61.1108C3.02187 60.7976 3.35853 60.4523 3.61503 60.0748C3.87152 59.7053 4.00779 59.3118 4.00779 58.9022V26.1419C4.00779 25.2826 3.7032 24.5597 3.086 23.9654C2.47681 23.3711 1.75541 22.9213 0.937823 22.6242V22.0459L9.90726 22.07L22.66 52.6537L34.972 22.07H43.8853V22.6804C43.0677 22.9374 42.3543 23.3711 41.7451 23.9654C41.136 24.5597 40.8233 25.2906 40.8233 26.1419V58.9022C40.8233 59.7615 41.1279 60.4844 41.7451 61.0787C42.3543 61.673 43.0757 62.1228 43.8853 62.42V63.0303H32.1906V62.42C33.0082 62.1629 33.7296 61.7132 34.3628 61.0787C34.996 60.4442 35.3086 59.7214 35.3086 58.9022V29.7079L21.3295 64.3716L7.02165 30.3263V58.9022C7.02165 59.3118 7.15791 59.7053 7.43846 60.0748C7.719 60.4442 8.06367 60.7815 8.47247 61.0787C8.88126 61.3759 9.33013 61.6489 9.81107 61.8899C10.292 62.1308 10.7168 62.3075 11.0936 62.42V63.0303H0Z" fill="#00533E"/>
<path d="M47.96 63.0297V62.4193C48.7775 62.1222 49.4909 61.6724 50.1001 61.0781C50.7093 60.4837 51.0219 59.7609 51.0219 58.9015V26.1413C51.0219 25.2819 50.7173 24.5591 50.1001 23.9648C49.4909 23.3705 48.7695 22.9207 47.96 22.6235V22.0131H74.5316L74.9805 29.3217H74.3152C74.203 28.9121 74.0106 28.4544 73.73 27.9564C73.4495 27.4504 73.1289 26.9766 72.7521 26.5348C72.3834 26.0851 71.9907 25.7156 71.5819 25.4185C71.1731 25.1213 70.7643 24.9687 70.3555 24.9687H56.5927V39.2566H66.9008C67.3096 39.2566 67.6863 39.1201 68.039 38.839C68.3917 38.5579 68.7283 38.2206 69.0409 37.803C69.3535 37.3933 69.6261 36.9596 69.8505 36.4938C70.0749 36.028 70.2433 35.6104 70.3555 35.2409H71.0208V46.236H70.3555C70.2433 45.8665 70.0749 45.4489 69.8505 44.9831C69.6261 44.5172 69.3616 44.0835 69.0409 43.6739C68.7283 43.2643 68.3917 42.919 68.039 42.6379C67.6863 42.3568 67.3015 42.2202 66.9008 42.2202H56.5927V60.0822H70.3555C70.7643 60.0822 71.2292 59.8974 71.7502 59.528C72.2712 59.1586 72.7682 58.7088 73.2571 58.1867C73.7381 57.6647 74.1789 57.1186 74.5637 56.5403C74.9564 55.962 75.2049 55.4882 75.3171 55.1187H76.0385L74.4755 63.0458H47.96V63.0297ZM58.9894 19.941H55.5347L61.3861 13.1866C61.6826 12.8493 62.0193 12.4878 62.388 12.1023C62.7567 11.7088 63.1655 11.3393 63.6144 10.986C64.0633 10.6326 64.5362 10.3435 65.0331 10.1186C65.5381 9.89369 66.0431 9.78125 66.5641 9.78125C67.1573 9.78125 67.6623 9.99007 68.071 10.3916C68.4798 10.8012 68.6802 11.2831 68.6802 11.8453C68.6802 12.2951 68.4959 12.7609 68.1272 13.2428C67.7584 13.7247 67.3496 14.1744 66.9008 14.5841C65.7145 15.6603 64.432 16.616 63.0533 17.4272C61.6826 18.2464 60.32 19.0817 58.9894 19.941Z" fill="#00533E"/>
<path d="M81.3303 62.4189C82.1479 62.1217 82.8613 61.672 83.4785 61.0776C84.0876 60.4833 84.4003 59.7605 84.4003 58.9011V26.1409C84.4003 25.2815 84.0957 24.5587 83.4785 23.9643C82.8693 23.37 82.1479 22.9202 81.3303 22.6231V22.0127H93.025V22.6231C92.2074 22.9202 91.494 23.37 90.8768 23.9643C90.2677 24.5587 89.955 25.2895 89.955 26.1409V60.0737H103.718C104.127 60.0737 104.591 59.889 105.113 59.5195C105.634 59.1501 106.13 58.7003 106.619 58.1783C107.1 57.6562 107.541 57.1101 107.926 56.5318C108.319 55.9536 108.567 55.4797 108.679 55.1103H109.401L107.838 63.0373H81.3223V62.4269L81.3303 62.4189Z" fill="#00533E"/>
<path d="M111.848 62.4189C112.665 62.1217 113.379 61.6719 113.996 61.0776C114.605 60.4833 114.918 59.7605 114.918 58.9011V26.1409C114.918 25.2815 114.613 24.5587 113.996 23.9643C113.379 23.37 112.665 22.9202 111.848 22.6231V22.0127H123.542V22.6231C122.725 22.9202 122.011 23.37 121.394 23.9643C120.785 24.5587 120.472 25.2895 120.472 26.1409V58.9011C120.472 59.7605 120.777 60.4833 121.394 61.0776C122.003 61.6719 122.725 62.1217 123.542 62.4189V63.0293H111.848V62.4189Z" fill="#00533E"/>
<path d="M144.712 20.6145C145.674 20.6145 146.556 20.6707 147.357 20.7831C148.159 20.8956 148.936 21.0401 149.698 21.2329C150.459 21.4176 151.221 21.6425 151.982 21.8995C152.744 22.1565 153.553 22.4376 154.403 22.7348L154.796 21.9557H155.461V31.7219H154.739L154.683 31.4971C153.906 28.9672 152.744 26.9834 151.205 25.5538C149.666 24.1242 147.461 23.4094 144.6 23.4094C143.71 23.4094 142.852 23.5459 142.035 23.827C141.217 24.1081 140.512 24.4936 139.919 24.9996C139.326 25.4976 138.853 26.116 138.5 26.8388C138.147 27.5616 137.971 28.3728 137.971 29.2643C137.971 30.4931 138.284 31.5934 138.917 32.5572C139.55 33.521 140.384 34.4125 141.426 35.2076C142.468 36.0107 143.646 36.7817 144.96 37.5206C146.275 38.2676 147.622 39.0305 149 39.8096C150.371 40.5886 151.718 41.44 153.04 42.3475C154.355 43.2631 155.541 44.2911 156.575 45.4477C157.617 46.6042 158.451 47.9214 159.084 49.4072C159.717 50.893 160.03 52.6278 160.03 54.5955C160.03 57.1254 159.509 59.3581 158.467 61.2937C157.425 63.2293 156.07 64.8356 154.403 66.1206C152.736 67.4056 150.844 68.3694 148.752 69.02C146.652 69.6705 144.528 69.9998 142.371 69.9998C139.253 69.9596 136.608 69.3412 134.436 68.1285C132.264 66.9157 130.573 65.4299 129.37 63.663C128.16 61.8961 127.454 59.9926 127.254 57.9446C127.046 55.8966 127.366 54.0012 128.2 52.2503C129.034 50.4994 130.412 49.0377 132.32 47.8651C134.236 46.6925 136.672 46.1062 139.646 46.1062C140.792 46.1062 141.963 46.2428 143.157 46.5239C144.351 46.805 145.433 47.2387 146.419 47.833C147.405 48.4273 148.199 49.1984 148.816 50.1461C149.425 51.0938 149.738 52.2423 149.738 53.5755C149.738 54.21 149.585 54.8204 149.289 55.4147C148.992 56.009 148.592 56.5552 148.095 57.0611C147.59 57.5591 147.021 58.0008 146.371 58.3703C145.722 58.7397 145.065 59.0208 144.391 59.2055L143.894 58.7076C144.56 57.7438 144.944 56.6676 145.033 55.495C145.121 54.3224 144.977 53.2221 144.584 52.2021C144.191 51.1821 143.566 50.3228 142.692 49.6321C141.818 48.9413 140.712 48.5799 139.374 48.5478C137.891 48.5478 136.656 48.9976 135.67 49.8891C134.685 50.7805 133.979 51.8969 133.554 53.2382C133.129 54.5794 132.977 56.0411 133.105 57.6233C133.234 59.2055 133.675 60.6672 134.412 62.0085C135.157 63.3498 136.224 64.4661 137.618 65.3576C139.013 66.2491 140.728 66.6989 142.772 66.6989C144.183 66.6989 145.578 66.4499 146.948 65.9439C148.319 65.446 149.553 64.699 150.652 63.7112C151.75 62.7233 152.639 61.5186 153.329 60.081C154.018 58.6514 154.363 57.0049 154.363 55.1416C154.363 52.9812 153.81 51.1741 152.696 49.6963C151.581 48.2266 150.187 46.9255 148.519 45.793C146.852 44.6606 145.049 43.6165 143.117 42.6688C141.185 41.7211 139.382 40.685 137.714 39.5687C136.039 38.4523 134.652 37.1673 133.538 35.7136C132.424 34.2599 131.863 32.4769 131.863 30.3566C131.863 28.6057 132.256 27.1199 133.033 25.8911C133.811 24.6623 134.821 23.6584 136.071 22.8793C137.314 22.1003 138.7 21.522 140.223 21.1526C141.746 20.7831 143.253 20.5984 144.736 20.5984L144.712 20.6145Z" fill="#00533E"/>
</svg>
