<svg width="26" height="25" viewBox="0 0 26 25" fill="none" xmlns="http://www.w3.org/2000/svg">
<path d="M18.7803 0H6.28027C2.84308 0 0.0302734 2.81158 0.0302734 6.25V18.75C0.0302734 22.1872 2.84308 25 6.28027 25H18.7803C22.2175 25 25.0303 22.1872 25.0303 18.75V6.25C25.0303 2.81158 22.2175 0 18.7803 0ZM12.5303 17.7081C9.65338 17.7081 7.32184 15.3756 7.32184 12.5C7.32184 9.62311 9.65338 7.29156 12.5303 7.29156C15.4059 7.29156 17.7387 9.62311 17.7387 12.5C17.7387 15.3756 15.4059 17.7081 12.5303 17.7081ZM19.3012 7.29156C18.4374 7.29156 17.7387 6.59186 17.7387 5.72906C17.7387 4.86627 18.4374 4.16656 19.3012 4.16656C20.165 4.16656 20.8637 4.86627 20.8637 5.72906C20.8637 6.59186 20.165 7.29156 19.3012 7.29156Z" fill="#00533E"/>
</svg>
