<svg width="175" height="31" viewBox="0 0 175 31" fill="none" xmlns="http://www.w3.org/2000/svg">
<path d="M174.992 29.28H110.909V10.6473L103.811 0H167.894L174.992 10.6473V29.28Z" fill="#FAFAFA"/>
<path d="M120.203 16.0601H120.98V22.271H120.203V21.5168C119.826 22.0935 119.272 22.4041 118.517 22.4041C117.896 22.4041 117.364 22.1822 116.92 21.7386C116.477 21.295 116.255 20.7182 116.255 20.075C116.255 19.4317 116.477 18.8772 116.92 18.4335C117.364 17.9899 117.896 17.7459 118.517 17.7459C119.249 17.7459 119.804 18.0342 120.203 18.6332V16.0601ZM119.737 21.2062C120.048 20.8957 120.181 20.5186 120.181 20.075C120.181 19.6313 120.026 19.2542 119.737 18.9437C119.427 18.6331 119.072 18.4779 118.606 18.4779C118.163 18.4779 117.785 18.6331 117.497 18.9437C117.187 19.2542 117.053 19.6091 117.053 20.075C117.053 20.5408 117.209 20.8957 117.497 21.2062C117.808 21.5168 118.163 21.6499 118.606 21.6499C119.072 21.6499 119.449 21.4946 119.737 21.2062Z" fill="#151515"/>
<path d="M122.687 20.4074C122.842 21.2059 123.441 21.6495 124.284 21.6495C124.861 21.6495 125.305 21.4277 125.571 21.0063L126.236 21.3834C125.793 22.0488 125.149 22.3815 124.284 22.3815C123.574 22.3815 122.998 22.1597 122.554 21.7161C122.11 21.2724 121.889 20.7179 121.889 20.0303C121.889 19.3648 122.11 18.8103 122.532 18.3666C122.976 17.923 123.53 17.7012 124.218 17.7012C124.861 17.7012 125.393 17.923 125.815 18.3888C126.236 18.8324 126.436 19.387 126.436 20.0303C126.436 20.1412 126.436 20.2521 126.414 20.3852H122.687V20.4074ZM122.687 19.7419H125.66C125.526 18.899 124.95 18.4554 124.24 18.4554C123.397 18.4554 122.82 18.9655 122.687 19.7419Z" fill="#151515"/>
<path d="M130.229 17.8345H131.072L129.297 22.2708H128.388L126.613 17.8345H127.456L128.854 21.4501L130.229 17.8345Z" fill="#151515"/>
<path d="M132.092 20.4074C132.248 21.2059 132.847 21.6495 133.69 21.6495C134.266 21.6495 134.71 21.4277 134.976 21.0063L135.642 21.3834C135.198 22.0488 134.555 22.3815 133.69 22.3815C132.98 22.3815 132.403 22.1597 131.959 21.7161C131.516 21.2724 131.294 20.7179 131.294 20.0303C131.294 19.3648 131.516 18.8103 131.937 18.3666C132.381 17.923 132.935 17.7012 133.623 17.7012C134.266 17.7012 134.799 17.923 135.22 18.3888C135.642 18.8324 135.841 19.387 135.841 20.0303C135.841 20.1412 135.841 20.2521 135.819 20.3852H132.092V20.4074ZM132.092 19.7419H135.065C134.932 18.899 134.355 18.4554 133.645 18.4554C132.802 18.4554 132.226 18.9655 132.092 19.7419Z" fill="#151515"/>
<path d="M136.729 22.2705V15.7935H137.505V22.2705H136.729Z" fill="#151515"/>
<path d="M140.766 22.3818C140.122 22.3818 139.568 22.16 139.102 21.7164C138.658 21.2727 138.437 20.7182 138.437 20.0527C138.437 19.3873 138.658 18.8549 139.102 18.3891C139.546 17.9455 140.122 17.7236 140.766 17.7236C141.409 17.7236 141.963 17.9455 142.429 18.3891C142.873 18.8327 143.117 19.3873 143.117 20.0527C143.117 20.7182 142.895 21.2505 142.429 21.7164C141.963 22.16 141.409 22.3818 140.766 22.3818ZM141.875 21.184C142.185 20.8735 142.318 20.5185 142.318 20.0527C142.318 19.5869 142.163 19.232 141.875 18.9215C141.586 18.6109 141.209 18.4778 140.766 18.4778C140.322 18.4778 139.967 18.6331 139.657 18.9215C139.346 19.232 139.213 19.5869 139.213 20.0527C139.213 20.5185 139.368 20.8735 139.657 21.184C139.967 21.4945 140.322 21.6276 140.766 21.6276C141.209 21.6498 141.586 21.4945 141.875 21.184Z" fill="#151515"/>
<path d="M148.063 18.4112C148.507 18.8548 148.729 19.4094 148.729 20.0527C148.729 20.6959 148.507 21.2505 148.063 21.7163C147.62 22.1599 147.087 22.3817 146.466 22.3817C145.734 22.3817 145.18 22.0934 144.78 21.4945V24.0232H144.004V17.8123H144.78V18.5665C145.157 17.9897 145.712 17.6792 146.466 17.6792C147.087 17.7236 147.62 17.9676 148.063 18.4112ZM147.486 21.2061C147.797 20.8956 147.93 20.5185 147.93 20.0748C147.93 19.6312 147.775 19.2541 147.486 18.9436C147.176 18.633 146.821 18.4777 146.377 18.4777C145.934 18.4777 145.557 18.633 145.246 18.9436C144.936 19.2541 144.802 19.609 144.802 20.0748C144.802 20.5407 144.958 20.8956 145.246 21.2061C145.557 21.5167 145.912 21.6497 146.377 21.6497C146.821 21.6497 147.176 21.4945 147.486 21.2061Z" fill="#151515"/>
<path d="M156.094 19.5204V22.2709H155.317V19.5425C155.317 18.8549 154.94 18.4556 154.341 18.4556C153.676 18.4556 153.254 18.8993 153.254 19.8087V22.2709H152.478V19.5425C152.478 18.8549 152.123 18.4556 151.546 18.4556C150.903 18.4556 150.415 18.8993 150.415 19.8087V22.2709H149.639V17.8345H150.415V18.4335C150.726 17.9676 151.169 17.7236 151.746 17.7236C152.345 17.7236 152.766 17.9676 153.055 18.4778C153.365 17.9676 153.831 17.7236 154.452 17.7236C155.428 17.7236 156.094 18.4113 156.094 19.5204Z" fill="#151515"/>
<path d="M157.713 20.4074C157.868 21.2059 158.467 21.6495 159.31 21.6495C159.886 21.6495 160.33 21.4277 160.596 21.0063L161.262 21.3834C160.818 22.0488 160.175 22.3815 159.31 22.3815C158.6 22.3815 158.023 22.1597 157.58 21.7161C157.136 21.2724 156.914 20.7179 156.914 20.0303C156.914 19.3648 157.136 18.8103 157.557 18.3666C158.001 17.923 158.556 17.7012 159.243 17.7012C159.886 17.7012 160.419 17.923 160.84 18.3888C161.262 18.8324 161.461 19.387 161.461 20.0303C161.461 20.1412 161.461 20.2521 161.439 20.3852H157.713V20.4074ZM157.713 19.7419H160.685C160.552 18.899 159.975 18.4554 159.265 18.4554C158.422 18.4554 157.846 18.9655 157.713 19.7419Z" fill="#151515"/>
<path d="M166.275 19.5645V22.2929H165.498V19.6089C165.498 18.8991 165.077 18.4776 164.389 18.4776C163.613 18.4776 163.103 18.9434 163.103 19.9416V22.2929H162.326V17.8565H163.103V18.4998C163.413 17.9896 163.901 17.7456 164.544 17.7456C165.587 17.7234 166.275 18.4333 166.275 19.5645Z" fill="#151515"/>
<path d="M169.757 18.5882H168.582V20.9838C168.582 21.6714 168.981 21.6049 169.757 21.5827V22.2703C168.404 22.4478 167.805 22.0929 167.805 20.9838V18.5882H166.918V17.834H167.805V16.8136L168.582 16.5918V17.834H169.757V18.5882Z" fill="#151515"/>
<path d="M91.8327 30.389C85.2225 30.389 79.8545 25.021 79.8545 18.4108C79.8545 11.8006 85.2225 6.43262 91.8327 6.43262C98.4428 6.43262 103.811 11.8006 103.811 18.4108C103.811 25.021 98.4428 30.389 91.8327 30.389ZM91.8327 9.98171C87.1745 9.98171 83.4036 13.7526 83.4036 18.4108C83.4036 23.069 87.1745 26.8399 91.8327 26.8399C96.4909 26.8399 100.262 23.069 100.262 18.4108C100.262 13.7526 96.4909 9.98171 91.8327 9.98171Z" fill="#FAFAFA"/>
<path d="M77.1928 29.2804H73.6437V10.6477H71.4255L66.6121 27.5281C66.3237 28.5706 65.3699 29.2804 64.283 29.2804C63.3735 29.2804 62.5528 28.7703 62.1314 27.9717L55.011 14.3964V29.2804H51.4619V9.42772C51.4619 8.14118 52.5045 7.09863 53.791 7.09863C54.6561 7.09863 55.4546 7.58663 55.8539 8.34082L63.9725 23.8459L68.7637 7.09863H77.1928V29.2804Z" fill="#FAFAFA"/>
<path d="M18.3887 29.2804C17.3684 29.2804 16.4145 28.7481 15.9044 27.883L5.65636 10.6477H3.54909V29.2804H0V7.09863H7.65272L17.7454 24.0455V7.09863H21.2945V26.3746C21.2945 27.9717 19.9858 29.2804 18.3887 29.2804Z" fill="#FAFAFA"/>
<path d="M36.3783 29.7241C30.0121 29.7241 24.8438 24.5557 24.8438 18.1895V7.09863H28.3928V18.1895C28.3928 22.6037 31.9641 26.175 36.3783 26.175C40.7925 26.175 44.3637 22.6037 44.3637 18.1895V7.09863H47.9128V18.1895C47.9128 24.5557 42.7445 29.7241 36.3783 29.7241Z" fill="#FAFAFA"/>
</svg>
