<svg width="87" height="41" viewBox="0 0 87 41" fill="none" xmlns="http://www.w3.org/2000/svg">
<g clip-path="url(#clip0_320_172)">
<path d="M0 28.0474V16.2378H3.77909V20.4893H10.0972V16.2378H13.8763V28.0474H10.0972V23.4417H3.77909V28.0474H0Z" fill="white"/>
<path d="M24.3875 16.061C26.218 16.061 27.7532 16.3562 28.9342 17.0058C29.938 17.5372 30.6466 18.3048 31.178 19.2496C31.5913 20.0172 31.7685 20.903 31.7685 21.9068V22.3792C31.7685 23.0877 31.6504 23.7373 31.4142 24.4458C31.178 25.0954 30.8237 25.7449 30.2923 26.2763C28.9932 27.6344 27.0446 28.284 24.3875 28.284H23.6789C21.8484 28.284 20.3131 27.9297 19.1322 27.2802C18.1283 26.6897 17.3607 25.9811 16.8883 24.9773C16.475 24.2097 16.2979 23.3239 16.2979 22.3792V21.8477C16.2979 20.8439 16.475 19.9582 16.8883 19.1906C17.3607 18.2458 18.1283 17.4782 19.1322 16.9467C20.3131 16.2972 21.7893 16.002 23.6789 16.002H24.3875V16.061ZM27.7532 21.9658C27.7532 21.1391 27.517 20.4896 27.0446 19.9582C26.3951 19.3087 25.3913 18.9544 23.9741 18.9544C22.557 18.9544 21.5531 19.3087 20.9036 19.9582C20.4312 20.4306 20.195 21.1391 20.195 21.9658V22.202C20.195 23.0287 20.4312 23.6782 20.9036 24.2097C21.5531 24.9182 22.557 25.2725 23.9151 25.2725C25.3322 25.2725 26.336 24.9182 26.9856 24.2097C27.458 23.6782 27.6942 23.0287 27.6942 22.202V21.9658H27.7532Z" fill="white"/>
<path d="M37.6131 28.0474V19.1902H32.9482V16.2378H46.0569V19.1902H41.3921V28.0474H37.6131Z" fill="white"/>
<path d="M48.3008 16.2378H59.638V18.954H52.0208V20.6664H59.3428V23.4417H52.0208V25.2722H59.6971V28.0474H48.3008V16.2378Z" fill="white"/>
<path d="M61.9414 16.2378H65.7205V24.9769H71.0939V28.0474H61.9414V16.2378Z" fill="white"/>
<path d="M79.5383 28.2249C77.7078 28.2249 76.2316 27.9887 75.2278 27.5163C74.342 27.1621 73.7516 26.6306 73.3973 25.922C73.1611 25.4497 73.043 24.9182 73.043 24.2097V24.0916H77.1173C77.1173 24.5049 77.2944 24.8001 77.5897 25.0363C78.003 25.4497 78.7707 25.6268 79.7745 25.6268H79.8926C80.8964 25.6268 81.664 25.5087 82.0774 25.2135C82.2545 25.0954 82.3726 24.9773 82.4316 24.8592C82.4907 24.7411 82.4907 24.5639 82.4907 24.3868C82.4907 24.2097 82.4316 24.0916 82.3726 23.9735C82.3135 23.8554 82.1954 23.7373 82.0183 23.6192C81.664 23.383 81.0145 23.3239 80.1288 23.2649L78.5345 23.2058C76.5859 23.1468 75.1687 22.7925 74.342 22.0839C73.5744 21.4934 73.2201 20.7258 73.2201 19.6629V19.5448C73.2201 18.4229 73.6335 17.5963 74.4011 17.0058C75.4049 16.2972 77.0582 16.002 79.3611 16.002H79.9516C82.4316 16.002 84.144 16.4153 85.1479 17.1829C85.8564 17.7734 86.2107 18.541 86.2107 19.6039V19.722H82.1954C82.1364 19.5448 82.1364 19.4267 82.0774 19.3087C82.0183 19.1906 81.9002 19.0725 81.7231 18.9544C81.3097 18.6591 80.6602 18.541 79.7154 18.541H79.5973C78.6526 18.541 78.003 18.6591 77.6487 18.8363C77.4716 18.8953 77.3535 19.0134 77.2944 19.1315C77.2354 19.2496 77.1763 19.3677 77.1763 19.5448C77.1763 19.8401 77.2944 20.0763 77.5897 20.2534C77.944 20.4896 78.5345 20.5487 79.3611 20.6077L81.0145 20.6668C83.0812 20.7258 84.4983 21.0801 85.3841 21.7296C85.7383 22.0249 86.0336 22.3792 86.2107 22.7925C86.3879 23.2058 86.4469 23.6782 86.4469 24.2097V24.3868C86.4469 25.0954 86.3288 25.7449 86.0336 26.2173C85.6793 26.8668 85.0298 27.3392 84.2031 27.6935C83.1993 28.1068 81.7821 28.284 80.0697 28.284H79.5383V28.2249Z" fill="white"/>
<path d="M13.1087 7.20398C12.6954 6.73159 12.0458 6.43635 11.1601 6.31826C11.9277 6.14111 12.5182 5.84587 12.9906 5.37349C13.5221 4.84205 13.7582 4.25157 13.7582 3.48394V3.36585C13.7582 2.42108 13.463 1.7125 12.9316 1.24011C12.1049 0.531535 10.7468 0.177246 8.79819 0.177246H0V11.8688C0.649531 11.8097 1.29906 11.6916 2.06669 11.6326C2.65717 11.5735 3.24765 11.5145 3.83814 11.4554V8.2078H7.85342C8.68009 8.2078 9.27058 8.38494 9.62487 8.68018C9.80201 8.85733 9.92011 9.03447 9.97916 9.32971C10.0382 9.62495 10.0973 9.9202 10.0973 10.3335V11.0421C11.3963 10.9831 12.6954 10.924 13.9354 10.865V9.32971C13.8763 8.38494 13.5811 7.73541 13.1087 7.20398ZM9.80201 4.07443C9.80201 4.42871 9.68391 4.72396 9.50677 4.84205C9.27058 5.13729 8.85724 5.25539 8.26676 5.25539H3.77909V3.01156H8.26676C8.79819 3.01156 9.21153 3.12965 9.50677 3.3068C9.68391 3.48394 9.80201 3.72014 9.80201 4.07443Z" fill="white"/>
<path d="M17.6553 0.177246V10.7469C18.9543 10.7469 20.1943 10.7469 21.4344 10.8059V0.177246H17.6553V0.177246Z" fill="white"/>
<path d="M38.8532 6.25918C38.3809 5.84584 37.7313 5.60965 36.9046 5.49155C37.1408 5.4325 37.377 5.37345 37.6723 5.25536C37.9085 5.13726 38.1447 5.01916 38.3809 4.84202C38.9123 4.36963 39.1485 3.8382 39.1485 3.12962V2.95248C39.1485 2.1258 38.8532 1.47627 38.2628 1.00389C37.5542 0.413405 36.3732 0.118164 34.838 0.118164H25.5674V10.8649C27.6931 10.983 29.7598 11.1011 31.6494 11.2192C33.1846 11.3373 35.2513 11.4554 37.6132 11.5735C38.0856 11.3964 38.4989 11.1602 38.7942 10.924C39.4437 10.3335 39.798 9.56587 39.798 8.56206V8.38491C39.798 7.49919 39.4437 6.79061 38.8532 6.25918ZM29.3465 2.77533H33.9522C34.4246 2.77533 34.7199 2.83438 34.897 3.01153C35.0742 3.18867 35.1922 3.42486 35.1922 3.7201V3.77915C35.1922 4.42868 34.7789 4.72392 33.9522 4.72392H29.3465V2.77533ZM35.6646 8.14872C35.6646 8.44396 35.5465 8.68015 35.3694 8.8573C35.1332 9.09349 34.7789 9.21159 34.2475 9.21159H29.3465V7.08585H34.2475C34.7789 7.08585 35.1332 7.20395 35.3694 7.38109C35.5465 7.55824 35.6646 7.73538 35.6646 8.08967V8.14872Z" fill="white"/>
<path d="M52.1396 0.177246H47.1205L41.8652 11.7507L45.6443 11.8688L46.471 9.9202H52.7301L53.6158 11.8688L57.6311 11.7507L52.1396 0.177246ZM47.652 7.32208L49.6006 2.89346L51.6082 7.32208H47.652Z" fill="white"/>
<path d="M72.9251 6.6134C72.7479 6.20006 72.5117 5.84577 72.0984 5.55053C71.2127 4.901 69.7364 4.54671 67.7288 4.48766L66.0755 4.42861C65.2488 4.42861 64.6583 4.31052 64.304 4.07433C64.0088 3.95623 63.8907 3.72004 63.8907 3.36575C63.8907 3.1886 63.9497 3.07051 64.0088 2.95241C64.0678 2.83431 64.1859 2.71622 64.3631 2.65717C64.7173 2.48002 65.4259 2.36193 66.3117 2.36193H66.4297C67.3745 2.36193 68.0241 2.48002 68.4374 2.77526C68.6145 2.89336 68.7326 3.01146 68.7917 3.12955C68.8507 3.24765 68.9098 3.42479 68.9098 3.54289H72.9251V3.60194C72.9251 2.53907 72.5708 1.77145 71.8622 1.18096C70.8584 0.413337 69.146 0 66.6659 0H66.0755C63.7726 0 62.1192 0.354289 61.1154 1.06287C60.2887 1.65335 59.9344 2.48002 59.9344 3.60194V3.72004C59.9344 4.72386 60.2887 5.55053 61.0564 6.14101C61.883 6.84959 63.3002 7.20388 65.2488 7.26293L66.8431 7.32198C67.7288 7.32198 68.3783 7.44007 68.7326 7.67626C68.9098 7.79436 69.0279 7.85341 69.0869 8.03055C69.146 8.14865 69.205 8.32579 69.205 8.44389C69.205 8.62104 69.146 8.79818 69.0869 8.91628C69.0279 9.03437 68.9098 9.15247 68.7326 9.27057C68.3193 9.56581 67.6107 9.6839 66.5478 9.6839H66.4297C65.4259 9.6839 64.7173 9.50676 64.245 9.09342C63.9497 8.85723 63.8316 8.50294 63.7726 8.14865H59.6982V8.26675C59.6982 8.91628 59.8163 9.50676 60.0525 9.97914C60.4068 10.6287 61.0564 11.1601 61.883 11.5734C61.9421 11.5734 61.9421 11.5734 62.0011 11.6325C65.8983 11.3373 69.3231 10.8649 71.8622 10.0382C72.2165 9.9201 72.5708 9.86105 72.866 9.74295C73.0432 9.32961 73.1022 8.85723 73.1022 8.32579V8.14865C73.1613 7.49912 73.0432 7.02673 72.9251 6.6134Z" fill="white"/>
<path d="M55.3284 35.6655H0.354492V36.9646H55.3284V35.6655Z" fill="white"/>
<path d="M63.1812 37.4369C63.2993 37.3778 63.3584 37.2597 63.4174 37.2007C63.4765 37.1416 63.5355 37.0235 63.5355 36.9645H62.1774L62.3546 36.0788H65.1889L64.6574 38.854H63.5946C63.5946 38.7359 63.5946 38.6178 63.5946 38.4997C63.5946 38.3816 63.5946 38.2635 63.5946 38.1454C63.5355 38.2045 63.4765 38.2635 63.4174 38.3226C63.2403 38.5588 62.945 38.6769 62.5317 38.795C62.2955 38.854 62.0593 38.9131 61.8231 38.9131H61.705C60.8193 38.9131 60.1698 38.6769 59.6974 38.2045C59.4612 37.9683 59.3431 37.7321 59.225 37.4959C59.1069 37.2007 59.0479 36.9054 59.0479 36.6102C59.0479 36.2559 59.1069 35.9016 59.225 35.5473C59.3431 35.193 59.5202 34.8978 59.7564 34.6616C59.9926 34.3664 60.3469 34.1302 60.7603 34.0121C61.1736 33.8349 61.646 33.7759 62.1774 33.7759H62.4136C63.4765 33.7759 64.185 33.953 64.6574 34.3073C65.0117 34.6026 65.1889 35.0159 65.1889 35.5473H63.7717C63.7717 35.4883 63.7127 35.4292 63.7127 35.3702C63.6536 35.3111 63.5946 35.2521 63.5355 35.193C63.2993 35.0159 62.886 34.8978 62.3546 34.8978C61.705 34.8978 61.1736 35.0749 60.8783 35.4883C60.7602 35.6654 60.6422 35.7835 60.6422 36.0197C60.5831 36.1969 60.5831 36.374 60.5831 36.5511C60.5831 36.7283 60.5831 36.8464 60.6422 37.0235C60.7012 37.2007 60.7602 37.3188 60.8783 37.4369C61.1145 37.7321 61.5279 37.8502 62.0003 37.8502C62.4726 37.7912 62.886 37.6731 63.1812 37.4369Z" fill="white"/>
<path d="M68.6131 36.4918C68.6131 36.1966 68.4359 36.0194 68.1407 36.0194C67.9636 36.0194 67.7864 36.0785 67.6683 36.2556C67.5502 36.3737 67.4912 36.6099 67.4321 36.8461L67.0188 38.8537H65.7197L66.4283 35.0746H67.7274L67.6093 35.6651C67.7274 35.488 67.8455 35.3699 67.9636 35.2518C68.1997 35.0746 68.495 34.9565 68.8493 34.9565H68.9083C69.2626 34.9565 69.5579 35.0746 69.735 35.3108C69.9121 35.547 69.9712 35.7832 69.9712 36.1375C69.9712 36.3147 69.9121 36.5508 69.8531 36.8461H68.495V36.787C68.6131 36.6689 68.6131 36.6099 68.6131 36.4918Z" fill="white"/>
<path d="M72.6892 38.9128C71.8625 38.9128 71.2721 38.7356 70.9178 38.3223C70.6816 38.027 70.5635 37.6137 70.5635 37.1413C70.5635 36.8461 70.6225 36.5508 70.7406 36.2556C70.9178 35.9013 71.154 35.6061 71.4492 35.3699C71.8625 35.1337 72.394 34.9565 72.9845 34.9565H73.2206C74.0473 34.9565 74.6378 35.1337 74.9921 35.547C75.2283 35.8423 75.4054 36.2556 75.4054 36.728C75.4054 37.0823 75.3464 37.3775 75.2283 37.6137C75.0511 37.968 74.815 38.2632 74.5197 38.4994C74.1064 38.7356 73.5749 38.9128 72.9254 38.9128H72.6892ZM72.0397 37.6728C72.2168 37.8499 72.453 37.968 72.7483 37.968H72.8073C73.2207 37.968 73.5159 37.8499 73.7521 37.5547C73.8111 37.4366 73.8702 37.3185 73.9292 37.2004C73.9883 37.0823 73.9883 36.9642 73.9883 36.8461C73.9883 36.6099 73.9292 36.4327 73.8111 36.2556C73.634 36.0785 73.3978 35.9604 73.1026 35.9604H73.0435C72.6302 35.9604 72.3349 36.0785 72.0987 36.3737C72.0397 36.4918 71.9806 36.6099 71.9216 36.728C71.8625 36.8461 71.8625 36.9642 71.8625 37.0823C71.8625 37.3185 71.9216 37.4956 72.0397 37.6728Z" fill="white"/>
<path d="M80.1866 38.7947H78.8876L79.0057 38.2042C78.8876 38.3813 78.7104 38.4994 78.5333 38.6175C78.238 38.7947 77.8838 38.9128 77.5295 38.9128H77.4704C77.2342 38.9128 76.998 38.8537 76.8209 38.7947C76.6437 38.6766 76.4666 38.5585 76.3485 38.3813C76.1714 38.1451 76.1123 37.8499 76.1123 37.4956C76.1123 37.3775 76.1123 37.2594 76.1714 37.1413L76.5847 35.0156H77.8838L77.5295 36.9051C77.5295 36.9642 77.5295 37.0232 77.5295 37.1413C77.5295 37.3185 77.5885 37.4366 77.6476 37.5547C77.7657 37.7318 78.0019 37.7909 78.2971 37.7909C78.5923 37.7909 78.8285 37.6728 79.0057 37.4956C79.1828 37.3185 79.3009 37.1413 79.36 36.8461L79.7142 34.9565H81.0133L80.1866 38.7947Z" fill="white"/>
<path d="M83.199 35.547C83.3171 35.4289 83.4942 35.3108 83.6714 35.1927C83.9666 35.0746 84.2619 34.9565 84.6161 34.9565H84.6752C85.2657 34.9565 85.679 35.1337 85.9743 35.488C86.2695 35.7832 86.3876 36.2556 86.3876 36.787C86.3876 37.0232 86.3285 37.2594 86.2695 37.4956C86.2105 37.7318 86.0924 37.968 85.9152 38.1451C85.5019 38.6175 84.9704 38.8537 84.2619 38.8537H84.2028C83.8485 38.8537 83.4942 38.7947 83.199 38.6766C82.9628 38.5585 82.8447 38.4404 82.7266 38.3223L82.3723 40.0937H81.0732L82.0771 35.0156H83.3761L83.199 35.547ZM83.9076 37.909C84.3209 37.909 84.6161 37.7909 84.7933 37.4956C84.8523 37.3775 84.9114 37.2594 84.9704 37.1413C85.0295 37.0232 85.0295 36.9051 85.0295 36.787C85.0295 36.5508 84.9704 36.3737 84.8523 36.1966C84.6752 36.0194 84.439 35.9604 84.1438 35.9604H84.0847C83.7304 35.9604 83.4352 36.0785 83.199 36.3147C83.0809 36.4327 83.0218 36.5508 82.9628 36.6689C82.9037 36.787 82.9037 36.9051 82.9037 37.0823C82.9037 37.3185 82.9628 37.4956 83.1399 37.6728C83.3171 37.8499 83.5533 37.909 83.8485 37.909H83.9076Z" fill="white"/>
</g>
<defs>
<clipPath id="clip0_320_172">
<rect width="86.3876" height="40.0937" fill="white"/>
</clipPath>
</defs>
</svg>
