<svg width="44" height="50" viewBox="0 0 44 50" fill="none" xmlns="http://www.w3.org/2000/svg">
<path d="M0 26.2322V25.8664C0.245069 25.799 0.504554 25.6979 0.78326 25.568C1.06197 25.4332 1.32145 25.2744 1.56652 25.0818C1.81159 24.8941 2.00861 24.6871 2.16718 24.4657C2.32095 24.2443 2.40264 24.0085 2.40264 23.763V2.4692C2.40264 1.95899 2.22004 1.52099 1.85484 1.16481C1.48964 0.808625 1.05716 0.543897 0.567023 0.365807V0L5.93452 0.0336927L13.5701 19.1712L20.9414 0.0336927H26.2752V0.399499C25.7851 0.553523 25.3574 0.813439 24.9922 1.16962C24.627 1.5258 24.4396 1.95899 24.4396 2.47401V30.0972C24.4396 30.3427 24.4877 30.6074 24.5886 30.901C24.6895 31.1898 24.8241 31.469 24.9874 31.7337C25.1556 32.0033 25.3478 32.2343 25.5689 32.4365C25.7899 32.6386 26.0254 32.783 26.2704 32.8697V33.2355C25.6025 33.2355 25.0595 33.1633 24.6367 33.0189C24.2138 32.8745 23.863 32.6916 23.5843 32.4702C23.3056 32.2487 23.0557 32.0129 22.8347 31.7674C22.6136 31.5219 22.3493 31.2861 22.0514 31.0647C21.7535 30.8433 21.3835 30.6604 20.951 30.516C20.5185 30.3716 19.9563 30.2994 19.2692 30.2994V29.9336C19.7593 29.7555 20.187 29.4859 20.5522 29.1298C20.9174 28.7736 21.1048 28.3404 21.1048 27.8254L21.1384 4.64478L12.7676 26.2563L4.19981 5.01059V23.763C4.19981 24.0085 4.2815 24.2395 4.44969 24.4657C4.61787 24.6871 4.81969 24.8893 5.06476 25.0674C5.30983 25.2455 5.57412 25.4091 5.86724 25.5535C6.15556 25.6979 6.41024 25.8038 6.63609 25.8712V26.237H0V26.2322Z" fill="#FAFAFA"/>
<path d="M34.7134 20.4468C35.29 20.4468 35.8186 20.4805 36.2991 20.5479C36.7748 20.6152 37.2457 20.7019 37.6974 20.8126C38.1539 20.9233 38.6104 21.0581 39.0621 21.2121C39.5186 21.3661 39.9992 21.5346 40.5133 21.7127L40.7488 21.2458H41.1476V27.0891H40.7152L40.6815 26.9543C40.2154 25.4381 39.5186 24.2541 38.596 23.3973C37.6734 22.5405 36.3568 22.1122 34.6461 22.1122C34.1127 22.1122 33.5985 22.194 33.1132 22.3624C32.6231 22.5309 32.2002 22.7619 31.8446 23.0652C31.489 23.3636 31.2055 23.7342 30.9941 24.1674C30.7826 24.6006 30.6769 25.0867 30.6769 25.621C30.6769 26.3574 30.8643 27.012 31.244 27.5896C31.6236 28.1672 32.1233 28.6967 32.7432 29.178C33.3631 29.6593 34.0695 30.1214 34.8623 30.5642C35.6504 31.0119 36.4577 31.4643 37.2794 31.9312C38.1011 32.3981 38.9084 32.9035 39.6964 33.4522C40.4845 33.9961 41.1909 34.617 41.8156 35.3053C42.4354 35.9936 42.9352 36.7877 43.3148 37.6782C43.6944 38.5686 43.8818 39.6035 43.8818 40.7827C43.8818 42.2989 43.5695 43.6322 42.9496 44.7922C42.3297 45.9522 41.5176 46.9148 40.5133 47.6801C39.5138 48.4502 38.3846 49.0278 37.1304 49.4177C35.8762 49.8076 34.6028 50.0001 33.3102 50.0001C31.441 49.976 29.86 49.6054 28.5578 48.8834C27.2556 48.1614 26.2465 47.2662 25.5257 46.2121C24.8049 45.1532 24.382 44.0124 24.2571 42.7899C24.137 41.5673 24.3244 40.4314 24.8241 39.3821C25.3239 38.3376 26.1456 37.4616 27.2892 36.7589C28.4329 36.0561 29.8937 35.7048 31.6716 35.7048C32.3588 35.7048 33.0603 35.7866 33.7715 35.9551C34.4827 36.1235 35.1314 36.3834 35.7225 36.7396C36.3087 37.0958 36.7892 37.5579 37.1544 38.1258C37.5196 38.6938 37.7071 39.3773 37.7071 40.1811C37.7071 40.5613 37.6158 40.9271 37.438 41.2833C37.2602 41.6395 37.0199 41.9668 36.722 42.27C36.424 42.5685 36.0781 42.8332 35.6888 43.0546C35.2996 43.276 34.9056 43.4445 34.5067 43.5552L34.2088 43.2568C34.6076 42.6792 34.8383 42.039 34.8912 41.3363C34.944 40.6335 34.8575 39.9789 34.6221 39.3676C34.3866 38.7564 34.0118 38.2413 33.488 37.8322C32.9642 37.4183 32.3059 37.2017 31.5034 37.1824C30.6145 37.1824 29.8745 37.4472 29.2882 37.9862C28.702 38.5253 28.2743 39.1896 28.0196 39.9886C27.7649 40.7924 27.6736 41.6636 27.7553 42.6118C27.8322 43.56 28.0917 44.4312 28.5386 45.235C28.9807 46.0388 29.6246 46.703 30.4559 47.2373C31.292 47.7716 32.3155 48.0411 33.5409 48.0411C34.3866 48.0411 35.2179 47.8919 36.0396 47.5887C36.8613 47.2903 37.6013 46.8426 38.2549 46.2506C38.9084 45.6634 39.4418 44.9366 39.855 44.0798C40.2683 43.2231 40.4701 42.2363 40.4701 41.1245C40.4701 39.8345 40.1385 38.7467 39.4706 37.8659C38.8027 36.9851 37.9713 36.2053 36.967 35.5267C35.9675 34.848 34.8864 34.2223 33.7331 33.6543C32.575 33.0864 31.4986 32.4703 30.4991 31.8012C29.4996 31.1322 28.6635 30.3669 28.0004 29.4957C27.3325 28.6293 27.0009 27.5608 27.0009 26.2901C27.0009 25.2456 27.2364 24.3503 27.7025 23.6187C28.1686 22.8871 28.774 22.2806 29.5189 21.8137C30.2637 21.3469 31.0902 21.0003 32.0032 20.7789C32.9162 20.5575 33.8148 20.4468 34.7038 20.4468H34.7134Z" fill="#FAFAFA"/>
</svg>
