<svg width="526" height="230" viewBox="0 0 526 230" fill="none" xmlns="http://www.w3.org/2000/svg">
<path d="M270.369 31.9303H267.261V10.4502H280.535V13.0626H270.369V31.9303Z" fill="#FAFAFA"/>
<path d="M306.503 21.1898C306.503 22.7994 306.213 24.3036 305.66 25.6758C305.107 27.048 304.317 28.2354 303.29 29.2646C302.263 30.2937 301.078 31.059 299.682 31.6395C298.286 32.1937 296.732 32.484 295.047 32.484C293.361 32.484 291.86 32.1937 290.464 31.6395C289.069 31.0854 287.857 30.2937 286.856 29.2646C285.856 28.2354 285.065 27.0744 284.486 25.6758C283.907 24.2772 283.643 22.7994 283.643 21.1898C283.643 19.5801 283.933 18.0759 284.486 16.6773C285.039 15.2788 285.829 14.1177 286.856 13.0885C287.883 12.0594 289.069 11.2941 290.464 10.7136C291.86 10.1594 293.388 9.86914 295.047 9.86914C296.706 9.86914 298.26 10.1594 299.682 10.7136C301.078 11.2677 302.289 12.0594 303.29 13.0885C304.291 14.1177 305.081 15.2788 305.66 16.6773C306.24 18.0759 306.503 19.5537 306.503 21.1898ZM303.211 21.1898C303.211 20.0023 303.027 18.8676 302.632 17.812C302.237 16.7565 301.71 15.8329 300.999 15.0676C300.288 14.276 299.445 13.6691 298.444 13.2205C297.444 12.7719 296.311 12.5344 295.047 12.5344C293.783 12.5344 292.677 12.7719 291.676 13.2205C290.675 13.6691 289.832 14.3024 289.148 15.0676C288.437 15.8593 287.91 16.7565 287.515 17.812C287.12 18.8676 286.935 20.0023 286.935 21.1898C286.935 22.3772 287.12 23.5119 287.515 24.5675C287.883 25.623 288.437 26.5466 289.148 27.3119C289.859 28.1035 290.701 28.7104 291.676 29.159C292.65 29.6076 293.783 29.8188 295.047 29.8188C296.311 29.8188 297.417 29.6076 298.444 29.159C299.471 28.7104 300.314 28.1035 300.999 27.3119C301.71 26.5202 302.237 25.623 302.632 24.5675C303 23.5119 303.211 22.3772 303.211 21.1898Z" fill="#FAFAFA"/>
<path d="M309.532 10.4502H328.363V13.0626H320.251V31.9303H317.143V13.0626H309.532V10.4502Z" fill="#FAFAFA"/>
<path d="M352.459 20.5564V21.2425C352.459 21.48 352.459 21.7439 352.406 22.0342H334.629C334.656 23.1161 334.867 24.1189 335.262 25.0688C335.657 26.0188 336.21 26.8369 336.921 27.5493C337.632 28.2618 338.448 28.816 339.396 29.2118C340.344 29.6076 341.372 29.8188 342.478 29.8188C344.084 29.8188 345.506 29.4493 346.665 28.684C347.85 27.9452 348.746 27.0744 349.351 26.098L351.695 27.9452C350.405 29.5549 349.009 30.7423 347.455 31.4284C345.901 32.1409 344.242 32.484 342.478 32.484C340.898 32.484 339.423 32.1937 338.053 31.6395C336.684 31.0854 335.525 30.2937 334.55 29.2646C333.576 28.2354 332.812 27.0744 332.233 25.6758C331.653 24.2772 331.39 22.7994 331.39 21.1898C331.39 19.5801 331.653 18.0759 332.207 16.6773C332.76 15.2788 333.523 14.1177 334.498 13.0885C335.472 12.0858 336.631 11.2941 337.922 10.7136C339.238 10.1594 340.66 9.86914 342.188 9.86914C343.874 9.86914 345.348 10.1594 346.639 10.7136C347.929 11.2677 348.983 12.033 349.852 13.0094C350.695 13.9857 351.353 15.094 351.801 16.3871C352.248 17.6801 352.459 19.0523 352.459 20.53V20.5564ZM349.299 19.5537C349.22 17.5218 348.561 15.8593 347.35 14.5399C346.138 13.2205 344.427 12.5344 342.188 12.5344C341.161 12.5344 340.186 12.7191 339.291 13.1149C338.396 13.4843 337.632 14.0121 336.947 14.6718C336.262 15.3315 335.736 16.0704 335.341 16.9148C334.946 17.7593 334.709 18.6301 334.656 19.5537H349.272H349.299Z" fill="#FAFAFA"/>
<path d="M373.713 31.9303L366.602 14.2237L359.175 31.9303H355.936L365.312 10.4502H368.051L376.847 31.9303H373.687H373.713Z" fill="#FAFAFA"/>
<path d="M384.828 10.4502V17.8917H390.148C391.728 17.8917 393.097 18.0764 394.204 18.4195C395.31 18.7625 396.232 19.2639 396.916 19.8972C397.601 20.5306 398.101 21.2694 398.391 22.1139C398.707 22.9847 398.839 23.8819 398.839 24.8582C398.839 25.8346 398.654 26.7582 398.286 27.6026C397.917 28.4735 397.364 29.2123 396.653 29.8457C395.942 30.479 395.046 30.9803 393.993 31.3498C392.939 31.7192 391.702 31.9039 390.306 31.9039H381.694V10.4502H384.802H384.828ZM384.828 29.4498H389.595C390.437 29.4498 391.254 29.3707 391.965 29.2387C392.702 29.1068 393.335 28.8429 393.861 28.4998C394.388 28.1568 394.809 27.6818 395.099 27.1013C395.389 26.5207 395.52 25.7818 395.52 24.8846C395.52 23.9874 395.362 23.2486 395.073 22.668C394.757 22.0875 394.335 21.6125 393.782 21.2958C393.229 20.9792 392.571 20.7153 391.833 20.5833C391.096 20.4514 390.279 20.3722 389.437 20.3722H384.802V29.4498H384.828Z" fill="#FAFAFA"/>
<path d="M424.095 28.579H424.174L430.811 10.4502H434.208L423.542 37.4719C422.91 39.1344 422.094 40.4538 421.093 41.4301C420.092 42.4065 418.67 42.9079 416.8 42.9079C415.852 42.9079 414.93 42.8287 414.008 42.644L414.325 39.7941C415.062 40.0316 415.826 40.1635 416.616 40.1635C417.696 40.1635 418.512 39.8468 419.144 39.1871C419.776 38.5274 420.303 37.5774 420.751 36.3636L422.489 31.8776L413.324 10.4502H416.8L424.095 28.579Z" fill="#FAFAFA"/>
<path d="M465.074 31.9303L457.963 14.2237L450.537 31.9303H447.297L456.673 10.4502H459.412L468.208 31.9303H465.048H465.074Z" fill="#FAFAFA"/>
<path d="M477.084 2.19024C477.084 2.82356 476.847 3.35132 476.399 3.77354C475.952 4.19575 475.425 4.38047 474.898 4.38047C474.371 4.38047 473.845 4.16936 473.397 3.77354C472.949 3.35132 472.712 2.82356 472.712 2.19024C472.712 1.55691 472.949 1.02915 473.397 0.606933C473.845 0.184719 474.371 0 474.898 0C475.425 0 475.952 0.211107 476.399 0.606933C476.847 1.02915 477.084 1.55691 477.084 2.19024ZM476.452 31.9299H473.344V10.4498H476.452V31.9299Z" fill="#FAFAFA"/>
<path d="M500.154 15.3848C499.628 14.5667 498.89 13.8806 497.889 13.3529C496.889 12.8251 495.809 12.5612 494.65 12.5612C493.386 12.5612 492.28 12.7723 491.253 13.2209C490.252 13.6695 489.383 14.2765 488.672 15.0681C487.961 15.8598 487.408 16.757 487.013 17.8125C486.618 18.868 486.433 20.0027 486.433 21.243C486.433 22.4832 486.618 23.5916 487.013 24.6471C487.408 25.7026 487.934 26.5998 488.645 27.3651C489.356 28.1567 490.199 28.7637 491.2 29.2123C492.201 29.6609 493.333 29.872 494.597 29.872C495.967 29.872 497.126 29.6081 498.074 29.0803C499.022 28.5526 499.812 27.8929 500.418 27.0484L502.762 28.7901C501.84 29.9248 500.734 30.822 499.391 31.5081C498.074 32.1678 496.467 32.5108 494.597 32.5108C492.859 32.5108 491.279 32.2206 489.883 31.6664C488.487 31.1122 487.276 30.3206 486.301 29.2914C485.301 28.2887 484.537 27.1012 483.984 25.7026C483.431 24.304 483.167 22.8263 483.167 21.2166C483.167 19.6069 483.431 18.1028 483.984 16.7042C484.537 15.3056 485.301 14.1445 486.301 13.1154C487.302 12.1126 488.487 11.321 489.883 10.7404C491.279 10.1863 492.859 9.896 494.597 9.896C496.02 9.896 497.494 10.2127 498.969 10.846C500.444 11.4793 501.656 12.4029 502.551 13.6168L500.128 15.3584L500.154 15.3848Z" fill="#FAFAFA"/>
<path d="M511.427 2.19024C511.427 2.82356 511.19 3.35132 510.742 3.77354C510.294 4.19575 509.768 4.38047 509.241 4.38047C508.714 4.38047 508.187 4.16936 507.74 3.77354C507.292 3.35132 507.055 2.82356 507.055 2.19024C507.055 1.55691 507.292 1.02915 507.74 0.606933C508.187 0.184719 508.714 0 509.241 0C509.768 0 510.294 0.211107 510.742 0.606933C511.19 1.02915 511.427 1.55691 511.427 2.19024ZM510.795 31.9299H507.687V10.4498H510.795V31.9299Z" fill="#FAFAFA"/>
<path d="M0 207.095V205.09C1.34315 204.721 2.76531 204.166 4.29281 203.454C5.82031 202.715 7.24247 201.844 8.58562 200.789C9.92877 199.759 11.0349 198.625 11.8777 197.385C12.7204 196.171 13.1681 194.878 13.1681 193.532V85.8936C13.1681 83.0701 12.1674 80.6951 10.1395 78.7424C8.1379 76.7896 5.76764 75.3119 3.08134 74.3355V72.4355L32.5516 72.5147L74.4526 173.002L114.905 72.5147H144.191V74.5202C141.505 75.3647 139.161 76.7896 137.159 78.7424C135.158 80.6951 134.131 83.0965 134.131 85.8936V193.532C134.131 196.355 135.131 198.73 137.159 200.683C139.161 202.636 141.531 204.114 144.191 205.09V207.095H105.766V205.09C108.453 204.246 110.823 202.768 112.904 200.683C114.984 198.598 116.011 196.223 116.011 193.532V97.6101L70.0808 211.502L23.0706 99.642V193.532C23.0706 194.878 23.5183 196.171 24.44 197.385C25.3618 198.598 26.4943 199.707 27.8374 200.683C29.1806 201.659 30.6554 202.557 32.2356 203.348C33.8158 204.14 35.2116 204.721 36.4494 205.09V207.095H0Z" fill="#FAFAFA"/>
<path d="M157.571 207.097V205.091C160.257 204.115 162.601 202.637 164.603 200.684C166.604 198.731 167.631 196.357 167.631 193.533V85.8947C167.631 83.0712 166.63 80.6962 164.603 78.7435C162.601 76.7907 160.231 75.313 157.571 74.3366V72.3311H244.875L246.35 96.3445H244.164C243.796 94.9987 243.164 93.4946 242.242 91.8585C241.32 90.1961 240.267 88.6391 239.029 87.1878C237.817 85.71 236.527 84.4962 235.184 83.5198C233.841 82.5434 232.497 82.042 231.154 82.042H185.935V128.987H219.803C221.147 128.987 222.384 128.538 223.543 127.615C224.702 126.691 225.808 125.583 226.835 124.211C227.862 122.865 228.758 121.44 229.495 119.909C230.233 118.379 230.786 117.007 231.154 115.793H233.34V151.918H231.154C230.786 150.705 230.233 149.332 229.495 147.802C228.758 146.271 227.889 144.846 226.835 143.501C225.808 142.155 224.702 141.02 223.543 140.096C222.384 139.173 221.12 138.724 219.803 138.724H185.935V197.412H231.154C232.497 197.412 234.025 196.805 235.737 195.591C237.449 194.377 239.082 192.9 240.688 191.184C242.268 189.469 243.717 187.675 244.981 185.775C246.271 183.875 247.088 182.318 247.456 181.104H249.827L244.691 207.149H157.571V207.097ZM193.809 65.5229H182.459L201.684 43.3303C202.658 42.222 203.765 41.0345 204.976 39.7678C206.188 38.4748 207.531 37.2609 209.006 36.0999C210.48 34.9388 212.034 33.9888 213.667 33.2499C215.326 32.511 216.985 32.1416 218.697 32.1416C220.646 32.1416 222.305 32.8277 223.648 34.1471C224.992 35.4929 225.65 37.0762 225.65 38.9234C225.65 40.4012 225.044 41.9317 223.833 43.515C222.621 45.0983 221.278 46.576 219.803 47.9219C215.906 51.4579 211.692 54.5981 207.162 57.2633C202.658 59.955 198.181 62.6994 193.809 65.5229Z" fill="#FAFAFA"/>
<path d="M267.209 205.091C269.896 204.114 272.24 202.636 274.268 200.684C276.269 198.731 277.296 196.356 277.296 193.532V85.8942C277.296 83.0706 276.295 80.6957 274.268 78.7429C272.266 76.7902 269.896 75.3125 267.209 74.3361V72.3306H305.634V74.3361C302.948 75.3125 300.604 76.7902 298.576 78.7429C296.574 80.6957 295.547 83.097 295.547 85.8942V197.385H340.767C342.11 197.385 343.637 196.778 345.349 195.564C347.061 194.35 348.694 192.873 350.3 191.157C351.881 189.442 353.329 187.648 354.593 185.748C355.884 183.848 356.7 182.291 357.069 181.077H359.439L354.303 207.122H267.183V205.117L267.209 205.091Z" fill="#FAFAFA"/>
<path d="M367.472 205.09C370.158 204.114 372.502 202.636 374.53 200.684C376.532 198.731 377.559 196.356 377.559 193.532V85.8942C377.559 83.0706 376.558 80.6957 374.53 78.7429C372.502 76.7902 370.158 75.3125 367.472 74.3361V72.3306H405.897V74.3361C403.21 75.3125 400.867 76.7902 398.839 78.7429C396.837 80.6957 395.81 83.097 395.81 85.8942V193.532C395.81 196.356 396.811 198.731 398.839 200.684C400.84 202.636 403.21 204.114 405.897 205.09V207.096H367.472V205.09Z" fill="#FAFAFA"/>
<path d="M475.451 67.7383C478.611 67.7383 481.508 67.923 484.142 68.2925C486.775 68.6619 489.33 69.1369 491.832 69.7702C494.334 70.3772 496.836 71.116 499.338 71.9605C501.84 72.8049 504.5 73.7285 507.291 74.7049L508.582 72.1452H510.768V104.233H508.397L508.213 103.495C505.658 95.1822 501.84 88.6643 496.783 83.9672C491.727 79.27 484.484 76.9215 475.082 76.9215C472.159 76.9215 469.341 77.3701 466.654 78.2937C463.968 79.2173 461.651 80.4839 459.702 82.1464C457.753 83.7825 456.199 85.8144 455.04 88.1893C453.881 90.5643 453.302 93.2295 453.302 96.1586C453.302 100.196 454.329 103.811 456.41 106.978C458.49 110.144 461.229 113.074 464.653 115.686C468.077 118.325 471.948 120.858 476.267 123.286C480.586 125.74 485.011 128.247 489.541 130.807C494.044 133.366 498.469 136.163 502.814 139.145C507.133 142.154 511.031 145.531 514.428 149.331C517.852 153.131 520.591 157.459 522.672 162.341C524.752 167.222 525.779 172.922 525.779 179.388C525.779 187.7 524.068 195.036 520.644 201.395C517.22 207.755 512.769 213.033 507.291 217.255C501.813 221.477 495.598 224.644 488.724 226.781C481.824 228.918 474.845 230 467.761 230C457.516 229.868 448.825 227.837 441.688 223.852C434.551 219.867 428.994 214.985 425.043 209.18C421.066 203.375 418.749 197.121 418.09 190.391C417.406 183.662 418.459 177.435 421.198 171.682C423.937 165.929 428.467 161.127 434.735 157.274C441.029 153.421 449.036 151.495 458.806 151.495C462.572 151.495 466.417 151.944 470.342 152.867C474.266 153.791 477.821 155.216 481.06 157.169C484.3 159.121 486.907 161.655 488.935 164.768C490.936 167.882 491.964 171.656 491.964 176.036C491.964 178.121 491.463 180.126 490.489 182.079C489.514 184.032 488.198 185.826 486.565 187.489C484.905 189.125 483.036 190.576 480.902 191.79C478.769 193.004 476.61 193.928 474.397 194.534L472.764 192.898C474.95 189.732 476.215 186.196 476.504 182.343C476.794 178.49 476.32 174.875 475.029 171.524C473.739 168.172 471.685 165.349 468.814 163.08C465.943 160.81 462.309 159.623 457.911 159.517C453.039 159.517 448.983 160.995 445.743 163.924C442.504 166.853 440.187 170.521 438.791 174.928C437.395 179.335 436.895 184.137 437.316 189.336C437.737 194.534 439.186 199.337 441.609 203.744C444.058 208.151 447.561 211.819 452.143 214.748C456.726 217.677 462.362 219.155 469.077 219.155C473.713 219.155 478.295 218.337 482.799 216.674C487.302 215.038 491.358 212.584 494.966 209.338C498.574 206.093 501.497 202.134 503.762 197.411C506.027 192.714 507.16 187.304 507.16 181.182C507.16 174.083 505.342 168.146 501.682 163.291C498.021 158.462 493.438 154.187 487.961 150.466C482.483 146.745 476.557 143.315 470.21 140.201C463.863 137.087 457.937 133.683 452.459 130.015C446.955 126.347 442.399 122.125 438.738 117.348C435.077 112.572 433.234 106.714 433.234 99.7474C433.234 93.9948 434.524 89.1129 437.079 85.0755C439.633 81.0381 442.952 77.7395 447.06 75.1798C451.142 72.6202 455.699 70.7202 460.702 69.5063C465.706 68.2925 470.658 67.6855 475.53 67.6855L475.451 67.7383Z" fill="#FAFAFA"/>
</svg>
