<svg width="26" height="19" viewBox="0 0 26 19" fill="none" xmlns="http://www.w3.org/2000/svg">
<path d="M14.6193 12.3169C13.9974 12.7316 13.2749 12.9508 12.53 12.9508C11.7852 12.9508 11.0627 12.7316 10.4408 12.3169L0.196484 5.48721C0.139648 5.44932 0.0842773 5.40981 0.0300293 5.36919V16.5605C0.0300293 17.8436 1.07129 18.8619 2.33144 18.8619H22.7286C24.0117 18.8619 25.03 17.8206 25.03 16.5605V5.36914C24.9756 5.40986 24.9202 5.44946 24.8632 5.4874L14.6193 12.3169Z" fill="#00533E"/>
<path d="M1.00903 4.26719L11.2533 11.097C11.6411 11.3555 12.0855 11.4848 12.53 11.4848C12.9745 11.4848 13.4189 11.3555 13.8067 11.097L24.051 4.26719C24.6641 3.85874 25.03 3.17515 25.03 2.43735C25.03 1.16875 23.9979 0.136719 22.7294 0.136719H2.33066C1.06211 0.136768 0.0300293 1.1688 0.0300293 2.43857C0.0300293 3.17515 0.396045 3.85874 1.00903 4.26719Z" fill="#00533E"/>
</svg>
