<svg width="26" height="27" viewBox="0 0 26 27" fill="none" xmlns="http://www.w3.org/2000/svg">
<path d="M24.6259 18.8182C24.5576 18.7616 19.5967 15.0232 18.2351 15.2915C17.5851 15.4117 17.2134 15.8752 16.4676 16.8031C16.3476 16.9529 16.0592 17.3119 15.8351 17.5671C15.3637 17.4064 14.9039 17.2108 14.4592 16.9817C12.1638 15.8134 10.3092 13.8745 9.19172 11.4747C8.97244 11.0099 8.7853 10.5292 8.63172 10.0364C8.87672 9.80114 9.22005 9.4997 9.36672 9.37076C10.2501 8.59538 10.6942 8.20682 10.8092 7.52553C11.0451 6.11417 7.47172 0.892121 7.43422 0.845076C7.27209 0.602941 7.06051 0.401509 6.81478 0.255355C6.56905 0.109201 6.29532 0.0219791 6.01339 0C4.56505 0 0.430054 5.60799 0.430054 6.55239C0.430054 6.60727 0.505887 12.1865 7.08672 19.185C13.7742 26.0571 19.1101 26.1364 19.1626 26.1364C20.0667 26.1364 25.4301 21.8134 25.4301 20.2992C25.4093 20.0055 25.3263 19.7203 25.1873 19.4642C25.0482 19.2081 24.8565 18.9874 24.6259 18.8182Z" fill="#00533E"/>
</svg>
