<svg width="288" height="50" viewBox="0 0 288 50" fill="none" xmlns="http://www.w3.org/2000/svg">
<path d="M287.922 48.1757H182.483V17.5184L170.804 0H276.243L287.922 17.5184V48.1757Z" fill="#E2E7D5"/>
<path d="M197.778 26.4255H199.056V36.6446H197.778V35.4037C197.158 36.3527 196.245 36.8636 195.004 36.8636C193.983 36.8636 193.107 36.4986 192.377 35.7687C191.647 35.0388 191.282 34.0899 191.282 33.0315C191.282 31.973 191.647 31.0606 192.377 30.3307C193.107 29.6008 193.983 29.1993 195.004 29.1993C196.209 29.1993 197.121 29.6738 197.778 30.6592V26.4255ZM197.012 34.8928C197.523 34.3818 197.742 33.7614 197.742 33.0315C197.742 32.3015 197.486 31.6811 197.012 31.1701C196.501 30.6592 195.917 30.4037 195.15 30.4037C194.42 30.4037 193.8 30.6592 193.326 31.1701C192.815 31.6811 192.596 32.265 192.596 33.0315C192.596 33.7979 192.851 34.3818 193.326 34.8928C193.837 35.4037 194.42 35.6227 195.15 35.6227C195.917 35.6227 196.537 35.3672 197.012 34.8928Z" fill="#151515"/>
<path d="M201.864 33.5774C202.12 34.8912 203.105 35.6212 204.492 35.6212C205.441 35.6212 206.171 35.2562 206.609 34.5628L207.704 35.1832C206.974 36.2781 205.915 36.8256 204.492 36.8256C203.324 36.8256 202.375 36.4606 201.645 35.7307C200.915 35.0007 200.55 34.0883 200.55 32.9569C200.55 31.862 200.915 30.9496 201.609 30.2197C202.339 29.4897 203.251 29.1248 204.382 29.1248C205.441 29.1248 206.317 29.4897 207.01 30.2562C207.704 30.9861 208.032 31.8985 208.032 32.9569C208.032 33.1394 208.032 33.3219 207.996 33.5409H201.864V33.5774ZM201.864 32.4825H206.755C206.536 31.0956 205.587 30.3656 204.419 30.3656C203.032 30.3656 202.083 31.2051 201.864 32.4825Z" fill="#151515"/>
<path d="M214.274 29.3442H215.661L212.741 36.6436H211.245L208.325 29.3442H209.712L212.011 35.2932L214.274 29.3442Z" fill="#151515"/>
<path d="M217.34 33.5774C217.595 34.8912 218.581 35.6212 219.968 35.6212C220.916 35.6212 221.646 35.2562 222.084 34.5628L223.179 35.1832C222.449 36.2781 221.391 36.8256 219.968 36.8256C218.8 36.8256 217.851 36.4606 217.121 35.7307C216.391 35.0007 216.026 34.0883 216.026 32.9569C216.026 31.862 216.391 30.9496 217.084 30.2197C217.814 29.4897 218.727 29.1248 219.858 29.1248C220.916 29.1248 221.792 29.4897 222.486 30.2562C223.179 30.9861 223.508 31.8985 223.508 32.9569C223.508 33.1394 223.508 33.3219 223.471 33.5409H217.34V33.5774ZM217.34 32.4825H222.23C222.011 31.0956 221.062 30.3656 219.895 30.3656C218.508 30.3656 217.559 31.2051 217.34 32.4825Z" fill="#151515"/>
<path d="M224.967 36.6441V25.9871H226.244V36.6441H224.967Z" fill="#151515"/>
<path d="M231.608 36.8262C230.55 36.8262 229.637 36.4612 228.871 35.7313C228.141 35.0013 227.776 34.0889 227.776 32.994C227.776 31.8991 228.141 31.0232 228.871 30.2568C229.601 29.5268 230.55 29.1619 231.608 29.1619C232.666 29.1619 233.579 29.5268 234.345 30.2568C235.075 30.9867 235.477 31.8991 235.477 32.994C235.477 34.0889 235.112 34.9649 234.345 35.7313C233.579 36.4612 232.666 36.8262 231.608 36.8262ZM233.433 34.8554C233.944 34.3444 234.163 33.7605 234.163 32.994C234.163 32.2276 233.907 31.6436 233.433 31.1327C232.958 30.6217 232.338 30.4028 231.608 30.4028C230.878 30.4028 230.294 30.6582 229.783 31.1327C229.272 31.6436 229.053 32.2276 229.053 32.994C229.053 33.7605 229.309 34.3444 229.783 34.8554C230.294 35.3663 230.878 35.5853 231.608 35.5853C232.338 35.6218 232.958 35.3663 233.433 34.8554Z" fill="#151515"/>
<path d="M243.617 30.2928C244.347 31.0227 244.712 31.9351 244.712 32.9935C244.712 34.0519 244.347 34.9644 243.617 35.7308C242.887 36.4607 242.011 36.8257 240.989 36.8257C239.785 36.8257 238.872 36.3512 238.215 35.3658V39.5265H236.938V29.3074H238.215V30.5482C238.836 29.5993 239.748 29.0884 240.989 29.0884C242.011 29.1614 242.887 29.5628 243.617 30.2928ZM242.668 34.8914C243.179 34.3804 243.398 33.76 243.398 33.03C243.398 32.3001 243.142 31.6796 242.668 31.1687C242.157 30.6577 241.573 30.4023 240.843 30.4023C240.113 30.4023 239.493 30.6577 238.982 31.1687C238.471 31.6796 238.252 32.2636 238.252 33.03C238.252 33.7965 238.507 34.3804 238.982 34.8914C239.493 35.4023 240.077 35.6213 240.843 35.6213C241.573 35.6213 242.157 35.3658 242.668 34.8914Z" fill="#151515"/>
<path d="M256.828 32.1181V36.6437H255.551V32.1546C255.551 31.0232 254.93 30.3663 253.945 30.3663C252.85 30.3663 252.157 31.0962 252.157 32.5926V36.6437H250.879V32.1546C250.879 31.0232 250.295 30.3663 249.346 30.3663C248.288 30.3663 247.485 31.0962 247.485 32.5926V36.6437H246.208V29.3443H247.485V30.3298C247.996 29.5633 248.726 29.1619 249.675 29.1619C250.66 29.1619 251.354 29.5633 251.828 30.4028C252.339 29.5633 253.105 29.1619 254.127 29.1619C255.733 29.1619 256.828 30.2933 256.828 32.1181Z" fill="#151515"/>
<path d="M259.493 33.5774C259.749 34.8912 260.734 35.6212 262.121 35.6212C263.07 35.6212 263.8 35.2562 264.238 34.5628L265.333 35.1832C264.603 36.2781 263.544 36.8256 262.121 36.8256C260.953 36.8256 260.004 36.4606 259.274 35.7307C258.544 35.0007 258.179 34.0883 258.179 32.9569C258.179 31.862 258.544 30.9496 259.238 30.2197C259.968 29.4897 260.88 29.1248 262.011 29.1248C263.07 29.1248 263.946 29.4897 264.639 30.2562C265.333 30.9861 265.661 31.8985 265.661 32.9569C265.661 33.1394 265.661 33.3219 265.625 33.5409H259.493V33.5774ZM259.493 32.4825H264.384C264.165 31.0956 263.216 30.3656 262.048 30.3656C260.661 30.3656 259.712 31.2051 259.493 32.4825Z" fill="#151515"/>
<path d="M273.58 32.1911V36.6802H272.303V32.2641C272.303 31.0962 271.61 30.4027 270.478 30.4027C269.201 30.4027 268.361 31.1692 268.361 32.8115V36.6802H267.084V29.3808H268.361V30.4392C268.872 29.5998 269.675 29.1983 270.734 29.1983C272.449 29.1618 273.58 30.3297 273.58 32.1911Z" fill="#151515"/>
<path d="M279.31 30.5833H277.375V34.5249C277.375 35.6563 278.032 35.5468 279.31 35.5104V36.6417C277.083 36.9337 276.098 36.3498 276.098 34.5249V30.5833H274.638V29.3424H276.098V27.6636L277.375 27.2986V29.3424H279.31V30.5833Z" fill="#151515"/>
<path d="M151.095 50C140.219 50 131.387 41.1678 131.387 30.2917C131.387 19.4157 140.219 10.5835 151.095 10.5835C161.972 10.5835 170.804 19.4157 170.804 30.2917C170.804 41.1678 161.972 50 151.095 50ZM151.095 16.423C143.431 16.423 137.227 22.6274 137.227 30.2917C137.227 37.9561 143.431 44.1605 151.095 44.1605C158.76 44.1605 164.964 37.9561 164.964 30.2917C164.964 22.6274 158.76 16.423 151.095 16.423Z" fill="#E2E7D5"/>
<path d="M127.008 48.1769H121.168V17.5197H117.518L109.599 45.2937C109.124 47.009 107.555 48.1769 105.767 48.1769C104.27 48.1769 102.92 47.3375 102.226 46.0236L90.5109 23.6876V48.1769H84.6714V15.5123C84.6714 13.3955 86.3867 11.6802 88.5035 11.6802C89.9269 11.6802 91.2408 12.4831 91.8977 13.724L105.256 39.2352L113.139 11.6802H127.008V48.1769Z" fill="#E2E7D5"/>
<path d="M30.2558 48.1769C28.577 48.1769 27.0076 47.301 26.1682 45.8776L9.30668 17.5197H5.83948V48.1769H0V11.6802H12.5914L29.1974 39.5637V11.6802H35.0369V43.3959C35.0369 46.0236 32.8836 48.1769 30.2558 48.1769Z" fill="#E2E7D5"/>
<path d="M59.8562 48.9069C49.3817 48.9069 40.8779 40.4031 40.8779 29.9286V11.6802H46.7174V29.9286C46.7174 37.1914 52.5934 43.0674 59.8562 43.0674C67.1191 43.0674 72.9951 37.1914 72.9951 29.9286V11.6802H78.8346V29.9286C78.8346 40.4031 70.3308 48.9069 59.8562 48.9069Z" fill="#E2E7D5"/>
</svg>
