<svg width="173" height="80" viewBox="0 0 173 80" fill="none" xmlns="http://www.w3.org/2000/svg">
<g id="Frame" clip-path="url(#clip0_320_282)">
<path id="Vector" d="M0 55.9642V32.4001H7.54051V40.8832H20.1473V32.4001H27.6878V55.9642H20.1473V46.7742H7.54051V55.9642H0Z" fill="#E2E7D5"/>
<path id="Vector_2" d="M48.66 32.0474C52.3124 32.0474 55.3757 32.6365 57.7321 33.9325C59.7351 34.9929 61.1489 36.5246 62.2093 38.4097C63.034 39.9413 63.3875 41.7087 63.3875 43.7116V44.6542C63.3875 46.068 63.1519 47.364 62.6806 48.7779C62.2093 50.0739 61.5024 51.3699 60.442 52.4303C57.8499 55.1402 53.9619 56.4362 48.66 56.4362H47.2461C43.5937 56.4362 40.5303 55.7293 38.1739 54.4333C36.171 53.2551 34.6393 51.8412 33.6968 49.8383C32.872 48.3066 32.5186 46.5393 32.5186 44.6542V43.5938C32.5186 41.5908 32.872 39.8235 33.6968 38.2919C34.6393 36.4067 36.171 34.8751 38.1739 33.8147C40.5303 32.5187 43.4759 31.9296 47.2461 31.9296H48.66V32.0474ZM55.3757 43.8294C55.3757 42.1799 54.9044 40.8839 53.9619 39.8235C52.6658 38.5275 50.6629 37.8206 47.8352 37.8206C45.0075 37.8206 43.0046 38.5275 41.7085 39.8235C40.766 40.7661 40.2947 42.1799 40.2947 43.8294V44.3007C40.2947 45.9502 40.766 47.2462 41.7085 48.3066C43.0046 49.7204 45.0075 50.4274 47.7174 50.4274C50.5451 50.4274 52.548 49.7204 53.8441 48.3066C54.7866 47.2462 55.2579 45.9502 55.2579 44.3007V43.8294H55.3757Z" fill="#E2E7D5"/>
<path id="Vector_3" d="M75.051 55.9642V38.2912H65.7432V32.4001H91.8993V38.2912H82.5915V55.9642H75.051Z" fill="#E2E7D5"/>
<path id="Vector_4" d="M96.377 32.4001H118.998V37.8199H103.8V41.2367H118.409V46.7742H103.8V50.4266H119.116V55.9642H96.377V32.4001Z" fill="#E2E7D5"/>
<path id="Vector_5" d="M123.593 32.4001H131.133V49.8375H141.855V55.9642H123.593V32.4001Z" fill="#E2E7D5"/>
<path id="Vector_6" d="M158.704 56.3184C155.052 56.3184 152.106 55.8471 150.104 54.9045C148.336 54.1976 147.158 53.1372 146.451 51.7234C145.98 50.7808 145.744 49.7204 145.744 48.3066V48.071H153.874C153.874 48.8957 154.227 49.4848 154.816 49.9561C155.641 50.7808 157.173 51.1343 159.176 51.1343H159.411C161.414 51.1343 162.946 50.8986 163.771 50.3095C164.124 50.0739 164.36 49.8383 164.478 49.6026C164.595 49.367 164.595 49.0135 164.595 48.6601C164.595 48.3066 164.478 48.071 164.36 47.8353C164.242 47.5997 164.006 47.364 163.653 47.1284C162.946 46.6571 161.65 46.5393 159.883 46.4215L156.701 46.3036C152.813 46.1858 149.986 45.4789 148.336 44.0651C146.805 42.8869 146.098 41.3552 146.098 39.2344V38.9988C146.098 36.7602 146.922 35.1107 148.454 33.9325C150.457 32.5187 153.756 31.9296 158.351 31.9296H159.529C164.478 31.9296 167.894 32.7543 169.897 34.286C171.311 35.4642 172.018 36.9958 172.018 39.1166V39.3523H164.006C163.888 38.9988 163.889 38.7631 163.771 38.5275C163.653 38.2919 163.417 38.0562 163.064 37.8206C162.239 37.2315 160.943 36.9958 159.058 36.9958H158.822C156.937 36.9958 155.641 37.2315 154.934 37.5849C154.581 37.7028 154.345 37.9384 154.227 38.174C154.109 38.4097 153.992 38.6453 153.992 38.9988C153.992 39.5879 154.227 40.0592 154.816 40.4126C155.523 40.8839 156.701 41.0017 158.351 41.1196L161.65 41.2374C165.774 41.3552 168.601 42.0621 170.369 43.3581C171.076 43.9472 171.665 44.6542 172.018 45.4789C172.372 46.3036 172.489 47.2462 172.489 48.3066V48.6601C172.489 50.0739 172.254 51.3699 171.665 52.3125C170.958 53.6085 169.662 54.5511 168.012 55.258C166.009 56.0827 163.182 56.4362 159.765 56.4362H158.704V56.3184Z" fill="#E2E7D5"/>
<path id="Vector_7" d="M26.1562 14.3741C25.3314 13.4316 24.0354 12.8425 22.2681 12.6068C23.7998 12.2534 24.978 11.6643 25.9205 10.7217C26.9809 9.66132 27.4522 8.48311 27.4522 6.95145V6.71581C27.4522 4.83069 26.8631 3.41684 25.8027 2.47428C24.1532 1.06044 21.4433 0.353516 17.5553 0.353516H0V23.6819C1.29603 23.5641 2.59205 23.3285 4.12372 23.2107C5.30193 23.0928 6.48013 22.975 7.65834 22.8572V16.3771H15.6701C17.3196 16.3771 18.4978 16.7305 19.2048 17.3196C19.5582 17.6731 19.7939 18.0266 19.9117 18.6157C20.0295 19.2048 20.1473 19.7939 20.1473 20.6186V22.0324C22.7394 21.9146 25.3314 21.7968 27.8057 21.679V18.6157C27.6878 16.7305 27.0987 15.4345 26.1562 14.3741ZM19.5582 8.12965C19.5582 8.83658 19.3226 9.42568 18.9691 9.66132C18.4978 10.2504 17.6731 10.4861 16.4949 10.4861H7.54052V6.00889H16.4949C17.5553 6.00889 18.38 6.24453 18.9691 6.59799C19.3226 6.95145 19.5582 7.42273 19.5582 8.12965Z" fill="#E2E7D5"/>
<path id="Vector_8" d="M35.2275 0.353516V21.4433C37.8196 21.4433 40.2938 21.4433 42.768 21.5612V0.353516H35.2275Z" fill="#E2E7D5"/>
<path id="Vector_9" d="M77.5252 12.489C76.5827 11.6643 75.2866 11.193 73.6372 10.9574C74.1084 10.8396 74.5797 10.7217 75.1688 10.4861C75.6401 10.2505 76.1114 10.0148 76.5827 9.66135C77.6431 8.71879 78.1143 7.6584 78.1143 6.24456V5.8911C78.1143 4.24161 77.5252 2.94559 76.347 2.00302C74.9332 0.82482 72.5768 0.235718 69.5134 0.235718H51.0156V21.679C55.2572 21.9147 59.3809 22.1503 63.1511 22.3859C66.2145 22.6216 70.3382 22.8572 75.051 23.0929C75.9936 22.7394 76.8183 22.2681 77.4074 21.7968C78.7034 20.6186 79.4104 19.087 79.4104 17.084V16.7306C79.4104 14.9633 78.7034 13.5494 77.5252 12.489ZM58.5561 5.53763H67.7461C68.6887 5.53763 69.2778 5.65546 69.6313 6.00892C69.9847 6.36238 70.2204 6.83366 70.2204 7.42276V7.54058C70.2204 8.83661 69.3956 9.42571 67.7461 9.42571H58.5561V5.53763ZM71.1629 16.2593C71.1629 16.8484 70.9273 17.3197 70.5738 17.6731C70.1025 18.1444 69.3956 18.3801 68.3352 18.3801H58.5561V14.1385H68.3352C69.3956 14.1385 70.1025 14.3742 70.5738 14.7276C70.9273 15.0811 71.1629 15.4345 71.1629 16.1415V16.2593Z" fill="#E2E7D5"/>
<path id="Vector_10" d="M104.035 0.353516H94.0202L83.5342 23.4463L91.0747 23.6819L92.7242 19.7939H105.213L106.98 23.6819L114.992 23.4463L104.035 0.353516ZM95.0806 14.6098L98.9687 5.77325L102.975 14.6098H95.0806Z" fill="#E2E7D5"/>
<path id="Vector_11" d="M145.508 13.1959C145.155 12.3711 144.683 11.6642 143.859 11.0751C142.091 9.77909 139.146 9.07216 135.14 8.95434L131.841 8.83652C130.191 8.83652 129.013 8.60088 128.306 8.1296C127.717 7.89396 127.481 7.42268 127.481 6.71576C127.481 6.3623 127.599 6.12666 127.717 5.89102C127.835 5.65538 128.071 5.41973 128.424 5.30191C129.131 4.94845 130.545 4.71281 132.312 4.71281H132.548C134.433 4.71281 135.729 4.94845 136.554 5.53755C136.907 5.7732 137.143 6.00884 137.261 6.24448C137.378 6.48012 137.496 6.83358 137.496 7.06922H145.508V7.18704C145.508 5.06627 144.801 3.53461 143.387 2.35641C141.384 0.824742 137.968 0 133.019 0H131.841C127.246 0 123.947 0.706922 121.944 2.12077C120.294 3.29897 119.587 4.94845 119.587 7.18704V7.42268C119.587 9.42563 120.294 11.0751 121.826 12.2533C123.476 13.6672 126.303 14.3741 130.191 14.4919L133.373 14.6097C135.14 14.6097 136.436 14.8454 137.143 15.3166C137.496 15.5523 137.732 15.6701 137.85 16.0236C137.968 16.2592 138.085 16.6127 138.085 16.8483C138.085 17.2018 137.968 17.5552 137.85 17.7909C137.732 18.0265 137.496 18.2621 137.143 18.4978C136.318 19.0869 134.904 19.3225 132.783 19.3225H132.548C130.545 19.3225 129.131 18.9691 128.188 18.1443C127.599 17.673 127.364 16.9661 127.246 16.2592H119.116V16.4948C119.116 17.7909 119.352 18.9691 119.823 19.9116C120.53 21.2077 121.826 22.268 123.476 23.0928C123.593 23.0928 123.593 23.0928 123.711 23.2106C131.487 22.6215 138.321 21.6789 143.387 20.0295C144.094 19.7938 144.801 19.676 145.39 19.4404C145.744 18.6156 145.861 17.673 145.861 16.6127V16.2592C145.979 14.9632 145.744 14.0206 145.508 13.1959Z" fill="#E2E7D5"/>
<path id="Vector_12" d="M110.398 71.1641H0.707031V73.7561H110.398V71.1641Z" fill="#E2E7D5"/>
<path id="Vector_13" d="M126.068 74.6983C126.303 74.5805 126.421 74.3448 126.539 74.227C126.657 74.1092 126.775 73.8735 126.775 73.7557H124.065L124.418 71.9884H130.074L129.013 77.526H126.892C126.892 77.2903 126.892 77.0547 126.892 76.8191C126.892 76.5834 126.892 76.3478 126.892 76.1121C126.775 76.23 126.657 76.3478 126.539 76.4656C126.186 76.9369 125.596 77.1725 124.772 77.4082C124.3 77.526 123.829 77.6438 123.358 77.6438H123.122C121.355 77.6438 120.059 77.1725 119.116 76.23C118.645 75.7587 118.409 75.2874 118.174 74.8161C117.938 74.227 117.82 73.6379 117.82 73.0488C117.82 72.3419 117.938 71.635 118.174 70.928C118.409 70.2211 118.763 69.632 119.234 69.1607C119.705 68.5716 120.412 68.1004 121.237 67.8647C122.062 67.5113 123.004 67.3934 124.065 67.3934H124.536C126.657 67.3934 128.071 67.7469 129.013 68.4538C129.72 69.0429 130.074 69.8677 130.074 70.928H127.246C127.246 70.8102 127.128 70.6924 127.128 70.5746C127.01 70.4568 126.892 70.3389 126.775 70.2211C126.303 69.8677 125.479 69.632 124.418 69.632C123.122 69.632 122.062 69.9855 121.473 70.8102C121.237 71.1637 121.001 71.3993 121.001 71.8706C120.884 72.2241 120.884 72.5775 120.884 72.931C120.884 73.2845 120.884 73.5201 121.001 73.8736C121.119 74.227 121.237 74.4627 121.473 74.6983C121.944 75.2874 122.769 75.523 123.711 75.523C124.654 75.4052 125.479 75.1696 126.068 74.6983Z" fill="#E2E7D5"/>
<path id="Vector_14" d="M136.906 72.8135C136.906 72.2243 136.553 71.8709 135.963 71.8709C135.61 71.8709 135.257 71.9887 135.021 72.3422C134.785 72.5778 134.667 73.0491 134.55 73.5204L133.725 77.5263H131.133L132.547 69.9858H135.139L134.903 71.164C135.139 70.8105 135.374 70.5749 135.61 70.3392C136.081 69.9858 136.67 69.7501 137.377 69.7501H137.495C138.202 69.7501 138.791 69.9858 139.145 70.457C139.498 70.9283 139.616 71.3996 139.616 72.1065C139.616 72.46 139.498 72.9313 139.38 73.5204H136.67V73.4026C136.906 73.1669 136.906 73.0491 136.906 72.8135Z" fill="#E2E7D5"/>
<path id="Vector_15" d="M145.038 77.6441C143.389 77.6441 142.211 77.2906 141.504 76.4659C141.033 75.8768 140.797 75.052 140.797 74.1095C140.797 73.5204 140.915 72.9313 141.15 72.3422C141.504 71.6352 141.975 71.0461 142.564 70.5749C143.389 70.1036 144.449 69.7501 145.628 69.7501H146.099C147.748 69.7501 148.926 70.1036 149.633 70.9283C150.105 71.5174 150.458 72.3422 150.458 73.2847C150.458 73.9917 150.34 74.5808 150.105 75.052C149.751 75.759 149.28 76.3481 148.691 76.8193C147.866 77.2906 146.806 77.6441 145.51 77.6441H145.038ZM143.742 75.1699C144.096 75.5233 144.567 75.759 145.156 75.759H145.274C146.099 75.759 146.688 75.5233 147.159 74.9342C147.277 74.6986 147.395 74.4629 147.513 74.2273C147.63 73.9917 147.63 73.756 147.63 73.5204C147.63 73.0491 147.513 72.6956 147.277 72.3422C146.924 71.9887 146.452 71.7531 145.863 71.7531H145.745C144.921 71.7531 144.331 71.9887 143.86 72.5778C143.742 72.8134 143.625 73.0491 143.507 73.2847C143.389 73.5204 143.389 73.756 143.389 73.9916C143.389 74.4629 143.507 74.8164 143.742 75.1699Z" fill="#E2E7D5"/>
<path id="Vector_16" d="M160 77.4084H157.408L157.643 76.2302C157.408 76.5837 157.054 76.8193 156.701 77.055C156.112 77.4084 155.405 77.6441 154.698 77.6441H154.58C154.109 77.6441 153.637 77.5263 153.284 77.4084C152.931 77.1728 152.577 76.9372 152.341 76.5837C151.988 76.1124 151.87 75.5233 151.87 74.8164C151.87 74.5808 151.87 74.3451 151.988 74.1095L152.813 69.8679H155.405L154.698 73.6382C154.698 73.756 154.698 73.8738 154.698 74.1095C154.698 74.4629 154.816 74.6986 154.933 74.9342C155.169 75.2877 155.64 75.4055 156.229 75.4055C156.819 75.4055 157.29 75.1699 157.643 74.8164C157.997 74.4629 158.232 74.1095 158.35 73.5204L159.057 69.7501H161.649L160 77.4084Z" fill="#E2E7D5"/>
<path id="Vector_17" d="M166.009 70.9283C166.245 70.6927 166.598 70.457 166.952 70.2214C167.541 69.9858 168.13 69.7501 168.837 69.7501H168.955C170.133 69.7501 170.958 70.1036 171.547 70.8105C172.136 71.3996 172.371 72.3422 172.371 73.4026C172.371 73.8738 172.254 74.3451 172.136 74.8164C172.018 75.2877 171.782 75.759 171.429 76.1124C170.604 77.055 169.544 77.5263 168.13 77.5263H168.012C167.305 77.5263 166.598 77.4084 166.009 77.1728C165.538 76.9372 165.302 76.7015 165.067 76.4659L164.36 80.0005H161.768L163.771 69.8679H166.363L166.009 70.9283ZM167.423 75.6411C168.248 75.6411 168.837 75.4055 169.19 74.8164C169.308 74.5808 169.426 74.3451 169.544 74.1095C169.662 73.8738 169.662 73.6382 169.662 73.4026C169.662 72.9313 169.544 72.5778 169.308 72.2243C168.955 71.8709 168.483 71.7531 167.894 71.7531H167.776C167.069 71.7531 166.48 71.9887 166.009 72.46C165.773 72.6956 165.656 72.9313 165.538 73.1669C165.42 73.4026 165.42 73.6382 165.42 73.9917C165.42 74.4629 165.538 74.8164 165.891 75.1699C166.245 75.5233 166.716 75.6411 167.305 75.6411H167.423Z" fill="#E2E7D5"/>
</g>
<defs>
<clipPath id="clip0_320_282">
<rect width="172.371" height="80" fill="white"/>
</clipPath>
</defs>
</svg>
