<svg width="1030" height="550" viewBox="0 0 1030 550" fill="none" xmlns="http://www.w3.org/2000/svg">
<mask id="mask0_320_193" style="mask-type:alpha" maskUnits="userSpaceOnUse" x="0" y="0" width="930" height="500">
<rect width="930" height="500" rx="30" fill="#E2E7D5"/>
</mask>
<g mask="url(#mask0_320_193)">
<path d="M614.52 1233.16C561.103 1238.28 530.633 1302.17 472.334 1310.57C502.647 1107.84 407.966 863.607 563.274 702.391C654.764 580.119 829.741 624.35 957.534 685.293C766.001 732.708 644.04 918.876 621.191 1116.96C616.132 1185.82 614.603 1233.05 614.603 1233.05L614.52 1233.16Z" stroke="#00533E" stroke-miterlimit="10"/>
<path d="M1966.91 581.954C1920.23 627.653 1865.81 677.443 1797.08 719.474C1381.06 870.622 570.392 957.598 489.389 532.868C427.977 244.17 1044.48 324.007 1335.97 204.872C1406.61 180.221 1467.21 149.278 1526.32 121.724C1585.43 94.1695 1643.88 70.2808 1699.45 51.1715C1935.37 -32.3887 2093.95 242.319 2023.12 471.606C2011.53 508.881 1993.02 545.663 1966.83 582.066L1966.91 581.954Z" stroke="#00533E" stroke-miterlimit="10"/>
</g>
</svg>
