<svg width="50" height="50" viewBox="0 0 50 50" fill="none" xmlns="http://www.w3.org/2000/svg">
<circle cx="25" cy="25" r="25" fill="#E2E7D5"/>
<path d="M36.7582 19.4371C38.0698 18.7934 38.612 17.2091 37.9684 15.8981C37.3264 14.5859 35.7416 14.0442 34.4299 14.6873C33.1188 15.3299 32.577 16.9143 33.2197 18.2254C33.8623 19.537 35.4466 20.0792 36.7582 19.4371Z" fill="#00533E"/>
<path d="M29.5811 22.8462C29.37 23.8749 29.4626 24.7958 30.4875 25.0779C30.4875 25.0779 35.2022 26.3728 35.2042 26.3734L35.2068 26.3739C35.9726 26.5836 36.7565 26.1328 36.9649 25.3733C37.1735 24.6126 36.7275 23.8262 35.9668 23.6162C35.9659 23.6156 35.9654 23.6156 35.9643 23.6151L33.5599 22.9548L32.6094 22.3205C32.8972 20.9209 32.7947 21.4177 33.0508 20.1732C33.1858 19.5177 32.6834 18.6796 32.389 18.0783C31.8349 16.9489 30.471 16.4821 29.3421 17.0358L27.763 17.8099L30.2817 19.4919C30.2238 19.6916 30.0871 20.3828 30.0417 20.6054L18.9184 13.1792C18.4331 12.8531 17.7745 12.9846 17.4491 13.4719C17.1241 13.9583 17.255 14.6164 17.7418 14.9413L29.5811 22.8462Z" fill="#00533E"/>
<path d="M38.3135 35.2696C38.014 34.7678 37.3646 34.6048 36.8601 34.9049L35.4011 35.7778L25.7495 32.4561L30.3005 28.6221C31.1656 27.8941 31.1211 26.541 30.2038 25.8721L27.6572 24.0161L28.5714 23.5681L28.677 23.5163L23.3617 19.9675L23.3606 19.968C22.4732 20.4031 21.9088 21.2279 21.7607 22.1343C21.5771 23.253 22.0448 24.2262 23.1023 25.0235L26.3419 27.3844L21.931 31.1418L12.405 27.8631C11.8504 27.6711 11.2481 27.9659 11.0582 28.5196C10.8673 29.0733 11.1617 29.6761 11.7148 29.8669L35.1769 37.9421C35.2893 37.9809 35.4062 38 35.5221 38C35.7115 38 35.8998 37.9493 36.0665 37.8494L37.9488 36.723C38.4507 36.4229 38.6141 35.772 38.3135 35.2696Z" fill="#00533E"/>
</svg>
