<svg width="50" height="50" viewBox="0 0 50 50" fill="none" xmlns="http://www.w3.org/2000/svg">
<circle cx="25" cy="25" r="25" fill="#E2E7D5"/>
<path d="M23.4148 18.2273C22.437 18.5931 21.9397 19.6834 22.306 20.6615C22.6723 21.6398 23.7629 22.1365 24.7407 21.7707C25.7203 21.4041 26.2149 20.3146 25.8487 19.336C25.4831 18.3574 24.3942 17.861 23.4148 18.2273Z" fill="#00533E"/>
<path d="M33.9266 29.8375C33.4525 29.802 33.0567 30.1473 33.0195 30.6112L32.8763 32.4174L31.3298 33.4553L29.0102 29.991C28.7782 29.644 28.3896 29.4342 27.9723 29.43L25.5385 29.4065V28.4476C25.6686 28.5254 25.8167 28.5706 25.9698 28.5706C26.0545 28.5706 26.1394 28.558 26.2233 28.5316L28.8458 27.7052C29.2893 27.5652 29.5362 27.092 29.3963 26.6479C29.2564 26.2038 28.7857 25.957 28.3386 26.0976L26.3295 26.7306L25.5401 25.5075V24.7895C25.541 23.8614 24.8007 23.1083 23.861 23.1083C22.3263 23.1083 22.1368 24.3514 22.1368 24.7971C22.1368 24.7971 22.1357 30.426 22.1357 30.638C22.1357 31.3364 22.6898 31.9076 23.3876 31.9146L27.281 31.952L29.2308 34.8646L26.8579 36.4576C26.4718 36.717 26.3689 37.2404 26.6282 37.6269C26.7904 37.8693 27.0571 38.0001 27.3287 38.0001C27.4901 38.0001 27.6537 37.954 27.7979 37.857L34.1546 33.59C34.3679 33.4468 34.5044 33.2135 34.5251 32.9571L34.7003 30.7446C34.7367 30.2803 34.3908 29.8745 33.9266 29.8375Z" fill="#00533E"/>
<path d="M29.9651 13.5412C29.7988 13.1071 29.3125 12.8889 28.8761 13.0565L15.5411 18.1745C15.1065 18.3411 14.8893 18.8288 15.0563 19.2634C15.1848 19.5984 15.5041 19.8046 15.8432 19.8046C15.9436 19.8046 16.0456 19.7865 16.1452 19.7482L19.6367 18.4083V30.9078C19.6367 32.9206 21.2748 34.5585 23.288 34.5585H26.0685C26.5343 34.5585 26.9114 34.1812 26.9114 33.7157C26.9114 33.2503 26.5343 32.8729 26.0685 32.8729H23.288C22.204 32.8729 21.3225 31.9913 21.3225 30.9078V17.7613L29.4801 14.6303C29.9148 14.4636 30.1322 13.9759 29.9651 13.5412Z" fill="#00533E"/>
</svg>
