<svg width="50" height="50" viewBox="0 0 50 50" fill="none" xmlns="http://www.w3.org/2000/svg">
<circle cx="25" cy="25" r="25" fill="#E2E7D5"/>
<path d="M33.8404 28.1643V17.4601C33.839 16.2776 33.3686 15.144 32.5325 14.3079C31.6964 13.4718 30.5627 13.0014 29.3803 13H20.4601C19.2776 13.0014 18.144 13.4718 17.3079 14.3079C16.4718 15.144 16.0014 16.2776 16 17.4601V28.1643C16.0017 29.1845 16.3527 30.1734 16.9946 30.9663C17.6364 31.7593 18.5305 32.3085 19.5279 32.5227L17.0231 36.6198C16.9578 36.7198 16.9131 36.8318 16.8919 36.9494C16.8707 37.0669 16.8733 37.1876 16.8995 37.3041C16.9258 37.4206 16.9752 37.5307 17.0448 37.6278C17.1144 37.7249 17.2028 37.807 17.3047 37.8692C17.4067 37.9315 17.5201 37.9727 17.6383 37.9903C17.7564 38.0079 17.8769 38.0016 17.9926 37.9717C18.1082 37.9419 18.2167 37.8891 18.3116 37.8165C18.4065 37.744 18.4858 37.6531 18.5449 37.5493L19.3754 36.1925H30.4659L31.2955 37.5493C31.3545 37.6531 31.4339 37.744 31.5288 37.8165C31.6237 37.8891 31.7322 37.9419 31.8478 37.9717C31.9635 38.0016 32.084 38.0079 32.2021 37.9903C32.3203 37.9727 32.4337 37.9315 32.5356 37.8692C32.6376 37.807 32.726 37.7249 32.7956 37.6278C32.8652 37.5307 32.9146 37.4206 32.9409 37.3041C32.9671 37.1876 32.9697 37.0669 32.9485 36.9494C32.9272 36.8318 32.8826 36.7198 32.8172 36.6198L30.3124 32.5227C31.3099 32.3085 32.2039 31.7593 32.8458 30.9663C33.4877 30.1734 33.8387 29.1845 33.8404 28.1643ZM20.4601 29.0563C20.2837 29.0563 20.1112 29.004 19.9645 28.906C19.8178 28.808 19.7035 28.6687 19.636 28.5057C19.5685 28.3427 19.5508 28.1633 19.5852 27.9903C19.6196 27.8173 19.7046 27.6583 19.8293 27.5336C19.9541 27.4088 20.113 27.3239 20.2861 27.2894C20.4591 27.255 20.6385 27.2727 20.8015 27.3402C20.9645 27.4077 21.1038 27.5221 21.2018 27.6687C21.2998 27.8154 21.3521 27.9879 21.3521 28.1643C21.3521 28.4009 21.2581 28.6278 21.0908 28.7951C20.9236 28.9624 20.6967 29.0563 20.4601 29.0563ZM20.4663 34.4085L21.5573 32.6244H28.284L29.3749 34.4085H20.4663ZM28.4883 28.1643C28.4883 27.9879 28.5406 27.8154 28.6386 27.6687C28.7366 27.5221 28.8759 27.4077 29.0389 27.3402C29.2019 27.2727 29.3813 27.255 29.5543 27.2894C29.7273 27.3239 29.8863 27.4088 30.011 27.5336C30.1358 27.6583 30.2207 27.8173 30.2552 27.9903C30.2896 28.1633 30.2719 28.3427 30.2044 28.5057C30.1369 28.6687 30.0226 28.808 29.8759 28.906C29.7292 29.004 29.5567 29.0563 29.3803 29.0563C29.1437 29.0563 28.9168 28.9624 28.7495 28.7951C28.5822 28.6278 28.4883 28.4009 28.4883 28.1643ZM31.1643 22.8122C31.1643 23.2854 30.9764 23.7391 30.6418 24.0737C30.3072 24.4083 29.8534 24.5962 29.3803 24.5962H20.4601C19.9869 24.5962 19.5332 24.4083 19.1986 24.0737C18.864 23.7391 18.6761 23.2854 18.6761 22.8122V17.4601C18.6761 16.9869 18.864 16.5332 19.1986 16.1986C19.5332 15.864 19.9869 15.6761 20.4601 15.6761H29.3803C29.8534 15.6761 30.3072 15.864 30.6418 16.1986C30.9764 16.5332 31.1643 16.9869 31.1643 17.4601V22.8122Z" fill="#00533E"/>
</svg>
