<svg width="50" height="50" viewBox="0 0 50 50" fill="none" xmlns="http://www.w3.org/2000/svg">
<circle cx="25" cy="25" r="25" fill="#E2E7D5"/>
<path d="M34.6431 17.7876C33.7528 18.8672 32.3087 18.8672 31.4113 17.7876C30.4509 16.6309 29.168 16 27.773 16C26.385 16 25.0951 16.6309 24.1346 17.7876C23.2443 18.8672 21.7932 18.8672 20.9029 17.7876C19.9425 16.6309 18.6596 16 17.2646 16C15.8765 16 14.5866 16.6309 13.6262 17.7876C13.1776 18.3204 12.5817 18.5868 12.0068 18.5868V21.2577C13.3949 21.2577 14.6848 20.6128 15.6452 19.4561C16.5355 18.3765 17.9866 18.3765 18.8769 19.4561C19.8373 20.6128 21.1202 21.2577 22.5153 21.2577C23.9033 21.2577 25.1932 20.6128 26.1536 19.4561C27.0439 18.3765 28.4951 18.3765 29.3854 19.4561C30.3458 20.6128 31.6357 21.2577 33.0237 21.2577C34.4117 21.2577 35.7016 20.6128 36.662 19.4561C37.1107 18.9163 37.6996 18.6429 38.2814 18.6429V16C36.8864 16 35.6035 16.6309 34.6431 17.7876Z" fill="#00533E"/>
<path d="M34.6431 30.9249C33.7528 32.0045 32.3087 32.0045 31.4113 30.9249C30.4509 29.7682 29.168 29.1373 27.773 29.1373C26.385 29.1373 25.0951 29.7682 24.1346 30.9249C23.2443 32.0045 21.7932 32.0045 20.9029 30.9249C19.9425 29.7682 18.6596 29.1373 17.2646 29.1373C15.8765 29.1373 14.5866 29.7682 13.6262 30.9249C13.1776 31.4577 12.5817 31.7241 12.0068 31.7241V34.395C13.3949 34.395 14.6848 33.75 15.6452 32.5933C16.5355 31.5138 17.9866 31.5138 18.8769 32.5933C19.8373 33.75 21.1202 34.395 22.5153 34.395C23.9033 34.395 25.1932 33.75 26.1536 32.5933C27.0439 31.5138 28.4951 31.5138 29.3854 32.5933C30.3458 33.75 31.6357 34.395 33.0237 34.395C34.4117 34.395 35.7016 33.75 36.662 32.5933C37.1107 32.0536 37.6996 31.7802 38.2814 31.7802V29.1373C36.8864 29.1373 35.6035 29.7682 34.6431 30.9249Z" fill="#00533E"/>
<path d="M38.0222 22.5616C36.6342 22.5616 35.3443 23.1926 34.3839 24.3493C33.4936 25.4289 32.0494 25.4289 31.1521 24.3493C30.1917 23.1926 28.9088 22.5616 27.5138 22.5616C26.1257 22.5616 24.8359 23.1926 23.8754 24.3493C22.9851 25.4289 21.534 25.4289 20.6437 24.3493C19.6833 23.1926 18.3934 22.5616 17.0054 22.5616C15.6173 22.5616 14.3274 23.1926 13.367 24.3493C13.0515 24.7348 12.2804 25.1695 12 25.1274V27.8124C12.0911 27.8124 12.1753 27.8124 12.2524 27.7983C13.4581 27.6581 14.5517 27.0342 15.393 26.0247C16.2833 24.9451 17.7344 24.9451 18.6247 26.0247C19.5851 27.1814 20.875 27.8264 22.2631 27.8264C23.6511 27.8264 24.941 27.1814 25.9014 26.0247C26.7917 24.9451 28.2429 24.9451 29.1332 26.0247C30.0936 27.1814 31.3835 27.8264 32.7715 27.8264C34.1595 27.8264 35.4494 27.1814 36.4099 26.0247C36.8585 25.4849 37.4474 25.2115 38.0292 25.2115C38.1204 25.2115 38.2045 25.2115 38.2816 25.2396V22.5827C38.1975 22.5757 38.1204 22.5757 38.0222 22.5616Z" fill="#00533E"/>
</svg>
