<svg width="282" height="28" viewBox="0 0 282 28" fill="none" xmlns="http://www.w3.org/2000/svg">
<path d="M0.684142 0.399288C0.244337 0.399288 0 0.648842 0 1.09804V26.902C0 27.3512 0.244337 27.6007 0.684142 27.6007H4.98447C5.42427 27.6007 5.66861 27.3512 5.66861 26.902V20.3636H12.51C12.7055 20.3636 12.9498 20.3636 13.2919 20.3137L16.566 27.1016C16.7615 27.451 17.0547 27.6007 17.4456 27.6007H22.2346C22.6256 27.6007 22.8699 27.2513 22.6744 26.902L18.4718 18.6667C21.2573 17.0196 23.1631 13.9251 23.1631 10.3316C23.1631 4.69162 18.6184 0.399288 12.7055 0.399288H0.684142ZM5.66861 14.8734V5.88948H12.7055C15.7841 5.88948 17.4945 7.7861 17.4945 10.3316C17.4945 12.877 15.7841 14.8734 12.7055 14.8734H5.66861Z" fill="#FAFAFA"/>
<path d="M28.7332 0.399288C28.2934 0.399288 28.0491 0.648842 28.0491 1.09804V26.902C28.0491 27.3512 28.2934 27.6007 28.7332 27.6007H33.0335C33.4733 27.6007 33.7177 27.3512 33.7177 26.902V1.09804C33.7177 0.648842 33.4733 0.399288 33.0335 0.399288H28.7332Z" fill="#FAFAFA"/>
<path d="M44.7289 5.78966H52.8897C54.6 5.78966 55.6263 6.78788 55.6263 8.38503C55.6263 9.93226 54.4534 10.9804 52.8897 10.9804H44.7289V5.78966ZM58.4117 12.6774C60.2198 11.7291 61.246 9.98217 61.246 7.83601C61.246 3.64349 57.8253 0.399288 52.8408 0.399288H39.7933C39.3535 0.399288 39.1091 0.648842 39.1091 1.09804V26.902C39.1091 27.3512 39.3535 27.6007 39.7933 27.6007H53.867C59.3402 27.6007 63.0052 24.2567 63.0052 19.3155C63.0052 16.3708 61.3437 14.0749 58.4117 13.0267V12.6774ZM44.7289 16.3708H53.7204C56.1149 16.3708 57.3366 17.3191 57.3366 19.2656C57.3366 21.0125 56.0172 22.1604 53.7204 22.1604H44.7289V16.3708Z" fill="#FAFAFA"/>
<path d="M88.4815 26.902C88.677 27.3512 89.0191 27.6007 89.5077 27.6007H94.1501C94.5899 27.6007 94.8343 27.2014 94.6877 26.8021L83.6925 0.798576C83.5948 0.549018 83.3993 0.399288 83.0572 0.399288H77.4864C77.1443 0.399288 76.9488 0.549018 76.8511 0.798576L65.3184 26.902C65.1718 27.3512 65.3184 27.6007 65.8071 27.6007H70.6449C71.0359 27.6007 71.3291 27.4011 71.4757 27.0018L73.3326 22.2103H86.6246L88.4815 26.902ZM79.832 5.78966H80.3695L84.6699 16.9697H75.3851L79.832 5.78966Z" fill="#FAFAFA"/>
<path d="M109.291 0C102.889 0 98.2466 3.14439 98.2466 8.08556C98.2466 13.7255 102.596 15.7219 109.144 16.2709C114.08 16.7201 115.937 17.5686 115.937 19.5152C115.937 21.3619 114.08 22.6096 109.975 22.6096C106.114 22.6096 103.573 21.6613 100.885 19.5152C100.543 19.2157 100.201 19.2656 99.9081 19.6649L97.6113 22.8093C97.3181 23.2086 97.3181 23.5579 97.6602 23.8075C101.179 26.8021 104.99 28 109.877 28C116.572 28 121.556 24.8556 121.556 19.4153C121.556 13.7255 116.621 11.3797 109.779 10.7308C105.332 10.2816 103.866 9.48307 103.866 7.88592C103.866 6.33868 105.674 5.39037 108.997 5.39037C112.369 5.39037 115.204 6.38859 117.403 8.18538C117.794 8.53476 118.136 8.48485 118.429 8.13547L120.872 5.041C121.116 4.69162 121.068 4.39216 120.726 4.1426C117.598 1.49733 113.591 0 109.291 0Z" fill="#FAFAFA"/>
<path d="M135.574 0.399288C135.134 0.399288 134.89 0.648842 134.89 1.09804V26.902C134.89 27.3512 135.134 27.6007 135.574 27.6007H139.874C140.314 27.6007 140.559 27.3512 140.559 26.902V1.09804C140.559 0.648842 140.314 0.399288 139.874 0.399288H135.574Z" fill="#FAFAFA"/>
<path d="M169.553 27.6007C169.993 27.6007 170.237 27.3512 170.237 26.902V1.09804C170.237 0.648842 169.993 0.399288 169.553 0.399288H165.399C164.959 0.399288 164.715 0.648842 164.715 1.09804V10.631L165.057 19.066L164.813 19.1159L158.655 10.2317L151.325 0.748662C151.081 0.499108 150.788 0.399288 150.397 0.399288H146.634C146.194 0.399288 145.95 0.648842 145.95 1.09804V26.902C145.95 27.3512 146.194 27.6007 146.634 27.6007H150.788C151.228 27.6007 151.472 27.3512 151.472 26.902V17.3191L151.13 8.93405L151.374 8.88414L158.118 18.6168L164.813 27.2513C164.959 27.5009 165.204 27.6007 165.546 27.6007H169.553Z" fill="#FAFAFA"/>
<path d="M190.586 27.6007C190.928 27.6007 191.173 27.451 191.319 27.1016L202.657 1.09804C202.803 0.648842 202.657 0.399288 202.217 0.399288H197.281C196.841 0.399288 196.499 0.598932 196.353 1.04813L192.737 10.1319L188.583 21.4118H188.29L184.087 10.1818L180.275 1.09804C180.08 0.648842 179.689 0.399288 179.103 0.399288H174.558C174.02 0.399288 173.825 0.748662 174.02 1.19786L185.162 27.1016C185.309 27.451 185.602 27.6007 185.944 27.6007H190.586Z" fill="#FAFAFA"/>
<path d="M207.075 0.399288C206.733 0.399288 206.391 0.698752 206.391 1.09804V26.902C206.391 27.3512 206.635 27.6007 207.075 27.6007H227.257C227.697 27.6007 227.941 27.3512 227.941 26.902V22.8592C227.941 22.41 227.697 22.1604 227.257 22.1604H212.059V16.2709H225.058C225.498 16.2709 225.742 16.0214 225.742 15.5722V11.5793C225.742 11.1301 225.498 10.8806 225.058 10.8806H212.059V5.78966H226.866C227.306 5.78966 227.55 5.54011 227.55 5.09091V1.09804C227.55 0.648842 227.306 0.399288 226.866 0.399288H207.075Z" fill="#FAFAFA"/>
<path d="M243.226 0C236.824 0 232.182 3.14439 232.182 8.08556C232.182 13.7255 236.531 15.7219 243.079 16.2709C248.015 16.7201 249.872 17.5686 249.872 19.5152C249.872 21.3619 248.015 22.6096 243.91 22.6096C240.05 22.6096 237.509 21.6613 234.821 19.5152C234.479 19.2157 234.137 19.2656 233.844 19.6649L231.547 22.8093C231.254 23.2086 231.254 23.5579 231.596 23.8075C235.114 26.8021 238.926 28 243.812 28C250.507 28 255.492 24.8556 255.492 19.4153C255.492 13.7255 250.556 11.3797 243.715 10.7308C239.268 10.2816 237.802 9.48307 237.802 7.88592C237.802 6.33868 239.61 5.39037 242.933 5.39037C246.305 5.39037 249.139 6.38859 251.338 8.18538C251.729 8.53476 252.071 8.48485 252.364 8.13547L254.808 5.041C255.052 4.69162 255.003 4.39216 254.661 4.1426C251.534 1.49733 247.526 0 243.226 0Z" fill="#FAFAFA"/>
<path d="M258.641 0.399288C258.202 0.399288 257.957 0.648842 257.957 1.09804V5.19073C257.957 5.63993 258.202 5.88948 258.641 5.88948H267.144V26.902C267.144 27.3512 267.389 27.6007 267.828 27.6007H272.129C272.569 27.6007 272.813 27.3512 272.813 26.902V5.88948H281.316C281.756 5.88948 282 5.63993 282 5.19073V1.09804C282 0.648842 281.756 0.399288 281.316 0.399288H258.641Z" fill="#FAFAFA"/>
</svg>
