<svg width="29" height="20" viewBox="0 0 29 20" fill="none" xmlns="http://www.w3.org/2000/svg">
<path d="M18.4375 9.77823C18.8887 9.03736 19.3009 8.36334 19.7076 7.68931C20.0084 7.19912 20.2925 6.69778 20.61 6.21315C21.0278 5.56697 21.7129 5.55026 22.1808 6.15187C22.2421 6.22986 22.2978 6.31341 22.348 6.40254C24.2531 9.52199 26.1581 12.6414 28.0632 15.7665C28.7595 16.9084 28.6593 18.1673 27.8348 19.0809C27.2221 19.766 26.4255 20 25.5287 20C20.8774 20 16.226 20 11.5747 20C8.65023 20 5.73132 20 2.80684 20C1.74288 20 0.846038 19.6769 0.311275 18.6965C-0.206776 17.7384 -0.0396626 16.8416 0.528523 15.9447C3.65354 10.987 6.76742 6.01818 9.87016 1.04934C10.7447 -0.343269 12.0371 -0.35441 12.9172 1.04377C14.6385 3.75658 16.3486 6.4861 18.0531 9.21562C18.159 9.37716 18.2704 9.53313 18.4375 9.77823Z" fill="#E2E7D5"/>
</svg>
