<svg width="15" height="20" viewBox="0 0 15 20" fill="none" xmlns="http://www.w3.org/2000/svg">
<path d="M14.2723 12.1315V3.56808C14.2712 2.62211 13.8949 1.71522 13.226 1.04632C12.5571 0.377418 11.6502 0.00113312 10.7042 0H3.56808C2.62211 0.00113312 1.71522 0.377418 1.04632 1.04632C0.377418 1.71522 0.00113312 2.62211 0 3.56808V12.1315C0.00137446 12.9476 0.282169 13.7387 0.795664 14.3731C1.30916 15.0074 2.02439 15.4468 2.82235 15.6182L0.818517 18.8958C0.766214 18.9758 0.730508 19.0655 0.713519 19.1595C0.696529 19.2536 0.698601 19.3501 0.719612 19.4433C0.740623 19.5365 0.780145 19.6246 0.835833 19.7022C0.891521 19.7799 0.96224 19.8456 1.0438 19.8954C1.12535 19.9452 1.21608 19.9781 1.3106 19.9922C1.40512 20.0063 1.50151 20.0012 1.59404 19.9774C1.68658 19.9535 1.77338 19.9113 1.84928 19.8532C1.92519 19.7952 1.98867 19.7225 2.03594 19.6394L2.70032 18.554H11.5727L12.2364 19.6394C12.2836 19.7225 12.3471 19.7952 12.423 19.8532C12.4989 19.9113 12.5857 19.9535 12.6783 19.9774C12.7708 20.0012 12.8672 20.0063 12.9617 19.9922C13.0562 19.9781 13.147 19.9452 13.2285 19.8954C13.3101 19.8456 13.3808 19.7799 13.4365 19.7022C13.4922 19.6246 13.5317 19.5365 13.5527 19.4433C13.5737 19.3501 13.5758 19.2536 13.5588 19.1595C13.5418 19.0655 13.5061 18.9758 13.4538 18.8958L11.45 15.6182C12.2479 15.4468 12.9631 15.0074 13.4766 14.3731C13.9901 13.7387 14.2709 12.9476 14.2723 12.1315ZM3.56808 12.8451C3.42694 12.8451 3.28897 12.8032 3.17161 12.7248C3.05426 12.6464 2.96279 12.5349 2.90878 12.4045C2.85477 12.2742 2.84064 12.1307 2.86817 11.9922C2.89571 11.8538 2.96367 11.7267 3.06347 11.6269C3.16328 11.5271 3.29043 11.4591 3.42886 11.4316C3.56728 11.404 3.71077 11.4182 3.84117 11.4722C3.97156 11.5262 4.08301 11.6176 4.16143 11.735C4.23984 11.8524 4.28169 11.9903 4.28169 12.1315C4.28169 12.3207 4.20651 12.5022 4.07268 12.6361C3.93885 12.7699 3.75734 12.8451 3.56808 12.8451ZM3.57307 17.1268L4.44582 15.6995H9.8272L10.6999 17.1268H3.57307ZM9.99061 12.1315C9.99061 11.9903 10.0325 11.8524 10.1109 11.735C10.1893 11.6176 10.3007 11.5262 10.4311 11.4722C10.5615 11.4182 10.705 11.404 10.8434 11.4316C10.9819 11.4591 11.109 11.5271 11.2088 11.6269C11.3086 11.7267 11.3766 11.8538 11.4041 11.9922C11.4317 12.1307 11.4175 12.2742 11.3635 12.4045C11.3095 12.5349 11.218 12.6464 11.1007 12.7248C10.9833 12.8032 10.8454 12.8451 10.7042 12.8451C10.515 12.8451 10.3335 12.7699 10.1996 12.6361C10.0658 12.5022 9.99061 12.3207 9.99061 12.1315ZM12.1315 7.84977C12.1315 8.22829 11.9811 8.59132 11.7134 8.85897C11.4458 9.12663 11.0828 9.277 10.7042 9.277H3.56808C3.18955 9.277 2.82653 9.12663 2.55887 8.85897C2.29121 8.59132 2.14085 8.22829 2.14085 7.84977V3.56808C2.14085 3.18955 2.29121 2.82653 2.55887 2.55887C2.82653 2.29121 3.18955 2.14085 3.56808 2.14085H10.7042C11.0828 2.14085 11.4458 2.29121 11.7134 2.55887C11.9811 2.82653 12.1315 3.18955 12.1315 3.56808V7.84977Z" fill="#E2E7D5"/>
</svg>
