<svg width="16" height="20" viewBox="0 0 16 20" fill="none" xmlns="http://www.w3.org/2000/svg">
<path d="M6.73241 4.18196C5.95019 4.47457 5.55235 5.34681 5.8454 6.12935C6.13846 6.91193 7.0109 7.30932 7.79316 7.01663C8.57683 6.72337 8.97253 5.85183 8.67951 5.06892C8.3871 4.28602 7.51596 3.88894 6.73241 4.18196Z" fill="#E2E7D5"/>
<path d="M15.1417 13.47C14.7624 13.4416 14.4457 13.7178 14.416 14.0889L14.3014 15.5339L13.0642 16.3643L11.2086 13.5928C11.023 13.3152 10.7121 13.1473 10.3782 13.144L8.43116 13.1252V12.3581C8.53526 12.4203 8.65376 12.4565 8.77627 12.4565C8.84402 12.4565 8.91193 12.4464 8.97902 12.4253L11.077 11.7642C11.4318 11.6522 11.6294 11.2736 11.5174 10.9183C11.4056 10.563 11.0289 10.3656 10.6713 10.4781L9.06401 10.9845L8.4325 10.006V9.43157C8.43319 8.68907 7.84091 8.08661 7.0892 8.08661C5.8614 8.08661 5.70984 9.08107 5.70984 9.43766C5.70984 9.43766 5.70898 13.9408 5.70898 14.1103C5.70898 14.6691 6.15226 15.126 6.71051 15.1317L9.82522 15.1616L11.3851 17.4917L9.48672 18.7661C9.17785 18.9736 9.09553 19.3923 9.30295 19.7015C9.43269 19.8954 9.64607 20.0001 9.86339 20.0001C9.99247 20.0001 10.1233 19.9632 10.2387 19.8856L15.3241 16.472C15.4947 16.3574 15.6039 16.1708 15.6204 15.9656L15.7606 14.1957C15.7897 13.8242 15.513 13.4996 15.1417 13.47Z" fill="#E2E7D5"/>
<path d="M11.972 0.432986C11.839 0.0856906 11.45 -0.0888701 11.1009 0.0451639L0.432907 4.13961C0.0852057 4.27291 -0.0885436 4.66301 0.0450036 5.01075C0.147801 5.27874 0.403293 5.44368 0.674525 5.44368C0.754848 5.44368 0.83647 5.4292 0.916184 5.39857L3.7094 4.32663V14.3262C3.7094 15.9365 5.01988 17.2468 6.63044 17.2468H8.85482C9.22747 17.2468 9.52913 16.945 9.52913 16.5726C9.52913 16.2002 9.22747 15.8983 8.85482 15.8983H6.63044C5.76323 15.8983 5.05801 15.1931 5.05801 14.3262V3.80903L11.5841 1.30421C11.9319 1.17086 12.1058 0.780728 11.972 0.432986Z" fill="#E2E7D5"/>
</svg>
