<svg width="22" height="20" viewBox="0 0 22 20" fill="none" xmlns="http://www.w3.org/2000/svg">
<path d="M20.6067 5.14983C21.656 4.63492 22.0898 3.36749 21.5749 2.31864C21.0613 1.2689 19.7935 0.835536 18.7441 1.35001C17.6953 1.86408 17.2618 3.1316 17.7759 4.18045C18.29 5.22975 19.5574 5.66351 20.6067 5.14983Z" fill="#E2E7D5"/>
<path d="M14.8651 7.87697C14.6962 8.69989 14.7703 9.43666 15.5902 9.66228C15.5902 9.66228 19.3619 10.6983 19.3635 10.6987L19.3657 10.6991C19.9783 10.8668 20.6054 10.5063 20.7721 9.89861C20.939 9.29011 20.5822 8.66095 19.9737 8.49295C19.9729 8.4925 19.9725 8.4925 19.9716 8.49206L18.0481 7.96383L17.2877 7.45639C17.5179 6.33675 17.436 6.73414 17.6408 5.73856C17.7488 5.21418 17.3469 4.54365 17.1114 4.06267C16.6681 3.15909 15.577 2.78568 14.6738 3.2286L13.4106 3.84789L15.4255 5.19352C15.3792 5.3533 15.2699 5.90626 15.2335 6.08431L6.33494 0.143332C5.94671 -0.117509 5.41976 -0.0123317 5.15945 0.377536C4.89945 0.766607 5.00423 1.29316 5.39365 1.55307L14.8651 7.87697Z" fill="#E2E7D5"/>
<path d="M21.8508 17.8157C21.6112 17.4143 21.0917 17.2839 20.6881 17.5239L19.5209 18.2222L11.7996 15.5649L15.4404 12.4977C16.1325 11.9153 16.0969 10.8328 15.363 10.2977L13.3257 8.81292L14.0571 8.45451L14.1416 8.41305L9.88935 5.57397L9.88851 5.57437C9.1786 5.92247 8.72701 6.58234 8.6086 7.30743C8.46169 8.20239 8.83586 8.98097 9.68187 9.6188L12.2735 11.5075L8.74484 14.5135L1.12403 11.8904C0.680313 11.7369 0.198498 11.9727 0.0465506 12.4157C-0.106193 12.8586 0.129338 13.3408 0.571817 13.4935L19.3415 19.9536C19.4314 19.9847 19.525 20 19.6177 20C19.7692 20 19.9199 19.9594 20.0532 19.8795L21.559 18.9784C21.9605 18.7383 22.0913 18.2176 21.8508 17.8157Z" fill="#E2E7D5"/>
</svg>
