<svg width="29" height="20" viewBox="0 0 29 20" fill="none" xmlns="http://www.w3.org/2000/svg">
<path d="M24.6191 1.9436C23.6511 3.11738 22.081 3.11738 21.1054 1.9436C20.0612 0.685976 18.6664 0 17.1496 0C15.6404 0 14.238 0.685976 13.1938 1.9436C12.2258 3.11738 10.6481 3.11738 9.68007 1.9436C8.63587 0.685976 7.24105 0 5.72428 0C4.21513 0 2.81269 0.685976 1.76848 1.9436C1.28068 2.52287 0.632813 2.8125 0.0078125 2.8125V5.71647C1.51696 5.71647 2.9194 5.01525 3.96361 3.75762C4.9316 2.58384 6.50934 2.58384 7.47733 3.75762C8.52154 5.01525 9.91635 5.71647 11.4331 5.71647C12.9423 5.71647 14.3447 5.01525 15.3889 3.75762C16.3569 2.58384 17.9347 2.58384 18.9026 3.75762C19.9468 5.01525 21.3493 5.71647 22.8584 5.71647C24.3676 5.71647 25.77 5.01525 26.8142 3.75762C27.302 3.17073 27.9423 2.87348 28.5749 2.87348V0C27.0581 0 25.6633 0.685976 24.6191 1.9436Z" fill="#E2E7D5"/>
<path d="M24.6191 16.227C23.6511 17.4008 22.081 17.4008 21.1054 16.227C20.0612 14.9694 18.6664 14.2834 17.1496 14.2834C15.6404 14.2834 14.238 14.9694 13.1938 16.227C12.2258 17.4008 10.6481 17.4008 9.68007 16.227C8.63587 14.9694 7.24105 14.2834 5.72428 14.2834C4.21513 14.2834 2.81269 14.9694 1.76848 16.227C1.28068 16.8063 0.632813 17.0959 0.0078125 17.0959V19.9999C1.51696 19.9999 2.9194 19.2986 3.96361 18.041C4.9316 16.8672 6.50934 16.8672 7.47733 18.041C8.52154 19.2986 9.91635 19.9999 11.4331 19.9999C12.9423 19.9999 14.3447 19.2986 15.3889 18.041C16.3569 16.8672 17.9347 16.8672 18.9026 18.041C19.9468 19.2986 21.3493 19.9999 22.8584 19.9999C24.3676 19.9999 25.77 19.2986 26.8142 18.041C27.302 17.4541 27.9423 17.1569 28.5749 17.1569V14.2834C27.0581 14.2834 25.6633 14.9694 24.6191 16.227Z" fill="#E2E7D5"/>
<path d="M28.2927 7.13428C26.7836 7.13428 25.3811 7.82025 24.3369 9.07788C23.3689 10.2517 21.7988 10.2517 20.8232 9.07788C19.779 7.82025 18.3842 7.13428 16.8674 7.13428C15.3582 7.13428 13.9558 7.82025 12.9116 9.07788C11.9436 10.2517 10.3659 10.2517 9.39787 9.07788C8.35366 7.82025 6.95122 7.13428 5.44208 7.13428C3.93293 7.13428 2.53049 7.82025 1.48628 9.07788C1.14329 9.49708 0.304878 9.96964 0 9.92391V12.8431C0.0990854 12.8431 0.190549 12.8431 0.27439 12.8279C1.58537 12.6754 2.77439 11.9971 3.68903 10.8995C4.65701 9.72574 6.23476 9.72574 7.20275 10.8995C8.24696 12.1571 9.64939 12.8584 11.1585 12.8584C12.6677 12.8584 14.0701 12.1571 15.1143 10.8995C16.0823 9.72574 17.6601 9.72574 18.6281 10.8995C19.6723 12.1571 21.0747 12.8584 22.5839 12.8584C24.093 12.8584 25.4954 12.1571 26.5396 10.8995C27.0275 10.3126 27.6677 10.0154 28.3003 10.0154C28.3994 10.0154 28.4909 10.0154 28.5747 10.0459V7.15714C28.4832 7.14952 28.3994 7.14952 28.2927 7.13428Z" fill="#E2E7D5"/>
</svg>
