<svg width="29" height="26" viewBox="0 0 29 26" fill="none" xmlns="http://www.w3.org/2000/svg">
<path d="M14.8343 18.7892C14.6727 18.7599 14.5199 18.6938 14.3878 18.596C14.2557 18.4982 14.1479 18.3714 14.0726 18.2253C13.9796 18.046 13.938 17.8445 13.9524 17.643C13.9669 17.4416 14.0368 17.248 14.1545 17.0839L16.1372 14.3621L13.7338 11.0582C13.7209 11.0407 13.7132 11.0199 13.7114 10.9983C13.7097 10.9766 13.714 10.9548 13.7239 10.9355C13.7338 10.9161 13.749 10.8999 13.7676 10.8887C13.7862 10.8774 13.8076 10.8716 13.8293 10.8718H14.6115C14.7056 10.8686 14.7971 10.8399 14.8762 10.7888C14.9553 10.7377 15.019 10.666 15.0606 10.5815C15.1021 10.497 15.1199 10.4028 15.1121 10.3089C15.1043 10.2151 15.0712 10.1251 15.0162 10.0486L11.6714 5.13945C11.6595 5.12169 11.6526 5.10101 11.6515 5.07963C11.6504 5.05826 11.6551 5.03698 11.6652 5.01807C11.6752 4.99916 11.6902 4.98334 11.7085 4.97228C11.7268 4.96122 11.7478 4.95534 11.7692 4.95527H12.4468C12.5197 4.95394 12.5907 4.93177 12.6514 4.8914C12.7121 4.85103 12.7599 4.79414 12.7894 4.72743C12.8188 4.66073 12.8285 4.58701 12.8173 4.51497C12.8062 4.44293 12.7747 4.37558 12.7265 4.32088L9.6864 0.196158C9.64097 0.135277 9.58197 0.0858421 9.51407 0.0517876C9.44617 0.0177332 9.37126 0 9.2953 0C9.21934 0 9.14443 0.0177332 9.07653 0.0517876C9.00864 0.0858421 8.94963 0.135277 8.9042 0.196158L5.8641 4.32088C5.81612 4.37565 5.78477 4.44298 5.77373 4.51495C5.7627 4.58693 5.77244 4.66055 5.80182 4.72718C5.83119 4.79381 5.87898 4.85067 5.93955 4.89107C6.00013 4.93148 6.07098 4.95375 6.14378 4.95527H6.82138C6.84279 4.95534 6.86377 4.96122 6.8821 4.97228C6.90043 4.98334 6.91541 4.99916 6.92545 5.01807C6.93548 5.03698 6.9402 5.05826 6.93909 5.07963C6.93798 5.10101 6.93109 5.12169 6.91915 5.13945L3.57436 10.0486C3.5194 10.1253 3.48632 10.2155 3.47866 10.3095C3.47099 10.4035 3.48903 10.4978 3.53083 10.5824C3.57264 10.6669 3.63665 10.7385 3.71601 10.7895C3.79537 10.8405 3.88709 10.8689 3.98137 10.8718H4.76357C4.78515 10.872 4.80626 10.8781 4.82463 10.8894C4.84299 10.9007 4.85789 10.9169 4.86773 10.9361C4.87757 10.9553 4.88196 10.9768 4.88044 10.9984C4.87891 11.0199 4.87152 11.0406 4.85907 11.0582L1.28916 15.9651C1.23422 16.0416 1.20108 16.1316 1.19327 16.2254C1.18547 16.3193 1.20329 16.4135 1.24485 16.498C1.2864 16.5825 1.35012 16.6541 1.42921 16.7053C1.5083 16.7564 1.59979 16.7851 1.69391 16.7883H2.74441C2.76483 16.7885 2.78484 16.794 2.80249 16.8043C2.82015 16.8145 2.83484 16.8292 2.84515 16.8468C2.85545 16.8645 2.86101 16.8845 2.86129 16.9049C2.86157 16.9253 2.85655 16.9454 2.84673 16.9633L0.0976807 21.8816C0.0427375 21.9581 0.00959451 22.0481 0.00178939 22.1419C-0.00601573 22.2358 0.01181 22.33 0.0533639 22.4145C0.0949178 22.499 0.15864 22.5706 0.237728 22.6218C0.316817 22.6729 0.408303 22.7016 0.502421 22.7048H7.68771V25.1011C7.68768 25.1769 7.70256 25.2518 7.73152 25.3218C7.76047 25.3918 7.80293 25.4553 7.85645 25.5089C7.90998 25.5624 7.97354 25.6049 8.04348 25.6339C8.11343 25.6629 8.18841 25.6778 8.26412 25.6778H10.3276C10.4033 25.6778 10.4783 25.6629 10.5483 25.6339C10.6182 25.6049 10.6818 25.5624 10.7353 25.5089C10.7888 25.4553 10.8313 25.3918 10.8602 25.3218C10.8892 25.2518 10.9041 25.1769 10.904 25.1011V22.7048H13.104C13.0401 22.5429 13.0156 22.3682 13.0326 22.195C13.0496 22.0218 13.1076 21.8552 13.2017 21.7088L14.8343 18.7892Z" fill="#00533E"/>
<path d="M28.0288 22.0666L25.8996 18.2593C25.8915 18.2454 25.8873 18.2296 25.8874 18.2135C25.8874 18.1975 25.8917 18.1817 25.8998 18.1679C25.9079 18.154 25.9196 18.1425 25.9335 18.1346C25.9475 18.1267 25.9633 18.1227 25.9794 18.1228H26.7911C26.8639 18.1202 26.9345 18.098 26.9957 18.0584C27.0568 18.0189 27.1061 17.9636 27.1383 17.8983C27.1706 17.8331 27.1846 17.7603 27.1789 17.6878C27.1731 17.6152 27.1479 17.5456 27.1058 17.4862L24.342 13.6889C24.332 13.6753 24.3259 13.6592 24.3245 13.6424C24.3231 13.6255 24.3264 13.6086 24.334 13.5936C24.3417 13.5785 24.3533 13.5659 24.3678 13.5571C24.3822 13.5483 24.3988 13.5437 24.4157 13.5438H25.0216C25.0946 13.5413 25.1654 13.519 25.2267 13.4794C25.2879 13.4398 25.3373 13.3844 25.3696 13.3189C25.4018 13.2535 25.4158 13.1806 25.4099 13.1079C25.404 13.0351 25.3785 12.9654 25.3361 12.906L22.746 9.10417C22.7366 9.09048 22.7311 9.07446 22.7301 9.05785C22.7291 9.04125 22.7327 9.02469 22.7405 9.00999C22.7483 8.9953 22.76 8.98301 22.7742 8.97448C22.7885 8.96595 22.8049 8.9615 22.8215 8.96161H23.3458C23.4024 8.96087 23.4576 8.9439 23.5048 8.91273C23.5521 8.88155 23.5894 8.83747 23.6123 8.78573C23.6352 8.73398 23.6428 8.67675 23.6341 8.62082C23.6255 8.56489 23.6009 8.51263 23.5634 8.47023L21.2091 5.27687C21.1741 5.22943 21.1284 5.19088 21.0758 5.16431C21.0231 5.13774 20.965 5.1239 20.906 5.1239C20.8471 5.1239 20.7889 5.13774 20.7363 5.16431C20.6836 5.19088 20.638 5.22943 20.6029 5.27687L18.2486 8.47023C18.2111 8.51263 18.1866 8.56489 18.1779 8.62082C18.1693 8.67675 18.1769 8.73398 18.1998 8.78573C18.2227 8.83747 18.26 8.88155 18.3072 8.91273C18.3544 8.9439 18.4096 8.96087 18.4662 8.96161H18.9906C19.0072 8.9615 19.0235 8.96595 19.0378 8.97448C19.0521 8.98301 19.0638 8.9953 19.0715 9.00999C19.0793 9.02469 19.0829 9.04125 19.082 9.05785C19.081 9.07446 19.0755 9.09048 19.066 9.10417L16.4759 12.9046C16.4333 12.964 16.4076 13.0339 16.4016 13.1067C16.3956 13.1796 16.4094 13.2527 16.4417 13.3183C16.474 13.3838 16.5235 13.4394 16.5849 13.4791C16.6463 13.5187 16.7173 13.5409 16.7904 13.5434H17.3964C17.4133 13.5433 17.4299 13.5479 17.4443 13.5566C17.4587 13.5654 17.4704 13.5781 17.478 13.5931C17.4857 13.6082 17.489 13.6251 17.4876 13.6419C17.4862 13.6588 17.4801 13.6749 17.47 13.6884L14.7062 17.4857C14.6641 17.5451 14.6389 17.6148 14.6332 17.6873C14.6275 17.7599 14.6415 17.8326 14.6737 17.8979C14.706 17.9631 14.7553 18.0185 14.8164 18.058C14.8775 18.0975 14.9482 18.1198 15.0209 18.1224H15.8327C15.8487 18.1222 15.8645 18.1263 15.8785 18.1342C15.8925 18.1421 15.9041 18.1536 15.9122 18.1674C15.9203 18.1813 15.9246 18.197 15.9247 18.2131C15.9247 18.2291 15.9205 18.2449 15.9125 18.2588L13.7833 22.0666C13.7412 22.126 13.716 22.1956 13.7102 22.2682C13.7045 22.3407 13.7185 22.4135 13.7508 22.4787C13.783 22.544 13.8323 22.5993 13.8934 22.6388C13.9546 22.6783 14.0252 22.7006 14.098 22.7032H19.6604V25.1899C19.6604 25.3189 19.7117 25.4427 19.8029 25.534C19.8942 25.6252 20.018 25.6765 20.147 25.6765H21.665C21.7941 25.6765 21.9179 25.6252 22.0091 25.534C22.1004 25.4427 22.1516 25.3189 22.1516 25.1899V22.7044H27.7141C27.787 22.7019 27.8579 22.6797 27.9192 22.6401C27.9805 22.6005 28.0299 22.545 28.0622 22.4796C28.0945 22.4142 28.1084 22.3412 28.1025 22.2685C28.0967 22.1957 28.0712 22.126 28.0288 22.0666Z" fill="#00533E"/>
</svg>
