<svg width="824" height="440" viewBox="0 0 824 440" fill="none" xmlns="http://www.w3.org/2000/svg">
<mask id="mask0_501_3" style="mask-type:alpha" maskUnits="userSpaceOnUse" x="0" y="0" width="744" height="400">
<rect width="744" height="400" rx="24" fill="#E2E7D5"/>
</mask>
<g mask="url(#mask0_501_3)">
<path d="M491.615 986.532C448.882 990.622 424.506 1041.74 377.866 1048.45C402.117 886.274 326.372 690.885 450.618 561.913C523.81 464.095 663.792 499.48 766.027 548.235C612.8 586.167 515.232 735.101 496.952 893.565C492.905 948.657 491.682 986.443 491.682 986.443L491.615 986.532Z" stroke="#00533E" stroke-width="0.8" stroke-miterlimit="10"/>
<path d="M1573.53 465.564C1536.18 502.123 1492.65 541.955 1437.66 575.579C1104.85 696.498 456.313 766.079 391.511 426.295C342.381 195.336 835.581 259.206 1068.78 163.898C1125.29 144.177 1173.77 119.422 1221.06 97.379C1268.35 75.3357 1315.11 56.2247 1359.56 40.9373C1548.29 -25.9108 1675.16 193.855 1618.5 377.285C1609.22 407.105 1594.42 436.53 1573.46 465.653L1573.53 465.564Z" stroke="#00533E" stroke-width="0.8" stroke-miterlimit="10"/>
</g>
</svg>
