<svg width="21" height="26" viewBox="0 0 21 26" fill="none" xmlns="http://www.w3.org/2000/svg">
<path d="M8.64341 5.36931C7.63913 5.74499 7.12835 6.86485 7.5046 7.86954C7.88086 8.87429 9.00097 9.3845 10.0053 9.00872C11.0115 8.63221 11.5195 7.51324 11.1433 6.50807C10.7679 5.50291 9.64941 4.99311 8.64341 5.36931Z" fill="#00533E"/>
<path d="M19.4396 17.2941C18.9526 17.2577 18.5461 17.6123 18.5079 18.0888L18.3609 19.944L16.7724 21.01L14.3899 17.4517C14.1517 17.0954 13.7525 16.8798 13.3239 16.8755L10.8241 16.8514V15.8666C10.9577 15.9465 11.1099 15.9929 11.2672 15.9929C11.3541 15.9929 11.4413 15.9799 11.5275 15.9528L14.2211 15.104C14.6766 14.9602 14.9302 14.4741 14.7865 14.018C14.6429 13.5619 14.1593 13.3084 13.7001 13.4528L11.6366 14.103L10.8258 12.8467V12.1092C10.8267 11.1559 10.0663 10.3824 9.10115 10.3824C7.52478 10.3824 7.3302 11.6592 7.3302 12.117C7.3302 12.117 7.3291 17.8985 7.3291 18.1163C7.3291 18.8336 7.89822 19.4203 8.61495 19.4275L12.6139 19.466L14.6166 22.4575L12.1793 24.0937C11.7827 24.3601 11.6771 24.8977 11.9434 25.2947C12.1099 25.5436 12.3839 25.678 12.6629 25.678C12.8286 25.678 12.9966 25.6307 13.1448 25.531L19.6738 21.1484C19.8929 21.0012 20.0331 20.7616 20.0543 20.4983L20.2343 18.2258C20.2717 17.7489 19.9164 17.3321 19.4396 17.2941Z" fill="#00533E"/>
<path d="M15.3708 0.555906C15.2 0.110017 14.7005 -0.114099 14.2523 0.0579855L0.555805 5.3148C0.109395 5.48595 -0.11368 5.98678 0.0577796 6.43325C0.18976 6.77731 0.517783 6.98908 0.866016 6.98908C0.969141 6.98908 1.07393 6.97049 1.17628 6.93117L4.76245 5.55491V18.3933C4.76245 20.4607 6.44497 22.143 8.51275 22.143H11.3686C11.847 22.143 12.2343 21.7555 12.2343 21.2774C12.2343 20.7993 11.847 20.4117 11.3686 20.4117H8.51275C7.39935 20.4117 6.49393 19.5062 6.49393 18.3933V4.89037L14.8727 1.67446C15.3192 1.50326 15.5424 1.00237 15.3708 0.555906Z" fill="#00533E"/>
</svg>
