<svg width="26" height="26" viewBox="0 0 26 26" fill="none" xmlns="http://www.w3.org/2000/svg">
<path d="M7.33651 3.66825C7.33651 5.69418 5.69418 7.33651 3.66825 7.33651C1.64233 7.33651 0 5.69418 0 3.66825C0 1.64233 1.64233 0 3.66825 0C5.69418 0 7.33651 1.64233 7.33651 3.66825Z" fill="#00533E"/>
<path d="M25.6773 22.0097C25.6773 24.0357 24.0351 25.6779 22.0091 25.6779C19.9831 25.6779 18.3408 24.0357 18.3408 22.0097C18.3408 19.9837 19.9831 18.3414 22.0091 18.3414C24.0351 18.3414 25.6773 19.9837 25.6773 22.0097Z" fill="#00533E"/>
<path d="M14.6729 6.41944C14.6729 4.9 15.9046 3.66825 17.4241 3.66825C18.9435 3.66825 20.1753 4.9 20.1753 6.41944V14.673H23.8435V6.41944C23.8435 2.87408 20.9694 0 17.4241 0C13.8787 0 11.0046 2.87408 11.0046 6.41944V19.2583C11.0046 20.7777 9.77287 22.0095 8.25343 22.0095C6.73398 22.0095 5.50224 20.7777 5.50224 19.2583V11.0048H1.83398V19.2583C1.83398 22.8037 4.70806 25.6778 8.25343 25.6778C11.7988 25.6778 14.6729 22.8037 14.6729 19.2583V6.41944Z" fill="#00533E"/>
</svg>
