<svg width="22" height="20" viewBox="0 0 22 20" fill="none" xmlns="http://www.w3.org/2000/svg">
<path d="M11.5542 14.6346C11.4283 14.6118 11.3093 14.5603 11.2064 14.4841C11.1035 14.408 11.0196 14.3092 10.9609 14.1954C10.8885 14.0558 10.856 13.8988 10.8673 13.7419C10.8786 13.5849 10.933 13.4342 11.0247 13.3063L12.569 11.1864L10.697 8.61307C10.687 8.59942 10.681 8.58324 10.6796 8.56636C10.6783 8.54947 10.6816 8.53254 10.6893 8.51746C10.6971 8.50239 10.7088 8.48976 10.7233 8.48099C10.7378 8.47223 10.7545 8.46767 10.7714 8.46784H11.3807C11.454 8.46536 11.5252 8.44302 11.5868 8.4032C11.6484 8.36338 11.6981 8.30758 11.7304 8.24176C11.7628 8.17594 11.7767 8.10256 11.7706 8.02946C11.7645 7.95637 11.7387 7.88629 11.6959 7.82672L9.0907 4.00304C9.0814 3.9892 9.07603 3.97309 9.07517 3.95644C9.07431 3.93979 9.07798 3.92322 9.0858 3.90849C9.09362 3.89377 9.10529 3.88144 9.11956 3.87282C9.13384 3.86421 9.15018 3.85963 9.16685 3.85958H9.69463C9.75139 3.85854 9.80668 3.84128 9.85395 3.80983C9.90123 3.77839 9.93852 3.73407 9.96142 3.68212C9.98432 3.63017 9.99188 3.57275 9.98321 3.51664C9.97453 3.46053 9.94999 3.40807 9.91246 3.36546L7.54458 0.152784C7.5092 0.105365 7.46324 0.066861 7.41035 0.0403365C7.35747 0.0138121 7.29912 0 7.23996 0C7.18079 0 7.12245 0.0138121 7.06956 0.0403365C7.01668 0.066861 6.97072 0.105365 6.93534 0.152784L4.56745 3.36546C4.53008 3.40812 4.50566 3.46056 4.49707 3.51662C4.48847 3.57268 4.49606 3.63003 4.51894 3.68193C4.54182 3.73382 4.57904 3.77811 4.62622 3.80958C4.6734 3.84105 4.72859 3.8584 4.78529 3.85958H5.31306C5.32973 3.85963 5.34608 3.86421 5.36035 3.87282C5.37463 3.88144 5.3863 3.89377 5.39412 3.90849C5.40193 3.92322 5.40561 3.93979 5.40474 3.95644C5.40388 3.97309 5.39851 3.9892 5.38922 4.00304L2.78401 7.82672C2.74121 7.88643 2.71544 7.95665 2.70947 8.02988C2.7035 8.1031 2.71754 8.17657 2.75011 8.24242C2.78267 8.30828 2.83253 8.36404 2.89434 8.40375C2.95615 8.44345 3.02759 8.46561 3.10103 8.46784H3.71027C3.72707 8.46799 3.74352 8.47274 3.75782 8.48158C3.77212 8.49041 3.78373 8.50299 3.7914 8.51795C3.79906 8.53291 3.80248 8.54968 3.80129 8.56645C3.8001 8.58322 3.79435 8.59934 3.78465 8.61307L1.00411 12.435C0.961315 12.4946 0.9355 12.5646 0.929421 12.6377C0.923342 12.7108 0.937226 12.7842 0.969592 12.85C1.00196 12.9158 1.05159 12.9716 1.11319 13.0115C1.17479 13.0513 1.24605 13.0736 1.31936 13.0761H2.13758C2.15348 13.0763 2.16907 13.0806 2.18282 13.0886C2.19657 13.0966 2.20801 13.108 2.21604 13.1217C2.22406 13.1355 2.22839 13.151 2.22861 13.1669C2.22883 13.1828 2.22492 13.1985 2.21727 13.2125L0.0760819 17.0432C0.0332876 17.1028 0.00747301 17.1729 0.00139372 17.246C-0.00468556 17.3191 0.00919863 17.3925 0.0415643 17.4583C0.0739299 17.5241 0.123562 17.5799 0.185163 17.6197C0.246764 17.6595 0.318021 17.6819 0.391328 17.6844H5.98783V19.5509C5.98781 19.6098 5.9994 19.6682 6.02195 19.7227C6.04451 19.7772 6.07757 19.8267 6.11926 19.8684C6.16096 19.9101 6.21046 19.9432 6.26494 19.9658C6.31942 19.9884 6.37782 20 6.43679 20H8.04401C8.10299 20 8.16138 19.9884 8.21586 19.9658C8.27034 19.9432 8.31985 19.9101 8.36154 19.8684C8.40323 19.8267 8.4363 19.7772 8.45885 19.7227C8.4814 19.6682 8.49299 19.6098 8.49297 19.5509V17.6844H10.2065C10.1567 17.5583 10.1376 17.4222 10.1509 17.2873C10.1641 17.1524 10.2093 17.0226 10.2826 16.9086L11.5542 14.6346Z" fill="#E2E7D5"/>
<path d="M21.8312 17.1873L20.1728 14.2218C20.1665 14.211 20.1633 14.1987 20.1633 14.1862C20.1633 14.1737 20.1667 14.1614 20.173 14.1506C20.1793 14.1398 20.1884 14.1309 20.1992 14.1248C20.2101 14.1186 20.2224 14.1154 20.2349 14.1156H20.8672C20.9239 14.1135 20.9789 14.0962 21.0265 14.0654C21.0741 14.0346 21.1125 13.9915 21.1376 13.9407C21.1628 13.8899 21.1737 13.8332 21.1692 13.7767C21.1648 13.7202 21.1451 13.6659 21.1123 13.6197L18.9596 10.662C18.9518 10.6515 18.9471 10.6389 18.946 10.6258C18.9449 10.6127 18.9474 10.5995 18.9534 10.5878C18.9593 10.5761 18.9685 10.5662 18.9797 10.5594C18.9909 10.5525 19.0038 10.549 19.017 10.549H19.489C19.5458 10.5471 19.601 10.5297 19.6487 10.4989C19.6964 10.468 19.7349 10.4248 19.76 10.3739C19.7851 10.3229 19.796 10.2661 19.7914 10.2095C19.7868 10.1528 19.7669 10.0985 19.7339 10.0523L17.7165 7.09107C17.7092 7.08041 17.7049 7.06793 17.7041 7.055C17.7034 7.04206 17.7062 7.02917 17.7122 7.01772C17.7183 7.00627 17.7274 6.9967 17.7385 6.99006C17.7496 6.98341 17.7624 6.97994 17.7753 6.98003H18.1837C18.2278 6.97946 18.2708 6.96624 18.3076 6.94196C18.3444 6.91768 18.3734 6.88334 18.3912 6.84304C18.4091 6.80274 18.415 6.75816 18.4083 6.7146C18.4015 6.67104 18.3824 6.63033 18.3532 6.59731L16.5195 4.11005C16.4922 4.0731 16.4566 4.04307 16.4156 4.02238C16.3746 4.00169 16.3293 3.99091 16.2834 3.99091C16.2375 3.99091 16.1922 4.00169 16.1512 4.02238C16.1102 4.04307 16.0746 4.0731 16.0473 4.11005L14.2136 6.59731C14.1844 6.63033 14.1653 6.67104 14.1585 6.7146C14.1518 6.75816 14.1577 6.80274 14.1755 6.84304C14.1934 6.88334 14.2224 6.91768 14.2592 6.94196C14.296 6.96624 14.339 6.97946 14.3831 6.98003H14.7915C14.8044 6.97994 14.8171 6.98341 14.8283 6.99006C14.8394 6.9967 14.8485 7.00627 14.8545 7.01772C14.8606 7.02917 14.8634 7.04206 14.8627 7.055C14.8619 7.06793 14.8576 7.08041 14.8503 7.09107L12.8329 10.0512C12.7997 10.0975 12.7797 10.1519 12.775 10.2086C12.7703 10.2653 12.7811 10.3223 12.8062 10.3734C12.8314 10.4244 12.8699 10.4677 12.9177 10.4986C12.9656 10.5295 13.0209 10.5468 13.0778 10.5487H13.5498C13.5629 10.5486 13.5759 10.5522 13.5871 10.559C13.5983 10.5659 13.6074 10.5757 13.6134 10.5874C13.6193 10.5992 13.6219 10.6123 13.6208 10.6254C13.6197 10.6386 13.615 10.6511 13.6072 10.6617L11.4545 13.6193C11.4217 13.6656 11.402 13.7198 11.3976 13.7764C11.3931 13.8329 11.404 13.8895 11.4291 13.9404C11.4543 13.9912 11.4927 14.0343 11.5403 14.065C11.5879 14.0958 11.6429 14.1132 11.6996 14.1152H12.3318C12.3443 14.1151 12.3567 14.1182 12.3675 14.1244C12.3784 14.1306 12.3875 14.1395 12.3938 14.1503C12.4001 14.1611 12.4035 14.1733 12.4035 14.1859C12.4035 14.1984 12.4003 14.2107 12.394 14.2215L10.7356 17.1873C10.7028 17.2335 10.6832 17.2878 10.6787 17.3443C10.6743 17.4008 10.6852 17.4575 10.7103 17.5083C10.7354 17.5591 10.7738 17.6022 10.8214 17.633C10.869 17.6638 10.9241 17.6811 10.9807 17.6832H15.3132V19.62C15.3132 19.7205 15.3531 19.8169 15.4242 19.888C15.4953 19.9591 15.5917 19.999 15.6922 19.999H16.8746C16.9751 19.999 17.0715 19.9591 17.1426 19.888C17.2136 19.8169 17.2536 19.7205 17.2536 19.62V17.6841H21.5861C21.6429 17.6821 21.6981 17.6648 21.7458 17.634C21.7936 17.6031 21.8321 17.5599 21.8572 17.509C21.8824 17.458 21.8932 17.4012 21.8886 17.3445C21.8841 17.2879 21.8642 17.2335 21.8312 17.1873Z" fill="#E2E7D5"/>
</svg>
