<svg width="20" height="20" viewBox="0 0 20 20" fill="none" xmlns="http://www.w3.org/2000/svg">
<path d="M5.71429 2.85714C5.71429 4.4351 4.4351 5.71429 2.85714 5.71429C1.27919 5.71429 0 4.4351 0 2.85714C0 1.27919 1.27919 0 2.85714 0C4.4351 0 5.71429 1.27919 5.71429 2.85714Z" fill="#E2E7D5"/>
<path d="M19.9994 17.1429C19.9994 18.7209 18.7203 20.0001 17.1423 20.0001C15.5643 20.0001 14.2852 18.7209 14.2852 17.1429C14.2852 15.5649 15.5643 14.2858 17.1423 14.2858C18.7203 14.2858 19.9994 15.5649 19.9994 17.1429Z" fill="#E2E7D5"/>
<path d="M11.4287 5C11.4287 3.81653 12.3881 2.85714 13.5716 2.85714C14.755 2.85714 15.7144 3.81653 15.7144 5V11.4286H18.5716V5C18.5716 2.23857 16.333 0 13.5716 0C10.8101 0 8.57157 2.23857 8.57157 5V15C8.57157 16.1834 7.61218 17.1429 6.42871 17.1429C5.24524 17.1429 4.28585 16.1834 4.28585 15V8.57143H1.42871V15C1.42871 17.7614 3.66728 20 6.42871 20C9.19014 20 11.4287 17.7614 11.4287 15V5Z" fill="#E2E7D5"/>
</svg>
